STARTFONT 2.1
COMMENT 
COMMENT  This font is copyrighted by its author, who reserves all rights under
COMMENT  national and international copyright laws.
COMMENT 
COMMENT  Produced with bdfedit, a tcl/tk font editing program
COMMENT    written by Thomas A. Fine
COMMENT    Email to my last name at head.cfa.harvard.edu
COMMENT    http://hea-www.harvard.edu/~fine/
FONT UNTITLED
SIZE 15 72 72
FONTBOUNDINGBOX 287 36 0 -9
STARTPROPERTIES 21
DEFAULT_CHAR -1
FOUNDRY "Fine"
COPYRIGHT "Designer of this font retains full rights under the law"
CODEPAGE "MS Windows 1252 Western (ANSI)"
ENC_MODE 2
CREATION_YEAR 2001
WEIGHT_NAME "Medium"
SLANT "R"
SETWIDTH_NAME "Normal"
SPACING "C"
HI_VERSION 1
FONTNAME_REGISTRY "-"
CHARSET_REGISTRY "ISO-8859"
CHARSET_ENCODING "1"
BREAK_CHAR 32
PIXEL_SIZE 15
FONT_ASCENT 32
FONT_DESCENT 0
RESOLUTION_X 72
RESOLUTION_Y 72
AVERAGE_WIDTH 3430
ENDPROPERTIES
CHARS 281
STARTCHAR U+0020
ENCODING 32
SWIDTH 500 0
DWIDTH 12 0
BBX 12 24 0 -2
BITMAP 
0000
0000
0000
0000
0000
0000
0000
0000
0000
0000
0000
0000
0000
0000
0000
0000
0000
0000
0000
0000
0000
0000
0000
0000
ENDCHAR
STARTCHAR U+0021
ENCODING 33
SWIDTH 500 0
DWIDTH 12 0
BBX 12 24 0 -2
BITMAP 
0000
0000
0000
0000
0000
0600
0600
0600
0600
0600
0600
0600
0600
0600
0600
0000
0000
0600
0F00
0600
0000
0000
0000
0000
ENDCHAR
STARTCHAR U+0022
ENCODING 34
SWIDTH 500 0
DWIDTH 12 0
BBX 12 24 0 -2
BITMAP 
0000
0000
0000
0000
1980
1980
1980
1980
1980
0000
0000
0000
0000
0000
0000
0000
0000
0000
0000
0000
0000
0000
0000
0000
ENDCHAR
STARTCHAR U+0023
ENCODING 35
SWIDTH 500 0
DWIDTH 12 0
BBX 12 24 0 -2
BITMAP 
0000
0000
0000
0000
0000
0CC0
0CC0
0CC0
3FE0
3FE0
1980
1980
1980
1980
7FC0
7FC0
3300
3300
3300
0000
0000
0000
0000
0000
ENDCHAR
STARTCHAR U+0024
ENCODING 36
SWIDTH 500 0
DWIDTH 12 0
BBX 12 24 0 -2
BITMAP 
0000
0000
0000
0000
0000
0600
1F80
3FE0
6660
6600
3E00
1F80
07C0
0660
0660
6660
7FC0
3F80
0600
0000
0000
0000
0000
0000
ENDCHAR
STARTCHAR U+0025
ENCODING 37
SWIDTH 500 0
DWIDTH 12 0
BBX 12 24 0 -2
BITMAP 
0000
0000
0000
0000
0000
38C0
7CC0
6D80
7D80
3B00
0300
0600
0600
0C00
0DC0
1BE0
1B60
33E0
31C0
0000
0000
0000
0000
0000
ENDCHAR
STARTCHAR U+0026
ENCODING 38
SWIDTH 500 0
DWIDTH 12 0
BBX 12 24 0 -2
BITMAP 
0000
0000
0000
0000
0000
0700
0F80
1DC0
18C0
1980
0F80
1F00
3E00
7360
61E0
61C0
6180
3FE0
1E60
0000
0000
0000
0000
0000
ENDCHAR
STARTCHAR U+0027
ENCODING 39
SWIDTH 500 0
DWIDTH 12 0
BBX 12 24 0 -2
BITMAP 
0000
0000
0000
0600
0F00
0F00
0300
0300
0600
0C00
0000
0000
0000
0000
0000
0000
0000
0000
0000
0000
0000
0000
0000
0000
ENDCHAR
STARTCHAR U+0028
ENCODING 40
SWIDTH 500 0
DWIDTH 12 0
BBX 12 24 0 -2
BITMAP 
0000
0000
0000
0000
0000
0180
0300
0700
0600
0E00
0C00
0C00
0C00
0C00
0E00
0600
0700
0300
0180
0000
0000
0000
0000
0000
ENDCHAR
STARTCHAR U+0029
ENCODING 41
SWIDTH 500 0
DWIDTH 12 0
BBX 12 24 0 -2
BITMAP 
0000
0000
0000
0000
0000
1800
0C00
0E00
0600
0700
0300
0300
0300
0300
0700
0600
0E00
0C00
1800
0000
0000
0000
0000
0000
ENDCHAR
STARTCHAR U+002A
ENCODING 42
SWIDTH 500 0
DWIDTH 12 0
BBX 12 24 0 -2
BITMAP 
0000
0000
0000
0000
0000
0000
0000
0600
0600
6660
76E0
1F80
0600
1F80
76E0
6660
0600
0600
0000
0000
0000
0000
0000
0000
ENDCHAR
STARTCHAR U+002B
ENCODING 43
SWIDTH 500 0
DWIDTH 12 0
BBX 12 24 0 -2
BITMAP 
0000
0000
0000
0000
0000
0000
0000
0000
0600
0600
0600
0600
7FE0
7FE0
0600
0600
0600
0600
0000
0000
0000
0000
0000
0000
ENDCHAR
STARTCHAR U+002C
ENCODING 44
SWIDTH 500 0
DWIDTH 12 0
BBX 12 24 0 -2
BITMAP 
0000
0000
0000
0000
0000
0000
0000
0000
0000
0000
0000
0000
0000
0000
0000
0600
0F00
0F00
0300
0300
0600
0C00
0000
0000
ENDCHAR
STARTCHAR U+002D
ENCODING 45
SWIDTH 500 0
DWIDTH 12 0
BBX 12 24 0 -2
BITMAP 
0000
0000
0000
0000
0000
0000
0000
0000
0000
0000
0000
0000
7FE0
7FE0
0000
0000
0000
0000
0000
0000
0000
0000
0000
0000
ENDCHAR
STARTCHAR U+002E
ENCODING 46
SWIDTH 500 0
DWIDTH 12 0
BBX 12 24 0 -2
BITMAP 
0000
0000
0000
0000
0000
0000
0000
0000
0000
0000
0000
0000
0000
0000
0000
0600
0F00
0F00
0600
0000
0000
0000
0000
0000
ENDCHAR
STARTCHAR U+002F
ENCODING 47
SWIDTH 500 0
DWIDTH 12 0
BBX 12 24 0 -2
BITMAP 
0000
0000
0000
0000
0000
00C0
00C0
0180
0180
0300
0300
0600
0600
0C00
0C00
1800
1800
3000
3000
0000
0000
0000
0000
0000
ENDCHAR
STARTCHAR U+0030
ENCODING 48
SWIDTH 500 0
DWIDTH 12 0
BBX 12 24 0 -2
BITMAP 
0000
0000
0000
0000
0000
0F00
1F80
39C0
30C0
31C0
33C0
36C0
3CC0
38C0
30C0
30C0
39C0
1F80
0F00
0000
0000
0000
0000
0000
ENDCHAR
STARTCHAR U+0031
ENCODING 49
SWIDTH 500 0
DWIDTH 12 0
BBX 12 24 0 -2
BITMAP 
0000
0000
0000
0000
0000
0600
0E00
1E00
3600
0600
0600
0600
0600
0600
0600
0600
0600
3FC0
3FC0
0000
0000
0000
0000
0000
ENDCHAR
STARTCHAR U+0032
ENCODING 50
SWIDTH 500 0
DWIDTH 12 0
BBX 12 24 0 -2
BITMAP 
0000
0000
0000
0000
0000
0F80
1FC0
30E0
3060
0060
00C0
0180
0300
0600
0C00
1800
3000
3FE0
3FE0
0000
0000
0000
0000
0000
ENDCHAR
STARTCHAR U+0033
ENCODING 51
SWIDTH 500 0
DWIDTH 12 0
BBX 12 24 0 -2
BITMAP 
0000
0000
0000
0000
0000
0F80
1FC0
30E0
3060
0060
00C0
0780
07C0
0060
0060
3060
30E0
1FC0
0F80
0000
0000
0000
0000
0000
ENDCHAR
STARTCHAR U+0034
ENCODING 52
SWIDTH 500 0
DWIDTH 12 0
BBX 12 24 0 -2
BITMAP 
0000
0000
0000
0000
0000
0300
0300
0600
0600
0D80
0D80
1980
1980
3180
3FE0
3FE0
0180
0180
0180
0000
0000
0000
0000
0000
ENDCHAR
STARTCHAR U+0035
ENCODING 53
SWIDTH 500 0
DWIDTH 12 0
BBX 12 24 0 -2
BITMAP 
0000
0000
0000
0000
0000
3FC0
3FC0
3000
3000
3000
3F80
3FC0
00E0
0060
0060
3060
30E0
1FC0
0F80
0000
0000
0000
0000
0000
ENDCHAR
STARTCHAR U+0036
ENCODING 54
SWIDTH 500 0
DWIDTH 12 0
BBX 12 24 0 -2
BITMAP 
0000
0000
0000
0000
0000
0F80
1FC0
3860
3060
3000
3780
3FC0
38E0
3060
3060
3060
38E0
1FC0
0F80
0000
0000
0000
0000
0000
ENDCHAR
STARTCHAR U+0037
ENCODING 55
SWIDTH 500 0
DWIDTH 12 0
BBX 12 24 0 -2
BITMAP 
0000
0000
0000
0000
0000
3FE0
3FE0
00C0
00C0
0180
0180
0300
0300
0600
0600
0C00
0C00
1800
1800
0000
0000
0000
0000
0000
ENDCHAR
STARTCHAR U+0038
ENCODING 56
SWIDTH 500 0
DWIDTH 12 0
BBX 12 24 0 -2
BITMAP 
0000
0000
0000
0000
0000
0F00
1F80
30C0
30C0
30C0
1F80
1F80
39C0
70E0
6060
6060
70E0
3FC0
1F80
0000
0000
0000
0000
0000
ENDCHAR
STARTCHAR U+0039
ENCODING 57
SWIDTH 500 0
DWIDTH 12 0
BBX 12 24 0 -2
BITMAP 
0000
0000
0000
0000
0000
0F80
1FC0
38E0
3060
3060
38E0
1FE0
0F60
0060
0060
3060
30E0
1FC0
0F80
0000
0000
0000
0000
0000
ENDCHAR
STARTCHAR U+003A
ENCODING 58
SWIDTH 500 0
DWIDTH 12 0
BBX 12 24 0 -2
BITMAP 
0000
0000
0000
0000
0000
0000
0000
0000
0600
0F00
0F00
0600
0000
0000
0000
0600
0F00
0F00
0600
0000
0000
0000
0000
0000
ENDCHAR
STARTCHAR U+003B
ENCODING 59
SWIDTH 500 0
DWIDTH 12 0
BBX 12 24 0 -2
BITMAP 
0000
0000
0000
0000
0000
0000
0000
0000
0600
0F00
0F00
0600
0000
0000
0000
0600
0F00
0F00
0300
0300
0600
0C00
0000
0000
ENDCHAR
STARTCHAR U+003C
ENCODING 60
SWIDTH 500 0
DWIDTH 12 0
BBX 12 24 0 -2
BITMAP 
0000
0000
0000
0000
0000
0000
0000
0000
0060
01C0
0700
1E00
7800
7800
1E00
0780
01C0
0060
0000
0000
0000
0000
0000
0000
ENDCHAR
STARTCHAR U+003D
ENCODING 61
SWIDTH 500 0
DWIDTH 12 0
BBX 12 24 0 -2
BITMAP 
0000
0000
0000
0000
0000
0000
0000
0000
0000
0000
7FE0
7FE0
0000
0000
7FE0
7FE0
0000
0000
0000
0000
0000
0000
0000
0000
ENDCHAR
STARTCHAR U+003E
ENCODING 62
SWIDTH 500 0
DWIDTH 12 0
BBX 12 24 0 -2
BITMAP 
0000
0000
0000
0000
0000
0000
0000
0000
6000
3800
0E00
0780
01E0
01E0
0780
0E00
3800
6000
0000
0000
0000
0000
0000
0000
ENDCHAR
STARTCHAR U+003F
ENCODING 63
SWIDTH 500 0
DWIDTH 12 0
BBX 12 24 0 -2
BITMAP 
0000
0000
0000
0000
0000
0F00
1F80
39C0
20C0
00C0
0180
0300
0600
0600
0600
0000
0000
0600
0F00
0600
0000
0000
0000
0000
ENDCHAR
STARTCHAR U+0040
ENCODING 64
SWIDTH 500 0
DWIDTH 12 0
BBX 12 24 0 -2
BITMAP 
0000
0000
0000
0000
0000
0F80
1FC0
3860
3060
33E0
37E0
3660
3660
3660
37E0
33C0
3800
1FE0
0FE0
0000
0000
0000
0000
0000
ENDCHAR
STARTCHAR U+0041
ENCODING 65
SWIDTH 500 0
DWIDTH 12 0
BBX 12 24 0 -2
BITMAP 
0000
0000
0000
0000
0000
0F80
1FC0
38E0
3060
3060
3060
3FE0
3FE0
3060
3060
3060
3060
3060
3060
0000
0000
0000
0000
0000
ENDCHAR
STARTCHAR U+0042
ENCODING 66
SWIDTH 500 0
DWIDTH 12 0
BBX 12 24 0 -2
BITMAP 
0000
0000
0000
0000
0000
3F00
3F80
31C0
30C0
30C0
3180
3F80
3FC0
30C0
3060
3060
30E0
3FC0
3F80
0000
0000
0000
0000
0000
ENDCHAR
STARTCHAR U+0043
ENCODING 67
SWIDTH 500 0
DWIDTH 12 0
BBX 12 24 0 -2
BITMAP 
0000
0000
0000
0000
0000
0F80
1FC0
38E0
3060
3000
3000
3000
3000
3000
3000
3060
38E0
1FC0
0F80
0000
0000
0000
0000
0000
ENDCHAR
STARTCHAR U+0044
ENCODING 68
SWIDTH 500 0
DWIDTH 12 0
BBX 12 24 0 -2
BITMAP 
0000
0000
0000
0000
0000
3F80
3FC0
30E0
3060
3060
3060
3060
3060
3060
3060
3060
30E0
3FC0
3F80
0000
0000
0000
0000
0000
ENDCHAR
STARTCHAR U+0045
ENCODING 69
SWIDTH 500 0
DWIDTH 12 0
BBX 12 24 0 -2
BITMAP 
0000
0000
0000
0000
0000
3FE0
3FE0
3000
3000
3000
3000
3F80
3F80
3000
3000
3000
3000
3FE0
3FE0
0000
0000
0000
0000
0000
ENDCHAR
STARTCHAR U+0046
ENCODING 70
SWIDTH 500 0
DWIDTH 12 0
BBX 12 24 0 -2
BITMAP 
0000
0000
0000
0000
0000
3FE0
3FE0
3000
3000
3000
3000
3F80
3F80
3000
3000
3000
3000
3000
3000
0000
0000
0000
0000
0000
ENDCHAR
STARTCHAR U+0047
ENCODING 71
SWIDTH 500 0
DWIDTH 12 0
BBX 12 24 0 -2
BITMAP 
0000
0000
0000
0000
0000
0F80
1FC0
38E0
3060
3000
3000
3000
31E0
31E0
3060
3060
38E0
1FC0
0F80
0000
0000
0000
0000
0000
ENDCHAR
STARTCHAR U+0048
ENCODING 72
SWIDTH 500 0
DWIDTH 12 0
BBX 12 24 0 -2
BITMAP 
0000
0000
0000
0000
0000
3060
3060
3060
3060
3060
3060
3FE0
3FE0
3060
3060
3060
3060
3060
3060
0000
0000
0000
0000
0000
ENDCHAR
STARTCHAR U+0049
ENCODING 73
SWIDTH 500 0
DWIDTH 12 0
BBX 12 24 0 -2
BITMAP 
0000
0000
0000
0000
0000
1F80
1F80
0600
0600
0600
0600
0600
0600
0600
0600
0600
0600
1F80
1F80
0000
0000
0000
0000
0000
ENDCHAR
STARTCHAR U+004A
ENCODING 74
SWIDTH 500 0
DWIDTH 12 0
BBX 12 24 0 -2
BITMAP 
0000
0000
0000
0000
0000
0060
0060
0060
0060
0060
0060
0060
0060
0060
0060
3060
30E0
1FC0
0F80
0000
0000
0000
0000
0000
ENDCHAR
STARTCHAR U+004B
ENCODING 75
SWIDTH 500 0
DWIDTH 12 0
BBX 12 24 0 -2
BITMAP 
0000
0000
0000
0000
0000
3060
30C0
3180
3300
3600
3C00
3800
3C00
3600
3300
3180
30C0
3060
3020
0000
0000
0000
0000
0000
ENDCHAR
STARTCHAR U+004C
ENCODING 76
SWIDTH 500 0
DWIDTH 12 0
BBX 12 24 0 -2
BITMAP 
0000
0000
0000
0000
0000
3000
3000
3000
3000
3000
3000
3000
3000
3000
3000
3000
3000
3FE0
3FE0
0000
0000
0000
0000
0000
ENDCHAR
STARTCHAR U+004D
ENCODING 77
SWIDTH 500 0
DWIDTH 12 0
BBX 12 24 0 -2
BITMAP 
0000
0000
0000
0000
0000
3060
38E0
38E0
3DE0
3FE0
3760
3760
3260
3060
3060
3060
3060
3060
3060
0000
0000
0000
0000
0000
ENDCHAR
STARTCHAR U+004E
ENCODING 78
SWIDTH 500 0
DWIDTH 12 0
BBX 12 24 0 -2
BITMAP 
0000
0000
0000
0000
0000
3060
3860
3860
3C60
3C60
3660
3660
3360
3360
31E0
31E0
30E0
30E0
3060
0000
0000
0000
0000
0000
ENDCHAR
STARTCHAR U+004F
ENCODING 79
SWIDTH 500 0
DWIDTH 12 0
BBX 12 24 0 -2
BITMAP 
0000
0000
0000
0000
0000
0F80
1FC0
38E0
3060
3060
3060
3060
3060
3060
3060
3060
38E0
1FC0
0F80
0000
0000
0000
0000
0000
ENDCHAR
STARTCHAR U+0050
ENCODING 80
SWIDTH 500 0
DWIDTH 12 0
BBX 12 24 0 -2
BITMAP 
0000
0000
0000
0000
0000
3F80
3FC0
30E0
3060
3060
30E0
3FC0
3F80
3000
3000
3000
3000
3000
3000
0000
0000
0000
0000
0000
ENDCHAR
STARTCHAR U+0051
ENCODING 81
SWIDTH 500 0
DWIDTH 12 0
BBX 12 24 0 -2
BITMAP 
0000
0000
0000
0000
0000
0F80
1FC0
38E0
3060
3060
3060
3060
3060
3060
3060
31E0
39E0
1FC0
0FF0
0030
0000
0000
0000
0000
ENDCHAR
STARTCHAR U+0052
ENCODING 82
SWIDTH 500 0
DWIDTH 12 0
BBX 12 24 0 -2
BITMAP 
0000
0000
0000
0000
0000
3F80
3FC0
30E0
3060
3060
30E0
3FC0
3F80
3180
3180
30C0
30C0
3060
3060
0000
0000
0000
0000
0000
ENDCHAR
STARTCHAR U+0053
ENCODING 83
SWIDTH 500 0
DWIDTH 12 0
BBX 12 24 0 -2
BITMAP 
0000
0000
0000
0000
0000
0F80
1FC0
30E0
3060
3000
3800
1F80
0FC0
00E0
0060
3060
30E0
3FC0
1F80
0000
0000
0000
0000
0000
ENDCHAR
STARTCHAR U+0054
ENCODING 84
SWIDTH 500 0
DWIDTH 12 0
BBX 12 24 0 -2
BITMAP 
0000
0000
0000
0000
0000
7FE0
7FE0
0600
0600
0600
0600
0600
0600
0600
0600
0600
0600
0600
0600
0000
0000
0000
0000
0000
ENDCHAR
STARTCHAR U+0055
ENCODING 85
SWIDTH 500 0
DWIDTH 12 0
BBX 12 24 0 -2
BITMAP 
0000
0000
0000
0000
0000
3060
3060
3060
3060
3060
3060
3060
3060
3060
3060
3060
38E0
1FC0
0F80
0000
0000
0000
0000
0000
ENDCHAR
STARTCHAR U+0056
ENCODING 86
SWIDTH 500 0
DWIDTH 12 0
BBX 12 24 0 -2
BITMAP 
0000
0000
0000
0000
0000
6060
6060
6060
30C0
30C0
30C0
1980
1980
1980
0900
0F00
0F00
0600
0600
0000
0000
0000
0000
0000
ENDCHAR
STARTCHAR U+0057
ENCODING 87
SWIDTH 500 0
DWIDTH 12 0
BBX 12 24 0 -2
BITMAP 
0000
0000
0000
0000
0000
3060
3060
3060
3060
3060
3060
3260
3760
3760
3DE0
3DE0
38E0
38E0
3060
0000
0000
0000
0000
0000
ENDCHAR
STARTCHAR U+0058
ENCODING 88
SWIDTH 500 0
DWIDTH 12 0
BBX 12 24 0 -2
BITMAP 
0000
0000
0000
0000
0000
3060
3060
18C0
18C0
0D80
0D80
0700
0700
0D80
0D80
18C0
18C0
3060
3060
0000
0000
0000
0000
0000
ENDCHAR
STARTCHAR U+0059
ENCODING 89
SWIDTH 500 0
DWIDTH 12 0
BBX 12 24 0 -2
BITMAP 
0000
0000
0000
0000
0000
6060
6060
30C0
30C0
1980
1F80
0F00
0600
0600
0600
0600
0600
0600
0600
0000
0000
0000
0000
0000
ENDCHAR
STARTCHAR U+005A
ENCODING 90
SWIDTH 500 0
DWIDTH 12 0
BBX 12 24 0 -2
BITMAP 
0000
0000
0000
0000
0000
7FE0
7FE0
0060
00E0
01C0
0380
0700
0E00
1C00
3800
7000
6000
7FE0
7FE0
0000
0000
0000
0000
0000
ENDCHAR
STARTCHAR U+005B
ENCODING 91
SWIDTH 500 0
DWIDTH 12 0
BBX 12 24 0 -2
BITMAP 
0000
0000
0000
0000
0F80
0F80
0C00
0C00
0C00
0C00
0C00
0C00
0C00
0C00
0C00
0C00
0C00
0F80
0F80
0000
0000
0000
0000
0000
ENDCHAR
STARTCHAR U+005C
ENCODING 92
SWIDTH 500 0
DWIDTH 12 0
BBX 12 24 0 -2
BITMAP 
0000
0000
0000
0000
0000
3000
3000
1800
1800
0C00
0C00
0600
0600
0300
0300
0180
0180
00C0
00C0
0000
0000
0000
0000
0000
ENDCHAR
STARTCHAR U+005D
ENCODING 93
SWIDTH 500 0
DWIDTH 12 0
BBX 12 24 0 -2
BITMAP 
0000
0000
0000
0000
1F00
1F00
0300
0300
0300
0300
0300
0300
0300
0300
0300
0300
0300
1F00
1F00
0000
0000
0000
0000
0000
ENDCHAR
STARTCHAR U+005E
ENCODING 94
SWIDTH 500 0
DWIDTH 12 0
BBX 12 24 0 -2
BITMAP 
0000
0000
0000
0000
0200
0700
0D80
18C0
3060
0000
0000
0000
0000
0000
0000
0000
0000
0000
0000
0000
0000
0000
0000
0000
ENDCHAR
STARTCHAR U+005F
ENCODING 95
SWIDTH 500 0
DWIDTH 12 0
BBX 12 24 0 -2
BITMAP 
0000
0000
0000
0000
0000
0000
0000
0000
0000
0000
0000
0000
0000
0000
0000
0000
0000
0000
0000
0000
FFF0
FFF0
0000
0000
ENDCHAR
STARTCHAR U+0060
ENCODING 96
SWIDTH 500 0
DWIDTH 12 0
BBX 12 24 0 -2
BITMAP 
0000
0000
0000
0300
0600
0C00
0C00
0F00
0F00
0600
0000
0000
0000
0000
0000
0000
0000
0000
0000
0000
0000
0000
0000
0000
ENDCHAR
STARTCHAR U+0061
ENCODING 97
SWIDTH 500 0
DWIDTH 12 0
BBX 12 24 0 -2
BITMAP 
0000
0000
0000
0000
0000
0000
0000
0000
0780
0FC0
1860
0060
07E0
1FE0
3060
30E0
31E0
3F60
1E60
0000
0000
0000
0000
0000
ENDCHAR
STARTCHAR U+0062
ENCODING 98
SWIDTH 500 0
DWIDTH 12 0
BBX 12 24 0 -2
BITMAP 
0000
0000
0000
0000
0000
3000
3000
3000
3000
3380
37C0
3CE0
3860
3060
3060
3860
3CE0
37C0
3380
0000
0000
0000
0000
0000
ENDCHAR
STARTCHAR U+0063
ENCODING 99
SWIDTH 500 0
DWIDTH 12 0
BBX 12 24 0 -2
BITMAP 
0000
0000
0000
0000
0000
0000
0000
0000
0000
0FC0
1FC0
3860
3060
3000
3000
3000
3860
1FE0
0FC0
0000
0000
0000
0000
0000
ENDCHAR
STARTCHAR U+0064
ENCODING 100
SWIDTH 500 0
DWIDTH 12 0
BBX 12 24 0 -2
BITMAP 
0000
0000
0000
0000
0000
0060
0060
0060
0060
0F60
1FE0
38E0
3060
3060
3060
30E0
31E0
1F60
0E60
0000
0000
0000
0000
0000
ENDCHAR
STARTCHAR U+0065
ENCODING 101
SWIDTH 500 0
DWIDTH 12 0
BBX 12 24 0 -2
BITMAP 
0000
0000
0000
0000
0000
0000
0000
0000
0000
0F80
1FC0
3860
3060
3FE0
3FE0
3000
3060
1FE0
0FC0
0000
0000
0000
0000
0000
ENDCHAR
STARTCHAR U+0066
ENCODING 102
SWIDTH 500 0
DWIDTH 12 0
BBX 12 24 0 -2
BITMAP 
0000
0000
0000
0000
0000
0380
0780
0600
0600
0600
1F80
1F80
0600
0600
0600
0600
0600
0600
0600
0000
0000
0000
0000
0000
ENDCHAR
STARTCHAR U+0067
ENCODING 103
SWIDTH 500 0
DWIDTH 12 0
BBX 12 24 0 -2
BITMAP 
0000
0000
0000
0000
0000
0000
0000
0000
0000
0E60
1F60
39E0
30E0
3060
3060
3060
38E0
1FE0
0F60
0060
0060
0060
0FC0
0780
ENDCHAR
STARTCHAR U+0068
ENCODING 104
SWIDTH 500 0
DWIDTH 12 0
BBX 12 24 0 -2
BITMAP 
0000
0000
0000
0000
0000
3000
3000
3000
3000
3380
37C0
3CE0
3860
3060
3060
3060
3060
3060
3060
0000
0000
0000
0000
0000
ENDCHAR
STARTCHAR U+0069
ENCODING 105
SWIDTH 500 0
DWIDTH 12 0
BBX 12 24 0 -2
BITMAP 
0000
0000
0000
0000
0000
0600
0600
0000
0000
0600
0600
0600
0600
0600
0600
0600
0600
0600
0600
0000
0000
0000
0000
0000
ENDCHAR
STARTCHAR U+006A
ENCODING 106
SWIDTH 500 0
DWIDTH 12 0
BBX 12 24 0 -2
BITMAP 
0000
0000
0000
0000
0000
0600
0600
0000
0000
0600
0600
0600
0600
0600
0600
0600
0600
0600
0600
0600
0600
3E00
3800
0000
ENDCHAR
STARTCHAR U+006B
ENCODING 107
SWIDTH 500 0
DWIDTH 12 0
BBX 12 24 0 -2
BITMAP 
0000
0000
0000
0000
0000
0000
3000
3000
30C0
31C0
3380
3700
3E00
3C00
3E00
3700
3380
31C0
30C0
0000
0000
0000
0000
0000
ENDCHAR
STARTCHAR U+006C
ENCODING 108
SWIDTH 500 0
DWIDTH 12 0
BBX 12 24 0 -2
BITMAP 
0000
0000
0000
0000
0000
0600
0600
0600
0600
0600
0600
0600
0600
0600
0600
0600
0600
0780
0380
0000
0000
0000
0000
0000
ENDCHAR
STARTCHAR U+006D
ENCODING 109
SWIDTH 500 0
DWIDTH 12 0
BBX 12 24 0 -2
BITMAP 
0000
0000
0000
0000
0000
0000
0000
0000
0000
6DC0
7FE0
6660
6660
6660
6660
6660
6660
6660
6660
0000
0000
0000
0000
0000
ENDCHAR
STARTCHAR U+006E
ENCODING 110
SWIDTH 500 0
DWIDTH 12 0
BBX 12 24 0 -2
BITMAP 
0000
0000
0000
0000
0000
0000
0000
0000
0000
3380
37C0
3C60
3860
3060
3060
3060
3060
3060
3060
0000
0000
0000
0000
0000
ENDCHAR
STARTCHAR U+006F
ENCODING 111
SWIDTH 500 0
DWIDTH 12 0
BBX 12 24 0 -2
BITMAP 
0000
0000
0000
0000
0000
0000
0000
0000
0000
0F80
1FC0
38E0
3060
3060
3060
3060
38E0
1FC0
0F80
0000
0000
0000
0000
0000
ENDCHAR
STARTCHAR U+0070
ENCODING 112
SWIDTH 500 0
DWIDTH 12 0
BBX 12 24 0 -2
BITMAP 
0000
0000
0000
0000
0000
0000
0000
0000
0000
3380
37C0
3CE0
3860
3060
3060
3860
3CE0
37C0
3380
3000
3000
3000
3000
0000
ENDCHAR
STARTCHAR U+0071
ENCODING 113
SWIDTH 500 0
DWIDTH 12 0
BBX 12 24 0 -2
BITMAP 
0000
0000
0000
0000
0000
0000
0000
0000
0000
0E60
1F60
39E0
30E0
3060
3060
30E0
39E0
1F60
0E60
0060
0060
0060
0060
0000
ENDCHAR
STARTCHAR U+0072
ENCODING 114
SWIDTH 500 0
DWIDTH 12 0
BBX 12 24 0 -2
BITMAP 
0000
0000
0000
0000
0000
0000
0000
0000
0000
3380
37C0
3C60
3860
3000
3000
3000
3000
3000
3000
0000
0000
0000
0000
0000
ENDCHAR
STARTCHAR U+0073
ENCODING 115
SWIDTH 500 0
DWIDTH 12 0
BBX 12 24 0 -2
BITMAP 
0000
0000
0000
0000
0000
0000
0000
0000
0000
1FC0
3FE0
3020
3000
1F80
0FC0
0060
3060
3FE0
1FC0
0000
0000
0000
0000
0000
ENDCHAR
STARTCHAR U+0074
ENCODING 116
SWIDTH 500 0
DWIDTH 12 0
BBX 12 24 0 -2
BITMAP 
0000
0000
0000
0000
0000
0000
0600
0600
0600
1F80
1F80
0600
0600
0600
0600
0600
0600
0780
0380
0000
0000
0000
0000
0000
ENDCHAR
STARTCHAR U+0075
ENCODING 117
SWIDTH 500 0
DWIDTH 12 0
BBX 12 24 0 -2
BITMAP 
0000
0000
0000
0000
0000
0000
0000
0000
0000
3060
3060
3060
3060
3060
3060
30E0
39E0
1F60
0E60
0000
0000
0000
0000
0000
ENDCHAR
STARTCHAR U+0076
ENCODING 118
SWIDTH 500 0
DWIDTH 12 0
BBX 12 24 0 -2
BITMAP 
0000
0000
0000
0000
0000
0000
0000
0000
0000
6060
6060
30C0
30C0
1980
1980
0F00
0F00
0600
0600
0000
0000
0000
0000
0000
ENDCHAR
STARTCHAR U+0077
ENCODING 119
SWIDTH 500 0
DWIDTH 12 0
BBX 12 24 0 -2
BITMAP 
0000
0000
0000
0000
0000
0000
0000
0000
0000
3060
3060
3060
3060
3260
3760
3760
3DE0
38E0
3060
0000
0000
0000
0000
0000
ENDCHAR
STARTCHAR U+0078
ENCODING 120
SWIDTH 500 0
DWIDTH 12 0
BBX 12 24 0 -2
BITMAP 
0000
0000
0000
0000
0000
0000
0000
0000
0000
3060
3060
18C0
0D80
0700
0700
0D80
18C0
3060
3060
0000
0000
0000
0000
0000
ENDCHAR
STARTCHAR U+0079
ENCODING 121
SWIDTH 500 0
DWIDTH 12 0
BBX 12 24 0 -2
BITMAP 
0000
0000
0000
0000
0000
0000
0000
0000
0000
3060
3060
3060
3060
3060
3060
3060
30E0
1FE0
0F60
0060
0060
0060
1FC0
0F80
ENDCHAR
STARTCHAR U+007A
ENCODING 122
SWIDTH 500 0
DWIDTH 12 0
BBX 12 24 0 -2
BITMAP 
0000
0000
0000
0000
0000
0000
0000
0000
0000
3FE0
3FE0
00C0
0180
0300
0600
0C00
1800
3FE0
3FE0
0000
0000
0000
0000
0000
ENDCHAR
STARTCHAR U+007B
ENCODING 123
SWIDTH 500 0
DWIDTH 12 0
BBX 12 24 0 -2
BITMAP 
0000
0000
0000
0000
0380
0600
0600
0600
0600
0600
0C00
1C00
0C00
0600
0600
0600
0600
0600
0380
0000
0000
0000
0000
0000
ENDCHAR
STARTCHAR U+007C
ENCODING 124
SWIDTH 500 0
DWIDTH 12 0
BBX 12 24 0 -2
BITMAP 
0000
0600
0600
0600
0600
0600
0600
0600
0600
0600
0600
0600
0600
0600
0600
0600
0600
0600
0600
0600
0600
0600
0600
0000
ENDCHAR
STARTCHAR U+007D
ENCODING 125
SWIDTH 500 0
DWIDTH 12 0
BBX 12 24 0 -2
BITMAP 
0000
0000
0000
0000
1C00
0600
0600
0600
0600
0600
0300
0380
0300
0600
0600
0600
0600
0600
1C00
0000
0000
0000
0000
0000
ENDCHAR
STARTCHAR U+007E
ENCODING 126
SWIDTH 500 0
DWIDTH 12 0
BBX 12 24 0 -2
BITMAP 
0000
0000
0000
0000
1C20
3E60
27E0
61C0
0000
0000
0000
0000
0000
0000
0000
0000
0000
0000
0000
0000
0000
0000
0000
0000
ENDCHAR
STARTCHAR C_ACTIONS.uni0081
ENCODING 129
SWIDTH 22867 0
DWIDTH 49 0
BBX 49 27 0 0
BITMAP
00000000001F0000
00000000007F8000
0000000000F08000
0000000000E00000
0000000000E00000
0000000000E00000
0000000000600000
0000000000700000
0000000000300000
FFFFFFFFFFFF0000
FFFFFFFFFFFF0000
007000E01C380000
007000E01C380000
007000E01C380000
1E73C0E01C380000
3E77E0E01C380000
707CE0E038380000
707870E078380000
707070E1F0380000
707070E3C0380000
38F070E1C0380000
3FF0F0E0F0F80000
0E70E0E07FF80000
0070E0E01F380000
0071C0E000380000
003040E000380000
003000E000380000
ENDCHAR
STARTCHAR C_LOG_ON.uni0082
ENCODING 130
SWIDTH 22867 0
DWIDTH 86 0
BBX 86 18 0 0
BITMAP
FFFFFFFFFFFFFFFFEF0FFC00
FFFFFFFFFFFFFFFFFF8FFC00
07038003838070383980E000
070380038380703839C0E000
070380038380703839C0E000
070381E38380703839C0E000
070387F3838070381FC0E000
3F038E3B8383F03807C0E000
3F07840F8383E03801C0E000
3FFF80078383E07FC7FFE000
1C7B80038381C0FFC7FFE000
1C0380078381C0F807C0E000
0C03800F8380C07803C0E000
0603803F8380603801C0E000
07038073838070300180E000
01838063838018000000E000
00E381C383800E000000E000
002380838380020000000000
ENDCHAR
STARTCHAR C_LOG_OFF.uni0083
ENCODING 131
SWIDTH 22867 0
DWIDTH 72 0
BBX 72 18 0 0
BITMAP
FFFFFFFFFFFFFFFFFF00
FFFFFFFFFFFFFFFFFF00
07038003838000003800
07038003838000003800
07038003838000003800
070381E38380003FF800
070387F3838000FFF800
3F038E3B8387FCE03800
3F07840F838FFDC03800
3FFF8007838F81C03800
1C7B8003838781C03800
1C038007838380C03800
0C03800F838300E03800
0603803F838000603800
07038073838000703800
01838063838000183800
00E381C3838000183800
00238083838000080000
ENDCHAR
STARTCHAR C_PRE_START_CHECK.uni0084
ENCODING 132
SWIDTH 22867 0
DWIDTH 134 0
BBX 134 27 0 0
BITMAP
00000003C000000000000000000000000000
00000007F000000000000000000000000000
0000000F1800000000000000000000000000
0000000E0C00000000000000000000000000
0000000E0400000000000000000000000000
0000000E0600000000000000000000000000
000000060200000000000000000000000000
000000070300000000000000000000000000
00000F038300000000000000000000000000
FFFF9FCFFFFFFFF0000FFFFFFFFFFFFFFC00
FFFF99CFFFFFFFF0000FFFFFFFFFFFFFFC00
1C1C38E3838003800000003838000000E000
1C1C38E3838003800000003838000000E000
1C1C38E3838003800000003838000000E000
1C1C38E38380038000001FF838000000E000
1C1C1CE38380038000041FF838001FF8E000
1C1C0FC38387FF80000E0E38387FDFF8E000
1C1C07C3838FFF800007063838FFC1C0E000
7FFC0383838F83800003073838F80301E000
7FFC7383838783800001873838780701E000
7C1C7E03838783800001C73838780703E000
3C1C7E03838183800000FF3838180783E000
1C1C3F038380038000003C38380003FCE000
0C1C03838380038000000038380000F8E000
001C01C3838003800000003838000000E000
001C00E3838003800000003838000000E000
001C00438380038000000038380000000000
ENDCHAR
STARTCHAR C_ARRIVE.uni0085
ENCODING 133
SWIDTH 22867 0
DWIDTH 81 0
BBX 81 19 0 -1
BITMAP
7E3FFFFFFFFFFFFFFFFF8000
F93FFFFFFFFFFFFFFFFF8000
40860C018300C06000300000
00860C018300C06000300000
01860C018300C06000300000
0F860C018300C06000300000
3F060C018300C0607FF00000
1F0E0C0FC300C060FFF00000
81FE0C0FC300C060F8300000
C0FE0C07C303FFE070300000
40C60C07C303FFE070300000
60C60C03C301C06030300000
31C60C018300C06010300000
1F860C000300C06000300000
0F060C000300006000300000
00060C000300006000300000
00060C000300006000300000
00060C000300006000100000
000204000100002000000000
ENDCHAR
STARTCHAR C_ASSIGN.uni0086
ENCODING 134
SWIDTH 22867 0
DWIDTH 64 0
BBX 64 29 0 -2
BITMAP
0FC0000F807C0000
3FFC003FF0FE0000
781E00383DC20000
7007007007800000
7001807003800000
7000C07001800000
7000603001800000
3800603800C00000
1C00301C00600000
FFFFFFFFFFFFFFFF
FFFFFFFFFFFFFFFF
1C001C1C00703C38
1C001C1C00703A38
1C001C1C00703938
1C001C1C00703938
1C001C1C03F038B8
1C7FFC1C1FF03878
1C7FFC1C3E001CF0
1C7C1C1C38000FE0
1C3C1C1C70001F80
1C3C1C1C70003800
1C0C1C1C70007000
1C001C1C70007000
1C001C1C700C7000
1C001C1C381E3C08
1C001C1C3C1E1FFC
1C001C1C0FFC07F0
0000000003FC0000
0000000000060000
ENDCHAR
STARTCHAR C_FIRST_BUCKET.uni0087
ENCODING 135
SWIDTH 22867 0
DWIDTH 121 0
BBX 121 28 0 -1
BITMAP
00000000000000000000078000000000
0000000000000000000007E000000000
00000000000000000000007000000000
00000000000000000000001800000000
00000000000000000000001800000000
00000000000000000000000C00000000
00000000000000000000000600000000
00000000000000000000000200000000
00000000000000000000000300000000
FFFF1F1FFFFFE0000FFFFFFFFFFFFF80
FFFF3F9FFFFFE0000FFFFFFFFFFFFF80
383861C7070700000001C00700007000
383861C7070700000001C00700007000
383861C7070700000001C00700007000
383831C70707000001F1C1E73C007000
383819C70707000007F9C3E77E03F000
38380387070700000789C707CE0FF000
38380F87070700000E41C707871E0000
38787E071FFF00000E61C707071C0000
3C78F8071FFF00000E23C70707380000
1FB8700F1F0700000E17C38F07380000
0FB83C3F0F070000071FC3FF07380000
03380FFF0707000007F9C0E70E380000
063803C70307000001F1C0070E380000
0C380007000700000001C0071C1C0000
1C380007000700000001C007041F0200
08380007000700000001C0070007FE00
0000000000000000000000000001F800
ENDCHAR
STARTCHAR C_FULL.uni0088
ENCODING 136
SWIDTH 22867 0
DWIDTH 92 0
BBX 92 34 0 -7
BITMAP
0000000000000000000003E0
000000000000000000000FF0
000000000000000000001E10
000000000000000000001C00
000000000000000000001C00
000000000000000000001C00
000000000000000000000C00
000000000000000000000E00
000000000000000000000600
3C3FFFFFFF0000FFFFFFFFE0
7E3FFFFFFF0000FFFFFFFFE0
E7038380700000383871C700
E7038380700000383871C700
E7038380700000383871C700
F7038380700000383871C700
7F038380700000383871C700
3F038383F00000383871C700
07038383E00000383871C700
0FFF8383E00000383871C700
1FFF8381C00000383871C700
1F038381C000001C7833C700
0F038380C000001FF81F8700
07038380E0000007380F0700
000383803000000038000700
000383801800000038000700
000383800E00000038000700
000383800200000038000700
0000000000000000F8000000
0000000000000001FE000000
000000000000000387000000
000000000000000303800000
000000000000000300C00000
000000000000000380400000
0000000000000001F0600000
ENDCHAR
STARTCHAR C_YES.uni0089
ENCODING 137
SWIDTH 22867 0
DWIDTH 24 0
BBX 24 30 0 -7
BITMAP
00001000
00003800
00001000
00000000
00000000
FFFFFF00
FFFFFF00
00383800
00383800
0FF83800
3FF83800
38003800
38003800
38003800
1DE03800
1FF83800
1C383800
381C3800
701C3800
701C3800
701C3800
70383800
78383800
38080000
1C000000
1F000000
07C00000
03F00000
00780000
00080000
ENDCHAR
STARTCHAR C_NO.uni008A
ENCODING 138
SWIDTH 22867 0
DWIDTH 40 0
BBX 40 34 0 -7
BITMAP
0000003C0000
0000007F0000
000000F18000
000000E0C000
000000E04200
000000E06700
000000702200
000000703000
000000383000
FFFFFFFFFF00
FFFFFFFFFF00
001C00383800
001C00383800
001C0FF83800
001C3FF83800
001C3C003800
7FFC38003800
7FFC38003800
7C1C1DE03800
3C1C1FF83800
1C1C1C383800
0C1C381C3800
001C701C3800
001C701C3800
001C701C3800
001C703C3800
001C78383800
000038080000
00001C000000
00001F000000
000007C00000
000001F00000
000000780000
000000080000
ENDCHAR
STARTCHAR C_SELF_ASSIGN.uni008B
ENCODING 139
SWIDTH 22867 0
DWIDTH 112 0
BBX 112 31 0 -4
BITMAP
0000000000000FC0000F807C0000
0000000000003FFC003FF0FE0000
000000000000781E00383DC20000
0000000000007007007007800000
0000000000007001807003800000
0000000000007000C07001800000
0000000000007000E07001800000
0000000000003800603800C00000
0000000000001C00301C00600000
FFFFFFFF0000FFFFFFFFFFFFFFFF
FFFFFFFF0000FFFFFFFFFFFFFFFF
0700003800001C001C1C00703C38
0700003800001C001C1C00703A38
0700003800001C001C1C00703938
07003E3800001C001C1C00703938
0700FF3800001C001C1C03F038B8
3F00E13800001C7FFC1C1FF03878
3F85C03800001C7FFC1C3E001C70
3FFDC03800001C7C1C1C38000FE0
1C79C07800001C3C1C1C70001F80
1801C0F800001C1C1C1C70007800
0C00E1B800001C0C1C1C70007000
0E00FF3800001C001C1C70007000
03003E3800001C001C1C700C7000
0180003800001C001C1C381E3C08
00E0003800001C001C1C1C1E1FFC
0020003800001C001C1C1FFC07F0
0000000000000000000003FC0000
0000000000000000000000060000
0000000000000000000000060000
0000000000000000000000030000
ENDCHAR
STARTCHAR C_FUEL.uni008C
ENCODING 140
SWIDTH 22867 0
DWIDTH 50 0
BBX 50 32 0 -5
BITMAP
007C000000000000
01FE000000000000
03C2000000000000
0380000000000000
0388000000000000
039C000000000000
0188000000000000
01C0000000000000
00C03C0000000000
FFFF7E3FFFFFC000
FFFFE33FFFFFC000
00E0E30E000E0000
00E0E30E000E0000
1FE0E70E000E0000
3FE0740E000E0000
78003C0E000E0000
70001F8E1FFE0000
70000F8E3FFE0000
37E0380E3E0E0000
3FF8780E1E0E0000
083C701E1E0E0000
001C701E060E0000
001C703E000E0000
101C387E000E0000
3C783FCE000E0000
3FF80F8E000E0000
1FC0000E000E0000
0300000000000000
0180000000000000
00C0000000000000
00C0000000000000
0060000000000000
ENDCHAR
STARTCHAR C_EMERGENCY.uni008D
ENCODING 141
SWIDTH 22867 0
DWIDTH 117 0
BBX 117 18 0 0
BITMAP
1F87FFFFFFFFFFFFFFFFFFFFFFFFF800
3FE7FFFFFFFFFFFFFFFFFFFFFFFFF800
10F1C1C383838001C007000E0001C000
0071C1C383838001C007000E0001C000
0071C1C383838001C007000E0001C000
0071C1C3838381FFC1E73C0E0001C000
00E1C1C3838387FFC3E77E0E0787C000
1FE1C1C383838701C787CE0E1FEFC000
1F81C1C383838E01C707870E1C39C000
01C7C1C383838E01C707070E3C79C000
80FFC1C383838E01C707070E3871C000
C079C1C1C7838601C38F070E38F1C000
C071C1C1FF838701C3FF0F0E3821C000
6071C1C07B838301C0E70E0E1C01C000
38F1C1C003838381C0070E0E0C01C000
1FE1C1C0038381C1C0071C0E0701C000
0781C1C0038380C1C007040E0201C000
0001C1C003838041C007000E00000000
ENDCHAR
STARTCHAR C_ENGINE_HOURS.uni008E
ENCODING 142
SWIDTH 22867 0
DWIDTH 127 0
BBX 127 32 0 -5
BITMAP
007C0000000000000000000000000000
01FE0000000000000000000000000000
03C20000000000000000000000000000
03800000000000000000000000000000
03880000000000000000000000000000
039C0000000000000000000000000000
01880000000000000000000000000000
01C00000000000000000000000000000
00C00000000000000000000000000000
FFFFFFFFFFFFE00000FC3FFFFFFFFFFE
FFFFFFFFFFFFE00001FF3FFFFFFFFFFE
00E000070007000001070E0E000700E0
00E000070007000000038E0E000700E0
1FE000070007000000038E0E000700E0
3FE003FF0007000000038E0E07C700E0
780183FF0007000000070E0E1FE700E0
7000C1C71FFF000000FF0E0E1C2707E0
7000E0C71FFF000000FC0E0E380707C0
33E060E71F070000000E3E0E380707C0
3FF830E70F0700000C07FE0E380F0380
0C3C38E70F0700000603CE0E381F0380
001C1FE70307000006038E0E1C370180
001C07870007000003038E0E1FE701C0
101C00070007000001C78E0E07C70060
3C7800070007000000FF0E0E00070030
3FF8000700070000003E0E0E0007001C
1FE000070007000000000E0E00070004
03000000000000000000000000000000
01800000000000000000000000000000
00C00000000000000000000000000000
00600000000000000000000000000000
00400000000000000000000000000000
ENDCHAR
STARTCHAR C_EXIT_MENU.uni008F
ENCODING 143
SWIDTH 22867 0
DWIDTH 53 0
BBX 53 25 0 -7
BITMAP
FFFFFFFFFFFFF800
FFFFFFFFFFFFF800
000E0E001C038000
000E0E001C038000
000E0E0FFC038000
0F8E0E0FFC038000
3FCE0E1C00038000
3C4E0E1C001F8000
760E0E1C001F0000
730E0E0EF01F0000
711E0E0FFC0E0000
70BE0E0E1C0E0000
38FE0E1C0E060000
3FCE0E380E030000
0F8E0E380E038000
000E0E380E00C000
000E0E381C007000
000E0E381C002000
0000001C04000000
0000000E00000000
0000000F80000000
00000003E0000000
00000001F8000000
000000003C000000
0000000008000000
ENDCHAR
STARTCHAR C_STATUS.uni0090
ENCODING 144
SWIDTH 22867 0
DWIDTH 67 0
BBX 67 27 0 0
BITMAP
0FFE0000001FC0000000
3FFFF800007FFC000000
38017F0000701F000000
780007E000E003800000
700000F800E000E00000
7000001E00E000700000
7000000700E000300000
38000001807000180000
1C000000E038000C0000
FFFFFFFFFFFF1E1FE000
FFFFFFFFFFFF3F9FE000
1C070000383863C70000
1C070000383861C70000
1C070000383861C70000
1C07003FF83831C70000
1C0700FFF83809C70000
1C3F01E0383803870000
1C3F85C038380F870000
1C3FFDC038387E070000
1C1C79C03838F8070000
1C1C00C03838700F0000
1C0C00E038383C3F0000
1C06006038381FFF0000
1C030070383803C70000
1C018038383800070000
1C00E018383800070000
1C002008383800070000
ENDCHAR
STARTCHAR C_READY.uni0091
ENCODING 145
SWIDTH 22867 0
DWIDTH 40 0
BBX 40 28 0 -1
BITMAP
F00000F80000
F80003FF0000
0C0003838000
06000700C000
030007006000
030007002000
018003003000
008003801000
00C001C01800
7FFFFFFFFF00
7FFFFFFFFF00
01C001C03800
01C001C03800
01C001C03800
01C03FC03800
01C07FC03800
0FC0F0003800
0F80E0003800
0F80E0003800
070067C03800
07007FF03800
030018783800
038200383800
00C300383800
006380383800
0039E0703800
00087FF03800
00001F800000
ENDCHAR
STARTCHAR C_DELAY.uni0092
ENCODING 146
SWIDTH 22867 0
DWIDTH 46 0
BBX 46 28 0 -1
BITMAP
0FC00000F000
3FFC0000FC00
781E00000E00
700700000300
700180000300
7000C0000180
7000600000C0
3800600000C0
1C0030000060
FFFFFFFFFFFC
FFFFFFFFFFFC
1C00380000E0
1C00380000E0
1C00380000E0
1C07F80000E0
1C0FF803C3E0
1C1C000FF7E0
1C1C000E1CE0
1C1C001C3CE0
1C0CF81C38E0
1C0FFE1C70E0
1C020F1C10E0
1C40070E00E0
1C60070700E0
1C70070380E0
1C1C0E0100E0
1C1FFE0000E0
0003F0000000
ENDCHAR
STARTCHAR C_DOWN.uni0093
ENCODING 147
SWIDTH 22867 0
DWIDTH 60 0
BBX 60 19 0 -1
BITMAP
FFFFFFFFFFFFFFF0
FFFFFFFFFFFFFFF0
0038070007000380
0038070003000380
0038070003800380
07F8070003800380
0FF8070003800380
1E0007000787FF80
1C000701FF0FFF80
1C000701FE0F8380
0CF8070006078380
07FE070807038380
030E071C03818380
4007070C03800380
E007070E03800380
3007070703800380
381E070387000380
0FFE0701FF000380
03F000007C000000
ENDCHAR
STARTCHAR C_STANDBY.uni0094
ENCODING 148
SWIDTH 22867 0
DWIDTH 99 0
BBX 99 32 0 -5
BITMAP
0003C000000000000000000F8000
0003F000000000000000003FC000
0000380000000000000000784000
00000C0000000000000000700000
00000C0000000000000000700000
0000060000000000000000700000
0000030000000000000000300000
0000010000000000000000380000
0000018000000000000000180000
FFFFFFFFFFFFFFFFFFFFFFFFE000
FFFFFFFFFFFFFFFFFFFFFFFFE000
07000380000038000383801C0000
07000380000038000383801C0000
0700038000003800038383FC0000
070003800007F803E38387FC0000
07001F80000FF80FF3838F000000
3F007F81FF1C000F13838E000000
3F84F803FF1C001C83838E000000
3FFCE003E01C001CC38386BC0000
1C79C001E00EF81C678387FF0000
1801C000E00FFE1C2F8381878000
0C01C00060030F0E3F8380038000
0E01C0000040070FF38380038000
0301C00000600703E38382038000
0180E000007007000383878F0000
00E0F010001C1E00038387FF0000
00203FF0001FFE00038383F80000
00000FC00003F800000000600000
0000000000000000000000300000
0000000000000000000000180000
00000000000000000000000C0000
0000000000000000000000080000
ENDCHAR
STARTCHAR C_OPTIONS.uni0095
ENCODING 149
SWIDTH 22867 0
DWIDTH 76 0
BBX 76 27 0 0
BITMAP
0FE00000000000000000
3FFC0000000000000000
381F0000000000000000
70038000000000000000
7000E000000000000000
70007000000000000000
70003000000000000000
38001800000000000000
1C000C00000000000000
FFFFFFFFFFFFFFFFFFF0
FFFFFFFFFFFFFFFFFFF0
1C000E00380000038380
1C000E00380000038380
1C000E00380000038380
1C0F8E0F39E000038380
1C3FCE1F3BF03C338380
1C384E3C3E70FF738380
1C700E383C38E1C38380
1C700E383839C3838380
1C701E383839C3838380
1C703E1C7839C781C780
1C386E1FF879C101FF80
1C3FCE073870E0007380
1C0F8E00387070000380
1C000E0038E038000380
1C000E00382010000380
1C000E00380000000300
ENDCHAR
STARTCHAR C_RECALL.uni0096
ENCODING 150
SWIDTH 22867 0
DWIDTH 75 0
BBX 75 28 0 -1
BITMAP
0003C000000000000000
0003F000000000000000
00003800000000000000
00000C00000000000000
00000C00000000000000
0003E600000000000000
0003FB00000000000000
00001F00000000000000
00000380000000000000
FFFFFFFFFFFFFFFFFFE0
FFFFFFFFFFFFFFFFFFE0
000383801C0700070700
000383801C0700070700
000383801C0700070700
000383801C0700070700
0F0F8380FC0700070700
3FDF8383FC071FFF0700
3873838380071FFF0700
70F3838700071F070700
70E3838E00070F070700
71C3838E000707070700
7043838E000703070700
3803838E000700070700
1C03838E000700070700
0E038387000700070700
04038387C08700070700
00038381FF8700070700
000000007E0000000000
ENDCHAR
STARTCHAR C_REFRESH_SCREEN.uni0097
ENCODING 151
SWIDTH 22867 0
DWIDTH 137 0
BBX 137 34 0 -7
BITMAP
0F0003C00000000000007FE8000000000000
3FC003F0000000000001FFFF800000000000
38E00038000000000001C017F00000000000
7030000C000000000003C000BC0000000000
7030000C00000000000380000F0000000000
70180006000000000003800001C000000000
300C00030000000000038000007000000000
380C0003000000000001C000003800000000
1C060001800780000000E000000800000000
FFFFFFFFFFCFE7F80007FFFFFFFFFFFFFF80
FFFFFFFFFFDCE7F80007FFFFFFFFFFFFFF80
1C038383801C71C00000E038000E00001C00
1C038383801C71C00000E038000E00001C00
1C038383801C71C00000E038000E00001C00
1C038383801C71C00000E03803CE78001C00
1C0383839C0E71C00000E03807CEFC001C00
1C1F8383BE07E1C00000E1F80F0F9C7FFC00
1C1F0383E703E1C00000E1FC2E0F0E7FFC00
1C1F03838701C1C00000E1FFEE0E0E7C1C00
1C0F03C78739C1C00000E0E3CE0E0E3C1C00
1C0C01FF873F01C00000E0E0073E0E3C1C00
1C0600FB873F01C00000E06007FE0E0C1C00
1C07003B8E1F81C00000E03001EE1C001C00
1C0180638E01C1C00000E01801CE1C001C00
1C00C0E38200E1C00000E00C038E38001C00
1C0071C3800031C00000E007070E00001C00
1C001083800021C00000E001020E00001C00
000000000000000000000000000000000000
000000000000000000000000000000000000
000001000000070000000000000000000000
000003800000078000000000000000000000
00000100000000C000000000000000000000
000000000000007000000000000000000000
000000000000003000000000000000000000
ENDCHAR
STARTCHAR C_CLEAR_TEXT_WINDOW.uni0098
ENCODING 152
SWIDTH 22867 0
DWIDTH 153 0
BBX 153 28 0 -1
BITMAP
0FFE80000000000000000003F4000000001E0000
3FFFFC00000000000000000FFF000000001F8000
3800FFC0000000000000001E07C000000001C000
780001FC000000000000001C00F0000000006000
7000002F800000000000001C0030000000006000
70000001E00000000000001C001C000000003000
70000000780000000000001C000C000000001800
380000001C0000000000000E0006000000000800
1800000006000000000000070003000000000C00
FFFFFFFFFFFFFFFFFFC0003FFFFFFFFFFFFFFF80
FFFFFFFFFFFFFFFFFFC0003FFFFFFFFFFFFFFF80
1C007000038070E01C0000070003800000E01C00
1C007000038070E01C0000070003800000E01C00
1C007000038070E01C0000070003800000E01C00
1C1E7300038070E01C00000703E380001FE01C00
1C3E770F0F8070E01C0000070FF380003FE01C00
1C787C3FDF80E0E0FC0000070E138FFC78001C00
1C7078387381E0E0F80000071C038FFC70001C00
1C707078F387C0E0F80000071C038F8070001C00
1C707070E38F00E0700000071C0787803BF01C00
1C38F071C38700E0700000071C0F87801FF81C00
1C3FF0304383C3E0300000070E1B81800C1C1C00
1C0E70380381FFE0380000070FF38001001C1C00
1C00701C03807CE00C00000703E38001801C1C00
1C00700E038000E00600000700038001C01C1C00
1C007004038000E00380000700038000F0781C00
1C007000038000E000800007000380003FF81C00
000000000000000000000000000000000FC00000
ENDCHAR
STARTCHAR C_MESSAGE.uni0099
ENCODING 153
SWIDTH 22867 0
DWIDTH 66 0
BBX 66 31 0 -4
BITMAP
00000001E00000000000
00000001F80000000000
000000001C0000000000
00000000060000000000
00000000060000000000
00000000030000000000
00000000018000000000
00000000008000000000
0000000000C03C000000
FFFFFFFFFFFE7F3FC000
FFFFFFFFFFFEE73FC000
0703800001C0E38E0000
0703800001C0E38E0000
0703800001C0E38E0000
0703800001C0E38E0000
070380000FC0738E0000
3F038FFC7FC03F0E0000
3F878FFCF8001F0E0000
3FFF8F80E0000E0E0000
1C7B8781C001CC0E0000
1C038781C001FC0E0000
0C038181C001F80E0000
06038001C000F80E0000
03038001C0300E0E0000
01838000E078070E0000
00E38000F878038E0000
002380003FF0010E0000
000000000FF000000000
00000000001800000000
00000000001800000000
00000000000C00000000
ENDCHAR
STARTCHAR C_THIS_ACTION_NOT_AVAILABLE.uni009A
ENCODING 154
SWIDTH 22867 0
DWIDTH 181 0
BBX 181 34 0 -7
BITMAP
000000000000000000000007C00000000000000000000000
00000000000000000000001FE00000000000000000000000
00000000000000000000003C200000000000000000000000
000000000000000000000038000000000000000000000000
000000000000000000000038000000000000000000000000
000000000000000000000038000000000000000000000000
000000000000000000000018000000000000000000000000
00000000000000000000001C000000000000000000000000
00000000000000000000000C000000000000000000000000
FFFFFFFFC0003FFFFFFFFFFFC0003FFFFFFFBC3FFFFFF800
FFFFFFFFC0003FFFFFFFFFFFC0003FFFFFFFFE3FFFFFF800
0387000E0000001C0038070E000001C0E0E0E7038001C000
0387000E0000001C0038070E000001C0E0E0E7038001C000
038703FE0000001C0038070E000001C0E0E0E7038001C000
03870FFE0000079CF038070E000001C0E0E0F70381F1C000
03870F0000000F9DF838070E000001C0E0E07F0387F9C000
07070E0000001E1F38380E0E00000FC0E0E01F038709C000
0F070E0000001C1E1C381E0E00000FE1E0E007038E01C000
3E07077800001C1C1C387C0E00000FFFE3FF1FFF8E01C000
780707FE00001C1C1C38F00E0000071EE3FF1FFF8E03C000
3807070E00000E7C1C38701E00000700E3E01F038E07C000
1E1F0E0700000FFC3C383C3E00000300E1E00F03870DC000
0FFF1C070000039C38381FFE00000380E1E00F0387F9C000
01E71C070000001C383803CE000000C0E060030381F1C000
00071C070000001C7038000E00000060E00000038001C000
00071C0E0000001C1038000E00000038E00000038001C000
00071E0E0000001C0038000E00000008E00000038001C000
00000E020000000000000000000000000000000000000000
000007000000000000000000000000000000000000000000
000003C00000000000000000000000000000000000000000
000003F00000000000000000000000000000000000000000
0000007C0000000000000000000000000000000000000000
0000003E0000000000000000000000000000000000000000
000000020000000000000000000000000000000000000000
ENDCHAR
STARTCHAR C_TRUCK_FULL.uni009B
ENCODING 155
SWIDTH 22867 0
DWIDTH 165 0
BBX 165 34 0 -7
BITMAP
0000000000000000000000000000000000000001F000
0000000000000000000000000000000000000007F800
000000000000000000000000000000000000000F0800
000000000000000000000000000000000000000E0000
000000000000000000000000000000000000000E0000
000000000000000000000000000000000000000E0000
00000000000000000000000000000000000000060000
00000000000000000000000000000000000000070000
00000000000000000000000000000000000000030000
FFFFFFFFFFFFFF80001E1FFFFFFF80007FFFFFFFF000
FFFFFFFFFFFFFF80003F1FFFFFFF80007FFFFFFFF000
00380701C1C03800007301C1C03800001C1C38E38000
00380701C1C03800007381C1C03800001C1C38E38000
00380701C1C03800007381C1C03800001C1C38E38000
07F80701C1C03800007381C1C03800001C1C38E38000
0FF80701C1C03800003F81C1C03800001C1C38E38000
1C000701C1C1F800001F81C1C1F800001C1C38E38000
1C000701C1C1F000000381C1C1F000001C1C38E38000
1C001FF9C1C1F000000FFFC1C1F000001C1C38E38000
0EFC1FF9C1C0E000000FFFC1C0E000001C1C38E38000
07FE1F00E3C0E000000F81C1C0E000000E3C39E38000
020F0F00FFC06000000781C1C06000000FFC0FC38000
40070F0039C07000000381C1C070000003DC07838000
E007030001C01800000181C1C0180000001C00038000
7007000001C00C00000001C1C00C0000001C00038000
3C1E000001C00700000001C1C0070000001C00038000
0FFE000001C00100000001C1C0010000001C00038000
03F00000000000000000000000000000007C00000000
0000000000000000000000000000000000FE00000000
0000000000000000000000000000000000C380000000
000000000000000000000000000000000181C0000000
00000000000000000000000000000000018040000000
0000000000000000000000000000000001C060000000
0000000000000000000000000000000000F830000000
ENDCHAR
STARTCHAR C_INFORMATION.uni009C
ENCODING 156
SWIDTH 22867 0
DWIDTH 63 0
BBX 63 25 0 -7
BITMAP
FFFFFFFFFFFFFFFE
FFFFFFFFFFFFFFFE
0703800070007070
0703800070007070
0703800070007070
0703800070007070
07038FFC70007070
3F038FFC70FFF070
3F0780E071FFF070
3FFF818071F07070
1C7B8380F0F07070
1C038380F0F07070
0C0383C3F0307070
060381FE70007070
0703807870007070
0183800070007070
00E3800070007070
0043800070007070
000F000000000000
001FC00000000000
0030700000000000
0030180000000000
0030180000000000
00380C0000000000
001F060000000000
ENDCHAR
STARTCHAR C_SPILLAGE.uni009D
ENCODING 157
SWIDTH 22867 0
DWIDTH 76 0
BBX 76 27 0 0
BITMAP
0FFE0000001E00000000
3FFFF000001F80000000
3803FE000001C0000000
78000FC0000060000000
700001E0000060000000
70000038000030000000
7000000C000018000000
38000007000008000000
1C00000100000C000000
FFFFFFFFFFFFFFFFFFF0
FFFFFFFFFFFFFFFFFFF0
1C0700E0E0001C000380
1C0700E0E0001C000380
1C0700E0E0001C000380
1C0700E0E0001C01FF80
1C0700E0E0787CC1FF80
1C3F00E0E1FEFC60E380
1C3F84E0E1C39C706380
1C3FFCE0E3879C307380
1C1C78E0E3871C187380
1C180071E38E1C1C7380
1C0C007FE3821C0FE380
1C0E001CE1C01C03E380
1C030000E0E01C000380
1C018000E0601C000380
1C00E000E0201C000380
1C002000E0001C000300
ENDCHAR
STARTCHAR C_CANCEL.uni009E
ENCODING 158
SWIDTH 22867 0
DWIDTH 71 0
BBX 71 27 0 0
BITMAP
78000000000000000000
7E000000000000000000
07000000000000000000
01800000000000000000
01800000000000000000
7CC00000000000000000
7F600000000000000000
03E00000000000000000
00700000000000000000
FFFFFFFFFFFFFFFFFE00
FFFFFFFFFFFFFFFFFE00
00700000070380007000
00700000070380007000
00700000070380007000
1E73C000070380007000
3E77E000070381E1F000
787CE1FF3F0387FBF000
707873FF3F87870E7000
707073E03FFF8F1E7000
707071E01C7B8E1C7000
38F070E01C038E387000
3FF0F0600C038E087000
0E70E0000E0387007000
0070E000030383807000
0071C000018381C07000
0070400000E380807000
00700000002380000000
ENDCHAR
STARTCHAR C_CLEAR.uni009F
ENCODING 159
SWIDTH 22867 0
DWIDTH 74 0
BBX 74 27 0 0
BITMAP
0FFF0000000000000000
3FFFFC00000000000000
7800FFC0000000000000
780001FC000000000000
7000001F800000000000
70000001E00000000000
30000000780000000000
380000000C0000000000
1C000000060000000000
FFFFFFFFFFFFFFFFFFC0
FFFFFFFFFFFFFFFFFFC0
1C007000038070E01C00
1C007000038070E01C00
1C007000038070E01C00
1C1E7300038070E01C00
1C3E770F0F8070E01C00
1C707C3FDF80E0E0FC00
1C7078387381E0E0F800
1C707078F387C0E0F800
1C707070E38F00E07000
1C38F071C38700E07000
1C3FF070438383E03000
1C0E70380381FFE03800
1C00701C03803CE00C00
1C00700E038000E00600
1C007004038000E00380
1C007000038000E00000
ENDCHAR
STARTCHAR C_WELCOME_TO_INTELLIMINE.uni00A0
ENCODING 160
SWIDTH 22867 0
DWIDTH 279 0
BBX 279 33 0 -6
BITMAP
007A003C0007F0000000000007C000000001E00000000000000000000000000000780000
01FE003F001FFF80000000001FE000000001F800000000000000000000000000007E0000
03C20003803C07E0000000003C20000000001C0000000000000000000000000000070000
03800000C038007800000000380000000000061000000000000000000000000000018000
03800000C038001C00000000380000000000063800000000000000000000000000018000
0380000060380006000000003800000000000310000000000000000000000000007CC000
0180000030380003000000001800000000000180000000000000000000000000007F6000
01C00000101C0001800000001C000000000000800000000000000000000000000003E000
00C00000180E0000C00000000C000000000000C000000000000000000000000000007000
FFFFFFFFFFFFFFFFFFFFFFFFFFFFFFF0000FFFF80007FFFFFFFFFFFFFFFFFE0001FFFE00
FFFFFFFFFFFFFFFFFFFFFFFFFFFFFFF0000FFFF80007FFFFFFFFFFFFFFFFFE0001FFFE00
00E00000380E0001C1C1C1C00E0003800001C1C00000380001C1C1C0E000700000007000
00E00000380E0001C1C1C1C00E0003800001C1C00000380001C1C1C0E000700000007000
1FE00000380E0001C1C1C1C1FE0003800001C1C00000380001C1C1C0E0007000001FF000
3FE00000380E0001C1C1C1C3FE0003800001C1C000003801F1C1C1C0E07FF000007FF000
78000001F80E0783C1C1C1C7800003800001C1C000003807F9C1C1C0E1FFF00000700000
7000FFC7F80E1FEFC1C1C1C7000FFF800001C1C00001F80709C1C1C0E1C0700000700000
7000FFCF000E1C39C1C1C1C7000FFF800001C1C00001FC2E01C1C1C0E380700000700000
37E0F80E000E3879C7FFC1C37E0F83800007FFC00001FFEE01C1C7C0E3807000003BC000
1FF8781C000E3871C7FFC1C1FF8783800007FFC00000E3CE03C1C3C0E3807000003FF000
0838781C000E38F1C7C1C1C083C783800007C1C00000C00E07C1C3C0E180700000387000
001C181C000E3821C3C1C1C001C183800003C1C0000060070DC1C180E1C0700000703800
001C001C000E1C01C1C1C1C001C003800001C1C000007007F9C1C100E0C0700000E03800
101C001E000E0E01C0C1C1C181C003800000C1C000001801F1C1C000E0E0700000E03800
3C78000E000E0701C001C1C3C7800380000001C000000C0001C1C000E060700000E03800
3FF80007010E0201C001C1C3FF800380000001C00000070001C1C000E038700000E07000
1FE00007FF0E0001C001C1C1FC000380000001C00000010001C1C000E010700000F07000
03000000FC00000000000000300000000000000000000000000000000000000000701000
018000000000000000000000180000000000000000000000000000000000000000380000
00C0000000000000000000000C00000000000000000000000000000000000000003E0000
00C0000000000000000000000E00000000000000000000000000000000000000000F8000
00400000000000000000000004000000000000000000000000000000000000000003E000
00000000000000000000000000000000000000000000000000000000000000000001F000
ENDCHAR
STARTCHAR C_PLEASE_LOG_ON.uni00A1
ENCODING 161
SWIDTH 22867 0
DWIDTH 175 0
BBX 175 27 0 0
BITMAP
00000000000000000000000000000000000000007800
00000000000000000000000000000000000000007C00
00000000000000000000000000000000000000000600
00000000000000000000000000000000000000000308
0000000000000000000000000000000000000000019C
00000000000000000000000000000000000000000188
000000000000000000000000000000000000000000C0
00000000000000000000000000000000000000000040
00000000000000000000000000000000000000000060
FFFFFFFFF000003E1FFFFFFFFFDE1FF80007FFFFFFFE
FFFFFFFFF00000FF9FFFFFFFFFFF1FF80007FFFFFFFE
0703800380000043870700E0707301C00000038000E0
0703800380000001C70700E0707381C00000038000E0
0703800380000001C70700E0707381C00000038000E0
070381C380000001C70700E0707B81C00000F39E00E0
070387F380000003870700E0703F81C00001F3BF00E0
3F038E3B8000007F870707E0701F81C00003C3E707E0
3F87840F8000007E070707C0700381C0000383C387C0
3FFF8007800000071F0707C1FF8FFFC00003838387C0
1C7B800380000603FF070381FF8FFFC0000383838380
1C03800780000301E7070301F00F81C00001CF838300
0C03801F80000301C7070180F00781C00001FF838180
0E03801F80000181C70701C0700781C00000738701C0
03038073800000E3C7070060300181C0000003870060
018380E38000007F87070030000001C00000038E0030
00E381C38000001F0707001C000001C000000382001C
002380838000000007070004000001C0000003800000
ENDCHAR
STARTCHAR C_DOWN_AT.uni00A2
ENCODING 162
SWIDTH 22867 0
DWIDTH 161 0
BBX 161 19 0 -1
BITMAP
FFFFFFFFFFFFFFF0000FFFE3C3FFFFFFFC0000000000
FFFFFFFFFFFFFFF0000FFFE7F3FFFFFFFC0000000000
00380700070003800000700E70E0E000E00000000000
00380700030003800000700C38E0E000E00000030000
00380700038003800000700C38E0E000E00000078000
03F80700038003800000700638E0E000E00000078000
1FF80700038003800000700338E0E000E00000030000
1E0007000787FF800003F00070E0E1FFE00000000000
1C000701FF0FFF800003F041F0E0E3FFE00000000000
1C000701FC0F83800003FFCFC0E0E3E0E00000000000
0D780700060783800001C79F00E0E1E0E00000000000
07FE0718070783800001C00E01E0E0E0E00000000000
030F070C038183800000C00787E0E0C0E00000000000
4007070C0380038000006001FFE0E000E00000000000
E00707060380038000007000F8E0E000E00000030000
30070707038003800000180000E0E000E00000078000
3C1E07038700038000000E0000E0E000E00000078000
0FFE0701FF0003800000020000E0E000E00000030000
03F000007C0000000000000000000000000000000000
ENDCHAR
STARTCHAR C_READY_AT.uni00A3
ENCODING 163
SWIDTH 22867 0
DWIDTH 116 0
BBX 116 28 0 -1
BITMAP
F00000F8000000000000000000000000
F80003FF000000000000000000000000
0C000383800000000000000000000000
06000700C00000000000000000000000
07000700600000000000000000000000
03000700200000000000000000000000
01800700300000000000000000000000
00800380180000000000000000000000
00C001C0180000000000000000000000
7FFFFFFFFF00FFFE3E3FFFFFFFC00000
7FFFFFFFFF00FFFE7F3FFFFFFFC00000
01C001C038000700C70E0E000E000000
01C001C038000700C38E0E000E006000
01C001C038000700C38E0E000E00F000
01C03FC038000700638E0E000E00F000
01C07FC038000700338E0E000E006000
0FC0E00038003F00070E0E1FFE000000
0F80E00038003F841F0E0E3FFE000000
0F80E00038003FFCFC0E0E3E0E000000
070077C038001C79F00E0E1E0E000000
07007FF038001800E01E0E1E0E000000
0300187838000C00783E0E060E000000
0382003838000E003FFE0E000E000000
00C30038380007000FCE0E000E006000
00F3803838000180000E0E000E00F000
0038E0F0380000E0000E0E000E00F000
0008FFF008000020000E0E000E006000
00001FC0000000000000000000000000
ENDCHAR
STARTCHAR C_STANDBY_AT.uni00A4
ENCODING 164
SWIDTH 22867 0
DWIDTH 183 0
BBX 183 32 0 -5
BITMAP
0003C0000000000000000000000000000000000000000000
0003F0000000000000000000000000000000000000000000
000038000000000000000000000000000000000000000000
00000C000000000000000000000000000000000000000000
00000C000000000000000000000000000000000000000000
000006000000000000000000000000000000000000000000
000003000000000000000000000000000000000000000000
000003000000000000000000000000000000000000000000
000001800000000000000000000000000000000000000000
FFFFFFFFFFFFFFFFFFFFFFFFE0001FFFC7C7FFFFFFF80000
FFFFFFFFFFFFFFFFFFFFFFFFE0001FFFCFE7FFFFFFF80000
07000380000038000383801C000000E018E1C1C001C00000
07000380000038000383801C000000E01871C1C001C00C00
0700038000003800038383FC000000E01871C1C001C01E00
070003800007F803E38387FC000000E00C71C1C001C01E00
07001F80000FF80FF3838F00000000E00671C1C001C00C00
3F007F83FF1C000F13838E00000007E000E1C1C7FFC00000
3F84F003FF1C001C83838E00000007F083E1C1C7FFC00000
3FFCE003E01C001CC38386BC000007FF9F81C1C7C1C00000
1C79C001E00EF81C478387FF0000038F3E01C1C3C1C00000
1801C001E007FE1C2F838107000003001C03C1C3C1C00000
0C01C00060030F0E3F838003800001800F0FC1C0C1C00000
0E01C0000040070FF3838003800001C007FFC1C001C00000
0301C00000600703E38383038000006000F1C1C001C00C00
0180E000007007000383878F000000300001C1C001C01E00
00E0F010003C0E00038387FF0000001C0001C1C001C01E00
00203FF0000FFE00038383F8000000040001C1C001C00C00
00000FC00003F80000000060000000000000000000000000
000000000000000000000030000000000000000000000000
000000000000000000000018000000000000000000000000
00000000000000000000000C000000000000000000000000
000000000000000000000008000000000000000000000000
ENDCHAR
STARTCHAR C_DELAYED_AT.uni00A5
ENCODING 165
SWIDTH 22867 0
DWIDTH 130 0
BBX 130 28 0 -1
BITMAP
0FC00000F000000000000000000000000000
3FF80000FC00000000000000000000000000
781E00000E00000000000000000000000000
700700000300000000000000000000000000
700180000300000000000000000000000000
7000C0000180000000000000000000000000
3000E00000C0000000000000000000000000
380060000040000000000000000000000000
1C0030000060000000000000000000000000
FFFFFFFFFFFC0003FFF8F8FFFFFFFF000000
FFFFFFFFFFFC0003FFF9FCFFFFFFFF000000
1C00380000E000001C031C38380038000000
1C00380000E000001C030E38380038018000
1C00380000E000001C030E3838003803C000
1C07F80000E000001C018E3838003803C000
1C0FF803C3E000001C00CE38380038018000
1C1E000FF7E00000FC001C3838FFF8000000
1C1C000E1CE00000FE107C3838FFF8000000
1C1C001C3CE00000FFF3F03838F838000000
1C0CF81C38E0000071E7C038387838000000
1C07FE1C70E0000070038078387838000000
1C030F1C10E000003001E0F8381838000000
1C40070E00E0000038007FF8380038000000
1C60070700E000000C001F38380038018000
1C70070380E000000600003838003803C000
1C3C1E0100E000000380003838003803C000
1C0FFE0000E0000000800038380038018000
0003F8000000000000000000000000000000
ENDCHAR
STARTCHAR C_PARKED_AT.uni00A6
ENCODING 166
SWIDTH 22867 0
DWIDTH 182 0
BBX 182 27 0 0
BITMAP
0000001F00F8000000000000000000000000000000000000
0000007FE1FC000000000000000000000000000000000000
000000707B84000000000000000000000000000000000000
000000E01F00000000000000000000000000000000000000
000000E00700000000000000000000000000000000000000
000000E00300000000000000000000000000000000000000
000000E00100000000000000000000000000000000000000
000000700180000000000000000000000000000000000000
0000003800C0000000000000000000000000000000000000
FFFFFFFFFFFFFFFFFFFF80007FFF1E1FFFFFFFE000000000
FFFFFFFFFFFFFFFFFFFF80007FFF3F9FFFFFFFE000000000
3838383800E00000381C0000038073C70700070000000000
3838383800E00000381C0000038061C70700070000001800
3838383800E00000381C0000038061C70700070000003C00
383838383CE78000381C0000038031C70700070000003C00
383838387CEFC000381C0000038019C70700070000001800
38383838F0F8C7FE381C00001F800387070FFF0000000000
38383838E0F0E7FE381C00001FC20F87071FFF0000000000
38383838E0E0E7C0F81C00001FFE7E07071F070000000000
38383838E0E0E3C0781C00000E3CF407070F070000000000
1C78383871E0E3C0781C00000E00700F070F070000000000
1FF838387FE1E0C0301C000006003C1F0703070000000000
073838381CE1C000201C000007000FFF0700070000000000
0038383800E1C000001C0000018003E70700070000001800
0038383800E38000001C000000C000070700070000003C00
0038383800E08000001C0000007000070700070000003C00
0038383800E00000001C0000001000070700070000001800
ENDCHAR
STARTCHAR C_GO_TO.uni00A7
ENCODING 167
SWIDTH 22867 0
DWIDTH 148 0
BBX 148 31 0 -4
BITMAP
0FC0000F807C0000000000000000000000000000
3FFC003FF0FE0000000000000000000000000000
781E00383DC20000000000000000000000000000
7007007007800000000000000000000000000000
7001807003800000000000000000000000000000
7000C07001800000000000000000000000000000
7000607001800000000000000000000000000000
3800603800C00000000000000000000000000000
1C00301C00600000000000000000000000000000
FFFFFFFFFFFFFFFF0000FFFE3E3FFFFFFFC00000
FFFFFFFFFFFFFFFF0000FFFE7F3FFFFFFFC00000
1C001C1C00703C3800000700C70E0E000E000000
1C001C1C00703A3800000700C38E0E000E006000
1C001C1C00703B3800000700C38E0E000E00F000
1C001C1C0070393800000700638E0E000E00F000
1C001C1C03F038B800000700338E0E000E006000
1C7FFC1C1FF0387800003F00070E0E3FFE000000
1C7FFC1C3E001CF000003F840F0E0E3FFE000000
1C7C1C1C38000FE000003FFCFC0E0E3E0E000000
1C3C1C1C70001F8000001C79F80E0E1E0E000000
1C3C1C1C7000380000001800E01E0E1E0E000000
1C0C1C1C7000700000000C00787E0E060E000000
1C001C1C7000700000000E003FFE0E000E000000
1C001C1C700C780000000300078E0E000E006000
1C001C1C381E380800000180000E0E000E00F000
1C001C1C3E1E1FFC000000E0000E0E000E00F000
1C001C1C0FFC07F000000020000E0E000E006000
0000000003FC0000000000000000000000000000
0000000000060000000000000000000000000000
0000000000060000000000000000000000000000
0000000000030000000000000000000000000000
ENDCHAR
STARTCHAR C_ARRIVED_AT.uni00A8
ENCODING 168
SWIDTH 22867 0
DWIDTH 106 0
BBX 106 18 0 0
BITMAP
0FC3FFFFFFFFFFFFFFFE00000000
1FF3FFFFFFFFFFFFFFFE00000000
0870E0E0E0707070007000000000
0038E0E0E0707070007000000180
0038E0E0E07070700070000003C0
0038E0E0E07070700070000003C0
0070E0E0E0707070007000000180
0FF0E0E0E0707070FFF000000000
0FC0E0E0E0707071FFF000000000
00E3E0E3E071FFF1F07000000000
C07FE0E3E071FFF0F07000000000
603CE0E1E071F070707000000000
6038E0E0C070F070707000000000
3038E0E040707070007000000000
3C78E0E000706070007000000180
0FF0E0E0007000700070000003C0
03C0E0E0007000700070000003C0
0000E0E000700070007000000180
ENDCHAR
STARTCHAR C_LOADING_AT.uni00A9
ENCODING 169
SWIDTH 22867 0
DWIDTH 183 0
BBX 183 28 0 -1
BITMAP
0003C001F800000000000000000000000000000000000000
0003F007FF80000000000000000000000000000000000000
0000380F03C0000000000000000000000000000000000000
00000C0E00E0000000000000000000000000000000000000
00000C0E0030000000000000000000000000000000000000
0000060E0018000000000000000000000000000000000000
00000306000C000000000000000000000000000000000000
00000107000C000000000000000000000000000000000000
000001838006000000000000000000000000000000000000
FFFFFFFFFFFFFFFFFFFFC0003FFF8F8FFFFFFFF000000000
FFFFFFFFFFFFFFFFFFFFC0003FFF9FCFFFFFFFF000000000
00038383800700001C0E000001C031C38380038000000000
00038383800700001C0E000001C030E38380038000000C00
00038383800700001C0E000001C030E38380038000001E00
0003838380FF00001C0E000001C018E38380038000001E00
0F07838381FF00001C0E000001C00CE38380038000000C00
3FDF838383C003FF1C0E00000FC001C3838FFF8000000000
38738383838003FF1C0E00000FE103C3838FFF8000000000
70F38383838003E07C0E00000FFF3F03838F838000000000
70E38383819F01E07C0E0000071E7A038387838000000000
71C3838380FFC0E03C0E0000070038078387838000000000
704383838061E060180E000003001E0F8381838000000000
380383838800E000100E000003800FFF8380038000000000
1C0383839C00E000000E000000C001E38380038000000C00
0E0383838E00E000000E0000006000038380038000001E00
040383838781C000000E0000003800038380038000001E00
0003838381FFC000000E0000000800038380038000000C00
00000000007F000000000000000000000000000000000000
ENDCHAR
STARTCHAR C_DUMPING_AT.uni00AA
ENCODING 170
SWIDTH 22867 0
DWIDTH 182 0
BBX 182 28 0 -1
BITMAP
000003FF8000000000000000000000000000000000000000
00000FFFFC00000000000000000000000000000000000000
00000E00FF00000000000000000000000000000000000000
00001E0003E0000000000000000000000000000000000000
00001C0000F0000000000000000000000000000000000000
00001C00001C000000000000000000000000000000000000
00000C00000E000000000000000000000000000000000000
00000E000003000000000000000000000000000000000000
000007000003000000000000000000000000000000000000
FFFFFFFFFFFFFFFFFFFF80007FFF1F1FFFFFFFE000000000
FFFFFFFFFFFFFFFFFFFF80007FFF3F9FFFFFFFE000000000
0038070701C1C000381C0000038063870700070000000000
0038070701C1C000381C0000038061C70700070000001800
0038070701C1C000381C0000038061C70700070000003C00
07F8070701C1C000381C0000038031C70700070000003C00
0FF8070701C1C000381C0000038019C70700070000001800
1C00070701C1C3FE381C00001F800387070FFF0000000000
1C00070701C1C7FE381C00001FC20F87071FFF0000000000
1C00071FF9C1C7C0F81C00001FFE7E07071F070000000000
0CF8071FF9C1C3C0F81C00000E3CF807070F070000000000
07FE071F00E3C3C0781C00000E00700F0707070000000000
020F070F00FFC0C0301C000006003C1F0703070000000000
4007070F0039C000201C000003001FFF0700070000000000
600707030001C000001C0000018003E70700070000001800
700707000001C000001C000000C000070700070000003C00
3C0E07000001C000001C0000007000070700070000003C00
0FFE07000001C000001C0000001000070700070000001800
03F800000000000000000000000000000000000000000000
ENDCHAR
STARTCHAR C_NEXT.uni00AB
ENCODING 171
SWIDTH 22867 0
DWIDTH 79 0
BBX 79 27 0 0
BITMAP
00000000000000007800
0000000000000000FE00
0000000000000001E300
0000000000000001C180
0000000000000001C080
0000000000000001C0C0
0000000000000000E040
0000000000000000E060
00000000000000007060
07C3FFFFFFFFFFFFFFFE
1FF3FFFFFFFFFFFFFFFE
0870E0E0E07070707070
0038E0E0E07070707070
0038E0E0E07070707070
0038E0E0E07070707070
0070E0E0E07070707070
0FF0E0E0E07070707070
0FC0E0E0E07070707070
00E3E0E3E07071FFF070
C07FE0E3E07071FFF070
603CE0E1E07071F07070
6038E0E0C07070F07070
3038E0E0007070F07070
1C78E0E0007070307070
1FF0E0E0007070007070
03E0E0E0007070007070
0000E0E0007070007000
ENDCHAR
STARTCHAR C_WAITING_FOR_TRUCK.uni00AC
ENCODING 172
SWIDTH 22867 0
DWIDTH 202 0
BBX 202 23 0 -5
BITMAP
FFFFFFFFFFFFFF80007FFFFFFE0001FFFFFFFFFFFFFFFFFFFFC0
FFFFFFFFFFFFFF80007FFFFFFE0001FFFFFFFFFFFFFFFFFFFFC0
00380701C1C038000000380070000001C00000070000E0E01C00
00380701C1C038000000380070000001C00000070000E0E01C00
00380701C1C03800000038007000003FC00000070000E0E01C00
07F80701C1C03800000F39E07000007FC00007FF007FE0E01C00
0FF80701C1C03800001F3BF0700000F000001FFF107FE0E01C00
1E000701C1C1F80000383E30700000E000FF9C071838E0E0FC00
1C000701C1C1F00000383C38700000E001FFB8071C18E0E0F800
1C000FF9C1C1F0000038383870000067C1F038070C1CE0E0F800
0DF81FF9C1C0E000003838387000003FF0F03807061CE0E07000
0FFE1F00E3C0E000001C78387000001878F01807071CE0E07000
020F0F00FFC06000001FF8787000000038301C0701FCE0E03000
400707003DC03000000738707000000038000C0700F0E0E01800
C007060001C03800000038707000002038000E070000E0E01C00
7007000001C00C00000038E070000078F00007070000E0E00600
3C1E000001C00700000038207000007FF00003070000E0E00380
0FFE000001C00100000038007000003F800001070000E0E00080
03F0000000000000000000000000000600000000000000000000
0000000000000000000000000000000300000000000000000000
0000000000000000000000000000000180000000000000000000
00000000000000000000000000000000C0000000000000000000
0000000000000000000000000000000080000000000000000000
ENDCHAR
STARTCHAR C_LOADING.uni00AD
ENCODING 173
SWIDTH 22867 0
DWIDTH 85 0
BBX 85 28 0 -1
BITMAP
000700001FF0000000000000
000FE0003FFC000000000000
0007F000783F000000000000
00003800E007800000000000
00000C00E001C00000000000
00000400C000600000000000
00000200C000300000000000
00000100E000180000000000
000001806000080000000000
FFFFFFFFFFFFFFFFFFFFF800
FFFFFFFFFFFFFFFFFFFFF800
0003018060000C0000C18000
0003018060000C0000C18000
0003018060000C0000C18000
1E0F0180600FFC0000C18000
3F9F0180601FFC1FF0C18000
38FB01806008003FF7E18000
30730180600C003E07E18000
30E301806047F01C03E18000
30C301806067F81C03E18000
1803018060238C0C01E18000
0C03018060100C0400C18000
0403018060080C0000018000
0203018060063C0000018000
010301806003F80000018000
000301806000F00000018000
000300806000000000018000
000100802000000000008000
ENDCHAR
STARTCHAR C_PRESS_OK.uni00AF
ENCODING 175
SWIDTH 22867 0
DWIDTH 127 0
BBX 127 31 0 -4
BITMAP
0000F003C00000000000000000007800
0000FC03F00000000000000000007E00
00000E00380000000000000000000700
000003000C0000000000000000000184
000003000C000000000000000000018E
000001800600000000000000000000C4
000000C0030000000000000000000060
00000040010000000000000000000020
00000060018000000000000000000030
07C3FFFFFFFFE0001FFFFFFFFFFFFFFE
1FF3FFFFFFFFE0001FFFFFFFFFFFFFFE
0878E0E003800000000E0001C1C03870
0038E0E003800000000E0001C1C03870
0038E0E003800000000E0001C1C03870
0038E0E0F39E0000000E01F1C1C03870
0070E0E1F3BF0000007E07F9C1C03870
0FF0E0E3C3E7000003FE0789C1C07070
0FC0E0E383C3800007C00E41C1C0F070
00E3E0E38383800007000E61C1C3E070
407FE0E3838380000E000E33C1C78070
E03CE0E1C78380000E000E17C1C380F0
6038E0E1FF8380000E00070FC1C1E1F0
3038E0E0738700000E0007F9C1C0FFF0
1C78E0E0038700000E0181F1C1C01E70
0FF0E0E0038E00000703C001C1C00070
03E0E0E0038200000783C001C1C00070
0000E0E00380000001FF8001C1C00070
0000000000000000007F800000000000
00000000000000000000C00000000000
00000000000000000000C00000000000
00000000000000000000600000000000
ENDCHAR
STARTCHAR C_ENTER_PAYROLL.uni00B0
ENCODING 176
SWIDTH 22867 0
DWIDTH 163 0
BBX 163 25 0 -7
BITMAP
FFFFFFFFFFFFFFFFFFC0003FFFFFFFFFFFFFFFFFE000
FFFFFFFFFFFFFFFFFF80003FFFFFFFFFFFFFFFFFE000
383800E0000E0E000E000001C0E0000E000387070000
383800E0000E0E000E000001C0E0000E000387070000
38383FE0000E0E000E000001C0E0000E3E0387070000
38383FE0000E0E000E000001C0E0000E7E0387070000
38387001FF8E0E000E000001C0E0000EE00387070000
38387001FF8E0E1FFE00000FC0E1FF7EE00707070000
383870001C0E0E3FFE00000FC1E3FF7CE00F07070000
383837FC301E0E3E0E00000FFFE3E038F13E07070000
38383FFC701E0E1E0E0000071EE1E0307F7807070000
1C783800701E0E0E0E00000700E0E0183E380F070000
1FF87000787E0E0C0E00000300E0C01C001E1F070000
07B8E0003FCE0E000E00000180E0000E000FFF070000
0038E0001F0E0E000E000001C0E000070103E7070000
0038E000000E0E000E00000060E00001FF0007070000
0038E000000E0E000E00000038E00000FD0007070000
0038E000000E0E000E00000008E00000000007070000
00007000000000000000000000000000000000000000
00007800000000000000000000000000000000000000
00003C00000000000000000000000000000000000000
00001F00000000000000000000000000000000000000
000007C0000000000000000000000000000000000000
000001E0000000000000000000000000000000000000
00000040000000000000000000000000000000000000
ENDCHAR
STARTCHAR C_FUEL_AMOUNT.uni00B1
ENCODING 177
SWIDTH 22867 0
DWIDTH 115 0
BBX 115 32 0 -5
BITMAP
00FC0000000000000000000000000000
01FE0000000000000000000000000000
03C20000000000000000000000000000
03800000000000000000000000000000
03880000000000000000000000000000
039C0000000000000000000000000000
01880000000000000000000000000000
01C00000000000000000000000000000
00C03C00000000000000000000000000
FFFF7E3FFFFFC0003FFFFFFFFFFFE000
FFFFE33FFFFFC0003FFFFFFFFFFFE000
00E0E30E000E00000707070007070000
00E0E30E000E00000707070007070000
1FE0E60E000E00000707070007070000
3FE0760E000E00000707070387070000
7000780E000E00000707070FE7070000
70001F8E1FFE00000707071C77070000
70001F8E3FFE0000070707083F070000
37E0380E3E0E00001FFF07000F070000
1FF8380E1E0E00001FFF070007070000
083C701E0E0E00001F0707000F070000
001C701E060E00000F0707001F070000
001C703E000E00000F0707007F070000
181C386E000E000003070700E7070000
3C783FEE000E000000070701C7070000
3FF80F8E000E00000007070387070000
1FC0000E000E00000007070107070000
03000000000000000000000000000000
01800000000000000000000000000000
00C00000000000000000000000000000
00C00000000000000000000000000000
00400000000000000000000000000000
ENDCHAR
STARTCHAR C_MESSAGE_TO.uni00B2
ENCODING 178
SWIDTH 22867 0
DWIDTH 66 0
BBX 66 31 0 -4
BITMAP
00000001E00000000000
00000001F80000000000
000000001C0000000000
00000000060000000000
00000000060000000000
00000000030000000000
00000000018000000000
00000000008000000000
0000000000C03C000000
FFFFFFFFFFFE7F3FC000
FFFFFFFFFFFEE73FC000
0703800001C0E38E0000
0703800001C0E38E0000
0703800001C0E38E0000
0703800001C0E38E0000
070380000FC0738E0000
3F0387FC7FC03F0E0000
3F878FFCF8001F0E0000
3FFF8F80E0000E0E0000
1C7F8781C000CE0E0000
18038381C001F80E0000
0C038181C001F80E0000
0E038001C000FC0E0000
03038001C0700E0E0000
01838000E078070E0000
00E38000F078038E0000
002380003FF0000E0000
000000000FF000000000
00000000001800000000
00000000001800000000
00000000000C00000000
ENDCHAR
STARTCHAR C_CONFIRM_EMERGENCY.uni00B4
ENCODING 180
SWIDTH 22867 0
DWIDTH 173 0
BBX 173 35 0 -8
BITMAP
000000000000000000000000000000000000007E0000
00000000000000000000000000000000000001FFE000
00000000000000000000000000000000000003C0F000
00000000000000000000000000000000000003803800
00000000000000000000000000000000000003800C00
00000000000000000000000000000000000003800600
00000000000000000000000000000000000001800300
00000000000000000000000000000000000001C00300
00000000000000000000000000000000000000E00180
07C3FFFFFFFFFFFFFFFFFFFFFFFFFC0003FFFFFFFFF8
1FF3FFFFFFFFFFFFFFFFFFFFFFFFFC0003FFFFFFFFF8
0870E0E1C1C1C000E00380070000E00000E0E0E1E1C0
0038E0E1C1C1C000E00380070000E00000E0E0E1D1C0
0038E0E1C1C1C000E00380070000E00000E0E0E1D9C0
0038E0E1C1C1C0FFE0F39E070000E00000E0E0E1C9C0
0070E0E1C1C1C3FFE1F3BF0703C1E00000E0E0E1C5C0
0FF0E0E1C1C1C380E3C3E7070FF7E00000E0E0E1C3C0
0FC0E0E1C1C1C700E383C3870E1CE00000E0E0E0E380
00E3E0E1C1C1C700E38383871C3CE00000E0E0E07F00
C07FE0E1C1C1C700E38383871C38E00000E0E0E0FC00
603CE0E0E3C1C300E1C783871C70E0000071E0E3C000
7038E0E0FFC1C380E1FF87870C10E000007FE0E38000
3038E0E039C1C380E07387070E00E000001EE0E38000
1C78E0E001C1C1C0E00387070700E0000000E0E38000
0FF0E0E001C1C0E0E0038E070380E0000000E0E1E040
03E0E0E001C1C070E00382070100E0000000E0E0FFE0
0000E0E001C1C000E00380070000E0000000E0E03F80
00000000000000000000000000000000000000000000
000000000000000000000000000000000000F0000000
000000000000000000000000000000000020F8000000
0000000000000000000000000000000000201C000000
0000000000000000000000000000000000300C000000
00000000000000000000000000000000001C0C000000
00000000000000000000000000000000000FBC000000
000000000000000000000000000000000001F0000000
ENDCHAR
STARTCHAR C_WAIT_FOR_SHOVEL.uni00B6
ENCODING 182
SWIDTH 22867 0
DWIDTH 208 0
BBX 208 32 0 -5
BITMAP
00078003C0000000000000000000000000000000000000000000
0007E003F0000000000000000000000000000000000000000000
0000700038000000000000000000000000000000000000000000
000018000C000000000000000000000000000000000000000000
000018000C000000000000000000000000000000000000000000
00000C0006000000000000000000000000000000000000000000
0000060003000000000000000000000000000000000000000000
0000020003000000000000000000000000000000000000000000
1E00030001800000000000000000000000000000000000000000
3F9FFFFFFFFFFFFE0001FFFFFFF80007FFFFFFFFFFFFFFFFFFFF
339FFFFFFFFFFFFE0001FFFFFFF80007FFFFFFFFFFFFFFFFFFFF
71C7070003800070000000E001C00000070000001C0003838070
71C7070003800070000000E001C00000070000001C0003838070
71C7070003800070000000E001C00000FF0000001C0003838070
71C70703E380007000003CE781C00001FF00001FFC01FF838070
39C7070FF381E1F000007CEFC1C00003C000007FFC41FF838070
1F87070E1387FBF00000F0F9C1C000038007FEF01CE0E38383F0
0F87071C03870E700000E0F0E1C000038007FEE01C70638383E0
0707071C038F1E700000E0E0E1C00001AF07C0E01C30738383E0
E707071C078E1C700000E0E0E1C00001FFC3C0E01C18738381C0
FC07071C0F8E3870000073E0E1C0000061C3C0E01C1C738381C0
FC07070E1B8E087000007FE0E1C0000000E0C0701C0FF38380C0
7E07070FF387007000001CE1C1C0000000E000301C03C38380E0
07070703E3838070000000E1C1C0000080E000381C0003838030
038707000381C070000000E381C00001E3C0001C1C0003838018
00C7070003808070000000E081C00001FFC0000E1C000383800E
0087070003800070000000E001C00000FE0000001C0003838002
0000000000000000000000000000000018000000000000000000
000000000000000000000000000000000C000000000000000000
0000000000000000000000000000000006000000000000000000
0000000000000000000000000000000007000000000000000000
0000000000000000000000000000000002000000000000000000
ENDCHAR
STARTCHAR C_PASS.uni00B7
ENCODING 183
SWIDTH 22867 0
DWIDTH 43 0
BBX 43 18 0 0
BITMAP
FFFFFFFFFFE0
FFFFFFFFFFE0
3838380E0700
3838380E0700
3838380E0700
3838380E0700
3838380E0700
3838387E0700
3838387E0F00
3838387FFF00
38383838F700
1C7838380700
1FF838180700
07B8380C0700
0038380E0700
003838030700
00383801C700
003838000700
ENDCHAR
STARTCHAR C_FAIL.uni00B8
ENCODING 184
SWIDTH 22867 0
DWIDTH 41 0
BBX 41 27 0 0
BITMAP
3C0000000000
3F0000000000
038000000000
00C000000000
00C000000000
006000000000
003000000000
001000000000
001800000000
FFFFFFFFFF80
FFFFFFFFFF80
383800001C00
383800001C00
383800001C00
383800001C00
3839C0787C00
383BE1FEFC00
383E71C39C00
383C73871C00
383873871C00
1C78738F1C00
1FF873821C00
0738E1C01C00
0038E0E01C00
003820701C00
003800201C00
003800001C00
ENDCHAR
STARTCHAR C_PASS_ALL.uni00BB
ENCODING 187
SWIDTH 22867 0
DWIDTH 134 0
BBX 134 18 0 0
BITMAP
FFFFFFFFF80007FFFFFFFFFFFFFFFFFFFC00
FFFFFFFFF80007FFFFFFFFFFFFFFFFFFFC00
07038001C00000381C1C1C1C1C000070E000
07038001C00000381C1C1C1C1C000070E000
07038001C00000381C1C1C1C1C000070E000
070381F1C00000381C1C1C1C1C000070E000
070387F9C00000381C1C1C1C1C000070E000
3F038789C00001F81C1C1C1C1C3FE0E0E000
3F078EC1C00001F83C1C1C1C1C7FE1E0E000
3FFF8E61C00001FFFC1C7FFC1C7C07C0E000
1C7B8E23C00000E3DC1C7FFC1C3C0F00E000
1C038E17C00000E01C1C7C1C1C1C0701E000
0C03871FC00000601C1C3C1C1C1803C3E000
0E0387F9C00000301C1C1C1C1C0001FFE000
030381E1C00000381C1C181C1C00007CE000
01838001C000000C1C1C001C1C000000E000
00E38001C00000071C1C001C1C000000E000
00238001C00000011C1C001C1C0000000000
ENDCHAR
STARTCHAR C_PAGE.uni00BC
ENCODING 188
SWIDTH 22867 0
DWIDTH 35 0
BBX 35 27 0 0
BITMAP
3C0000000000
3F0000000000
038000000000
00C000000000
00C000000000
006000000000
003000000000
001000000000
001800000000
FFFFFFFFE000
FFFFFFFFE000
383800070000
383800070000
383800070000
383803FF0000
383983FF0000
3838C1C70000
3838E0C70000
383860E70000
383830E70000
1C7838E70000
1FF81FE70000
073807870000
003800070000
003800070000
003800070000
003800070000
ENDCHAR
STARTCHAR C_PAGE_1.uni00BD
ENCODING 189
SWIDTH 22867 0
DWIDTH 64 0
BBX 64 27 0 0
BITMAP
3C00000000000000
3F00000000000000
0380000000000000
00C0000000000000
00C0000000000000
0060000000000000
0030000000000000
00100000000000F0
00180000000001F0
FFFFFFFFE0000330
FFFFFFFFE0000330
3838000700000230
3838000700000030
3838000700000030
383803FF00000030
383883FF00000030
3839C1C700000030
3838E0C700000030
383860E700000030
383830E700000030
1C7838E700000030
1FF81FE700000030
0738078700000030
0038000700000030
0038000700000030
00380007000003FF
00380007000003FF
ENDCHAR
STARTCHAR C_PREV_PAGE.uni00BE
ENCODING 190
SWIDTH 22867 0
DWIDTH 119 0
BBX 119 28 0 -1
BITMAP
0FE0000000000000000003C000000000
3FFC000000000000000003F000000000
783E0000000000000000003800000000
70070000000000000000000C00000000
70018000000000000000000C00000000
7000C000000000000000000600000000
7000E000000000000000000300000000
38006000000000000000000100000000
1C003000000000000000000180000000
FFFFFFFFFFFFFFFFF0000FFFFFFFFE00
FFFFFFFFFFFFFFFFF0000FFFFFFFFE00
1C383800380003838000038380007000
1C383800380003838000038380007000
1C38383C7C0003838000038380007000
1C38387C7C00038380000383803FF000
1C3838F0CE0F0F8380000383883FF000
1C3838E0C63FDF83800003839C1C7000
1C3838E0C6387383800003838E0C7000
1C383870C670F38380000383860E7000
1C38387E6670E38380000383830E7000
1C1C781E3C71C383800001C7838E7000
1C1FF8381C704383800001FF81FE7000
1C0738701C3803838000007380787000
1C003870181C03838000000380007000
1C003870300E03838000000380007000
1C003838F00403838000000380007000
1C00383FC00003838000000380007000
0000000F800000000000000000000000
ENDCHAR
STARTCHAR C_NEXT_PAGE.uni00BF
ENCODING 191
SWIDTH 22867 0
DWIDTH 117 0
BBX 117 27 0 0
BITMAP
000000000000000000000F0000000000
000000000000000000000FC000000000
0000000000000000000000E000000000
00000000000000000000003000000000
00000000000000000000003000000000
00000000000000000000001800000000
00000000000000000000000C00000000
00000000000000000000000400000000
00000000000000000000000600000000
07C3FFFFFFFFFFFFC0003FFFFFFFF800
1FF3FFFFFFFFFFFFC0003FFFFFFFF800
0870E0E070000E0E00000E0E0001C000
0038E0E070000E0E00000E0E0001C000
0038E0E070000E0E00000E0E0001C000
0038E0E070000E0E00000E0E00FFC000
0070E0E0703C3E0E00000E0E60FFC000
0FF0E0E070FF7E0E00000E0E3071C000
0FC0E0E070E1CE0E00000E0E3831C000
00E3E3E071C38E0E00000E0E1839C000
C07FE3E071C38E0E00000E0E0C39C000
603CE1E071C78E0E0000071E0E39C000
6038E0C071C10E0E000007FE07F9C000
3038E08070E00E0E000001CE01E1C000
1C78E00070700E0E0000000E0001C000
0FF0E00070380E0E0000000E0001C000
03E0E00070100E0E0000000E0001C000
0000E00070000E0E0000000E00010000
ENDCHAR
STARTCHAR C_COMMENT.uni00C0
ENCODING 192
SWIDTH 22867 0
DWIDTH 76 0
BBX 76 28 0 -1
BITMAP
0FC0000000000003C000
3FF0000000000007F000
383C00000000000F1800
700E00000000000E0C00
700300000000000E0400
700180000000000E0600
700180000000000E0200
3800C000000000070300
1C006000000000038300
FFFFFFFFFFFFFFFFFFF0
FFFFFFFFFFFFFFFFFFF0
1C00E0701C1C38E38380
1C00E0701C1C38E38380
1C00E0701C1C38E38380
1C00E0701C1C38E38380
1C07E0701C1C38E38380
1C1FE0701C1C38E38380
1C3C00701C1C38E38380
1C3800701C1C38E38380
1C7000701C1C38E38380
1C7000388E3C19E38380
1C70003F8FFC0FC38380
1C70000E039C07838380
1C700000001C00038380
1C380000001C00038380
1C3C0400001C00038380
1C0FFC00000C00038380
0007F000000000000000
ENDCHAR
STARTCHAR C_OK.uni00C1
ENCODING 193
SWIDTH 22867 0
DWIDTH 51 0
BBX 51 27 0 0
BITMAP
0000F003C0000000
0000FC03F0000000
00000E0038000000
000003000C000000
000003000C000000
0000018006000000
000000C003000000
000000C001000000
000000E001800000
07C3FFFFFFFFE000
1FF3FFFFFFFFE000
0870E0E003800000
0038E0E003800000
0038E0E003800000
0038E0E0F39E0000
0070E0E1F3BF0000
0FF0E0E383E70000
0FC0E0E383C38000
00E3E0E383838000
407FE0E383838000
E03CE0E1C7838000
6038E0E1FF838000
3038E0E073870000
1C78E0E003870000
0FF0E0E0038E0000
03E0E0E003820000
0000E0E003800000
ENDCHAR
STARTCHAR C_SHOVEL.uni00C2
ENCODING 194
SWIDTH 22867 0
DWIDTH 63 0
BBX 63 27 0 0
BITMAP
00078003C0000000
0007E003F0000000
0000700038000000
000018000C000000
00001C000E000000
00000C0006000000
0000060003000000
0000060003000000
0E00070003800000
3F9FFFFFFFFFFFFE
739FFFFFFFFFFFFE
71C7070003800070
71C7070003800070
71C7070003800070
71C70703E3800070
39C7070FF381E1F0
1F87070E1387FBF0
0F87071C03870E70
0707071C038E1E70
6707071C078E1C70
FC07071C0F8E3870
FC07070E1B8E0870
7E07070FF3870070
07070703E3838070
038707000381C070
00C7070003808070
0087070003800000
ENDCHAR
STARTCHAR C_LOCATION.uni00C3
ENCODING 195
SWIDTH 22867 0
DWIDTH 58 0
BBX 58 18 0 0
BITMAP
FFFE3C3FFFFFFFC0
FFFE7F3FFFFFFFC0
0700C70E0E000E00
0700C38E0E000E00
0700C38E0E000E00
0700638E0E000E00
0700338E0E000E00
3F00070E0E1FFE00
3F041F0E0E3FFE00
3FFCFC0E0E3E0E00
1C79F00E0E1E0E00
1C00E01E0E0E0E00
0C00787E0E0C0E00
06001FFE0E000E00
07000F8E0E000E00
0380000E0E000E00
01E0000E0E000E00
00C0000E0E000E00
ENDCHAR
STARTCHAR C_LOW.uni00C4
ENCODING 196
SWIDTH 22867 0
DWIDTH 41 0
BBX 41 30 0 -3
BITMAP
0FC000000000
3FFC00000000
781E00000000
700700000000
700180000000
7000C0000000
700060000000
380060000000
1C0030000000
FFFFFFFFFF80
FFFFFFFFFF80
1C001C1C1C00
1C001C1C1C00
1C001C1C1C00
1C001C1C1C00
1C001C1C1C00
1C3FFC7FFC00
1C7FFC7FFC00
1C7C1C7C1C00
1C3C1C3C3C00
1C1C1C1C7C00
1C0C1C0DFC00
1C001C039C00
1C001C071C00
1C001C1E1C00
1C001C1E1C00
1C001C3E1C00
0000001F1C00
000000071C00
000000001C00
ENDCHAR
STARTCHAR C_NORMAL.uni00C5
ENCODING 197
SWIDTH 22867 0
DWIDTH 81 0
BBX 81 18 0 0
BITMAP
FFFFFFFFFFFFFFFFFFFF8000
FFFFFFFFFFFFFFFFFFFF8000
07038383838380000E1C0000
07038383838380000E1C0000
07038383838380000E1C0000
07038383838380000E1C0000
07038383838380000E1C0000
3F038383838387FC1C1C0000
3F07838383838FFC3C1C0000
3FFF8387FF838F80F81C0000
1C7B838FFF838781E01C0000
1C03838F83838780E03C0000
0C03838783838100707C0000
06038387838380003FFC0000
07038381838380000F9C0000
0383838003838000001C0000
01E3838003838000001C0000
00E3838003838000001C0000
ENDCHAR
STARTCHAR C_HIGH.uni00C6
ENCODING 198
SWIDTH 22867 0
DWIDTH 37 0
BBX 37 25 0 -7
BITMAP
FFFFFFFFF800
FFFFFFFFF800
001C0001C000
000C0001C000
000E3FF1C000
000E3FF1C000
000E0781C000
001E0701C000
07FC0E03C000
07F00E03C000
00180E07C000
601C070FC000
300E07F9C000
300E03E1C000
180E0001C000
1C0E3FF1C000
0E1C3FF1C000
07FC0381C000
01F00701C000
00000E01C000
00000E03C000
00000E07C000
00000F0FC000
000007FDC000
000003F90000
ENDCHAR
STARTCHAR C_ORE.uni00C8
ENCODING 200
SWIDTH 22867 0
DWIDTH 75 0
BBX 75 18 0 0
BITMAP
0FC3FFFFFFFFFFFFFFE0
1FF3FFFFFFFFFFFFFFE0
0070E01C380E00038000
0038E01C380E00038000
0038E01C380E00038000
0038E01C380E00F39E00
0070E01C380E01F3BF00
0FF0E038387E03C3E300
0FC0E078387E0B83C380
00E3E1F0387FFB838380
C07FE3C03838F3838380
603CE1C0783801C78380
6038E0E0F81801FF8780
3038E07FF80C00738700
1C78E01F380E00038700
0FF0E000380300038E00
03C0E0003801C0038200
0000E000380040038000
ENDCHAR
STARTCHAR C_COAL.uni00C9
ENCODING 201
SWIDTH 22867 0
DWIDTH 75 0
BBX 75 27 0 0
BITMAP
0000F000000000000000
0000FC00000000000000
00000E00000000000000
00000300000000000000
00000300000000000000
00000180000000000000
000000C0000000000000
00000040000000000000
00000060000000000000
FFFFFFFFFFFFFFFFFFE0
FFFFFFFFFFFFFFFFFFE0
007000E01C3800070700
007000E01C3800070700
007000E01C3800070700
1E73C0E01C3800070700
3E77E0E01C381E1F0700
787CE0E038387FBF0700
707870E0783870E70700
707070E1F038E1E70700
707070E3C038E1C70700
38F070E1C078E3870700
3FF070E0F0F8E0870700
0E70E0E07FF870070700
0070E0E00F3838070700
0071C0E000381C070700
007040E0003808070700
007000E0003800070700
ENDCHAR
STARTCHAR C_WASTE.uni00CA
ENCODING 202
SWIDTH 22867 0
DWIDTH 112 0
BBX 112 28 0 -1
BITMAP
0000F000000000000003C0F80000
0000FC00000000000003F3FC0000
00000E000000000000003F840000
000003000000000000000F000000
000003000000000000000F000000
0000018000000000000007000000
000000C000000000000003000000
000000C000000000000001800000
0000006000000000000001800000
07C3FFFDE1FFFFFFFFFFFFFFFFFF
1FF3FFFFF1FFFFFFFFFFFFFFFFFF
0870E0E7381C038000E001C00038
0038E0E7301C038000E001C00038
0038E0E7381C038000E001C00038
0038E0E7381C0380F8E03FC00038
0070E0E3F81C0383FCE07FC00038
0FF0E0E1F81C1F83C4E0E0007FF8
0FC0E0E0381C1F07A0E0E000FFF8
00E3E0E0FFFC1F0730E0E000F838
C07FE0E0FFFC0E0719E067C07838
603CE0E0F81C0E070BE07FF07838
6038E0E0781C06038FE018781838
3038E0E0381C0303FCE200380038
1C78E0E0181C0180F8E300380038
0FF0E0E0001C00C000E380380038
03E0E0E0001C007000E1E0F00038
0000E0E0001C001000E07FF00038
000000000000000000001F800000
ENDCHAR
STARTCHAR C_BLUE.uni00CB
ENCODING 203
SWIDTH 22867 0
DWIDTH 52 0
BBX 52 27 0 0
BITMAP
001E000000000000
003F800000000000
0078C00000000000
0070600000000000
0070200000000000
0070300000000000
0070100000000000
0038180000000000
001C180000000000
FFFFFFFFFFFFF000
FFFFFFFFFFFFF000
001C1C0003838000
001C1C0003838000
001C1C0003838000
001C1C0003838000
001C1C0F07838000
7FFC1C3FDF838000
7FFC1C3873838000
7C1C1C70F3838000
3C1C1C70E3838000
3C1C1C71C3838000
0C1C1C7043838000
001C1C3803838000
001C1C1C03838000
001C1C0E03838000
001C1C0403838000
001C1C0003830000
ENDCHAR
STARTCHAR C_GREEN.uni00CC
ENCODING 204
SWIDTH 22867 0
DWIDTH 36 0
BBX 36 25 0 -7
BITMAP
FFFFFFFFF000
FFFFFFFFF000
003807038000
003807038000
0FF807038000
3FF807038000
380007038000
38003F038000
38003E038000
1DE03E038000
1FF81C038000
1C381C038000
381C0C038000
701C06038000
701C07038000
701C01838000
703800E38000
383800038000
380800000000
1C0000000000
1F0000000000
07C000000000
03F000000000
007800000000
001000000000
ENDCHAR
STARTCHAR C_GRAY.uni00CD
ENCODING 205
SWIDTH 22867 0
DWIDTH 57 0
BBX 57 28 0 -1
BITMAP
00000F00007C0000
00000FC001FF8000
000000E001C1C000
0000003003806000
0000003003803000
0000001803801000
0000000C01801800
0000000401C00800
0000000600E00C00
FFFFFFFFFFFFFF80
FFFFFFFFFFFFFF80
0700000E00701C00
0700000E00701C00
0700000E00701C00
0700000E00701C00
07003C3E03F01C00
3F00FF7E0FF01C00
3F84E1CE1E001C00
3FFDC38E1C001C00
1C79C38E38001C00
1C01C78E38001C00
0C01C10E38001C00
0E00E00E38001C00
0300700E38001C00
0180380E1C001C00
00E0100E1E021C00
0020000E07FE1C00
0000000001F80000
ENDCHAR
STARTCHAR C_BROWN.uni00CE
ENCODING 206
SWIDTH 22867 0
DWIDTH 40 0
BBX 40 25 0 -7
BITMAP
3C3FFFFFFF00
7E3FFFFFFF00
E60380703800
E70380703800
E70380703800
F70380703800
7F0380703800
1F0383F03800
070383E03800
1FFF83E03800
1FFF81C03800
1F0381C03800
0F0380C03800
0F0380603800
030380703800
000380183800
0003800E3800
000380043800
000F00000000
001FC0000000
003070000000
003038000000
003008000000
00380C000000
001F04000000
ENDCHAR
STARTCHAR C_YELLOW.uni00CF
ENCODING 207
SWIDTH 22867 0
DWIDTH 51 0
BBX 51 27 0 0
BITMAP
003C000000000000
007F000000000000
00F1800000000000
00E0C00000000000
00E0400000000000
00E0600000000000
0070200000000000
0070300000000000
0038300000000000
FFFFFFFFFFFFE000
FFFFFFFFFFFFE000
3838380007070000
3838380007070000
3838380007070000
3838380007070000
3838381E1F070000
3838387FBF070000
38383870E7070000
383838E1E7070000
383838E1C7070000
1C7838E387070000
1FF838E087070000
0738387007070000
0038383807070000
0038381C07070000
0038380807070000
0038380007070000
ENDCHAR
STARTCHAR C_HELP.uni00D0
ENCODING 208
SWIDTH 22867 0
DWIDTH 49 0
BBX 49 22 0 -4
BITMAP
FFFFFFFFFFFF8000
FFFFFFFFFFFF8000
1C1C007000700000
1C1C007000700000
1C1C007000700000
1C1C007000700000
1C1C03F003F00000
1C1C1FF01FF00000
1C1C3E003E000000
7FFC380038000000
7FFC700070000000
7C1C700070000000
3C1C700070000000
1C1C700070000000
1C1C701C701C0000
001C381E381E0000
001C3C1E3C1E0000
001C0FFC0FFC0000
000003FC03FC0000
0000000600060000
0000000600060000
0000000300030000
ENDCHAR
STARTCHAR C_MAIN.uni00D1
ENCODING 209
SWIDTH 22867 0
DWIDTH 51 0
BBX 51 27 0 -9
BITMAP
FFFFFFFFFFFFE000
FFFFFFFFFFFFE000
1C1C0E0003870000
1C1C0E0003870000
1C1C0E3E03870000
1C1C0E7E03870000
1C1C0EE003870000
1C1C7EE007070000
1C1C7CE00F070000
3FFC38F13E070000
7FFC387F78070000
7C1C181E38070000
3C1C1C001C1F0000
1C1C0E000FFF0000
181C070103E70000
001C03FF00070000
001C007E00070000
001C000000070000
0000000000000000
001E000000000000
081F000000000000
0403800000000000
0701800000000000
0181800000000000
01C3800000000000
00FF000000000000
007E000000000000
ENDCHAR
STARTCHAR C_TEA.uni00D2
ENCODING 210
SWIDTH 22867 0
DWIDTH 46 0
BBX 46 18 0 0
BITMAP
FFFFFFFFFFFC
FFFFFFFFFFFC
0003838070E0
0003838070E0
0003838070E0
0003838070E0
7FE3838070E0
7FE38380E0E0
07038381E0E0
0C038387C0E0
1C07838F00E0
1C0F838700E0
1E1B838383E0
0FFB8381FFE0
07C383807CE0
0003838000E0
0003838000E0
000383800000
ENDCHAR
STARTCHAR C_MEALS.uni00D3
ENCODING 211
SWIDTH 22867 0
DWIDTH 63 0
BBX 63 27 0 0
BITMAP
0003C00000000000
0003F00000000000
0000380000000000
00000C0000000000
00000C0000000000
0000060000000000
0000030000000000
0000030000000000
0000018000000000
3C3FFFFFFFFFFFFE
7E3FFFFFFFFFFFFE
E603838000700070
E703838000700070
E703838000700070
F70383803FF00070
7F0383883FF00070
1F03839C1C70FFF0
0703838E0C71FFF0
1FFF83860E71F070
1FFF83830E70F060
1F0383838E70F060
0F038381FE703060
0703838078700060
0303838000700060
0003838000700060
0003838000700060
0003838000700000
ENDCHAR
STARTCHAR C_TIFFIN.uni00D4
ENCODING 212
SWIDTH 22867 0
DWIDTH 62 0
BBX 62 19 0 0
BITMAP
0000000780000000
FFFFFF9FCFFFFFFC
FFFFFF98CFFFFFFC
001C1C38E000E0E0
001C1C38E000E0E0
001C1C38E000E0E0
001C1C38E0FFE0E0
001C1C1CE3FFE0E0
3FFC1C0FC380E0E0
7FFC1C07C700E0E0
7C1C1C038700E0E0
3C1C1C730700E0E0
3C1C1C7F0700E0E0
0C1C1C7E0380E0E0
001C1C3F0180E0E0
001C1C0381C0E0E0
001C1C00C0E0E0E0
001C1C00E060E0E0
001C1C004010E000
ENDCHAR
STARTCHAR C_FACE_CLEANING.uni00D5
ENCODING 213
SWIDTH 22867 0
DWIDTH 142 0
BBX 142 28 0 -1
BITMAP
3C00000000000007FF80000000FE00000000
3F0000000000001FFFFE000003FFC0000000
038000000000001C00FFE0000781E0000000
00C000000000003C0000FE00070070000000
00C000000000003800000FC0070018400000
0060000000000038000000F007000CE00000
00700000000000380000003C070006400000
003000000000001C00000006038006000000
003800000000000E0000000301C003000000
FFFFFFFFFF80007FFFFFFFFFFFFFFFFFFFFC
FFFFFFFFFF80007FFFFFFFFFFFFFFFFFFFFC
383800381C00000E00380001C1C001C1C0E0
383800381C00000E00380001C1C001C1C0E0
383800381C00000E00380001C1C001C1C0E0
383800381C00000E0F398001C1C001C1C0E0
3839C0381C00000E1F3B8787C1C001C1C0E0
383BE1F81C00000E3C3E1FEFC1C3FFC1C0E0
383E71FC3C00000E383C1C39C1C7FFC1C0E0
383871FFFC00000E38383879C1C7C1C7C0E0
383870E3DC00000E38383871C1C3C1C7C0E0
1C7870C01C00000E1C7838E1C1C3C1C3C0E0
1FF870601C00000E1FF83821C1C0C1C180E0
0738E0701C00000E07381C01C1C001C100E0
0038E0181C00000E00380E01C1C001C000E0
0038200C1C00000E00380701C1C001C000E0
083800071C00000E00380201C1C001C000E0
1C3800011C00000E00380001C1C001C000E0
080000000000000000000000000000000000
ENDCHAR
STARTCHAR C_CONGESTION.uni00D6
ENCODING 214
SWIDTH 22867 0
DWIDTH 120 0
BBX 120 18 0 0
BITMAP
FFFFFFFFFFFFFFF0000FFFFFFFFFFF00
FFFFFFFFFFFFFFF0000FFFFFFFFFFF00
0381C070000383800000003838383800
0381C070000383800000003838383800
0381C070000383800000003838383800
0381C07003FF838000001FF838383800
0381C0700FFF8380000C1FF838383800
1F81C3F00E03838000060E3838383800
1F01C3F05C0383800006063838383800
1F01C3FFDC0383800003073838FFF800
0E01C1C79C0383800001873838FFF800
0E01C1C00C0383800001C73838F83800
0601C0C00E0383800000FF3838783800
0301C0600603838000003C3838383800
0381C070070383800000003838303800
00C1C018038383800000003838003800
0071C00E018383800000003838003800
0011C004008383800000003838000000
ENDCHAR
STARTCHAR C_FUELLING.uni00D7
ENCODING 215
SWIDTH 22867 0
DWIDTH 151 0
BBX 151 32 0 -5
BITMAP
007E00000000000000007E000003FA0000000000
01FE0000000000000001FFE0000FFFC000000000
03C20000000000000003C0F0001E03F000000000
038000000000000000038038001C003C00000000
03800000000000000003800C001C000E08000000
038000000000000000038006001C00031C000000
018000000000000000038007000C000188000000
01C00000000000000001C003000E0000C0000000
00C00007800000000000E0018006000060000000
FFFFFFEFC7FFFFF80007FFFFFFFFFFFFFFFFFE00
FFFFFFFC67FFFFF80007FFFFFFFFFFFFFFFFFE00
00E0001C61C001C00000E1C1C0070000E0E07000
00E0001C61C001C00000E1C1C0070000E0E07000
1FE0001CC1C001C00000E1C1C0070000E0E07000
3FE0000EC1C001C00000E1C1C0070000E0E07000
7800000F01C001C00000E1C1CE0703C3E0E07000
7000FFC3F1C7FFC00000E1C1DF070FF7E0E07000
7000FFC3F1C7FFC00000E1C1F3870E1CE0E07000
33E0F80701C7C1C00000E1C1E3871E3CE3E07000
1FF8780701C3C1C00000E1C1C3871C38E3E07000
0C3C780E03C3C1C00000E0E3C3871C70E1E07000
001C180E03C0C1C00000E0FFC3871C10E0C07000
001C000E07C001C00000E039C7070E00E0807000
101C00070DC001C00000E001C7070700E0007000
3C780007FDC001C00000E001C1070300E0007000
3FF80001E1C001C00000E001C0070100E0007000
1FC0000001C001C00000E001C0070000E0007000
0300000000000000000000000000000000000000
0180000000000000000000000000000000000000
00C0000000000000000000000000000000000000
00C0000000000000000000000000000000000000
0040000000000000000000000000000000000000
ENDCHAR
STARTCHAR C_DUST.uni00D8
ENCODING 216
SWIDTH 22867 0
DWIDTH 37 0
BBX 37 26 0 -7
BITMAP
3C0000000000
7E3FFFFFF800
E33FFFFFF800
E30E0001C000
E30E0001C000
E60E0001C000
740E0001C000
3C0E0787C000
1F8E1FEFC000
0F8E1C39C000
3C0E3871C000
700E3871C000
701E38F1C000
701E3821C000
703E1C01C000
387E0E01C000
3FCE0701C000
0F8E0201C000
000E0001C000
003E00000000
007F00000000
00E1C0000000
00C0C0000000
00C030000000
00C030000000
007C10000000
ENDCHAR
STARTCHAR C_MACHINE_RELOCATION.uni00D9
ENCODING 217
SWIDTH 22867 0
DWIDTH 107 0
BBX 107 34 0 -7
BITMAP
0000000000000000003C00000000
0000000000000000003F00000000
0000000000000000000380000000
00000000000000000000C2000000
00000000000000000000C7000000
0000000000000000000062000000
0000000000000000000070000000
0000000000000000000030000000
0000000000000000000038000000
FFFFFFFFFFFFF0000FFFFFFFFFE0
FFFFFFFFFFFFF0000FFFFFFFFFE0
00038381C0038000000038000700
00038381C0038000000038000700
00038381C0FF8000000038000700
01FF8381C3FF800000003803FF00
C1FF8381C380000007FE3983FF00
60E38381C380000007FE38C1C700
70638381C3800000007038E0C700
30738F81C1DE000000C07860E700
18738F81C1FF800001C07830E700
1C738781C1C3800001C0F838E700
0FF38301C381C00001E1B81FE700
03C38201C701C00000FF38078700
00038001C701C000003E38000700
00038001C701C000000038000700
00038001C703C000000038000700
00038001C7838000000038000700
0000000003808000000000000000
0000000001C00000000000000000
0000000001F00000000000000000
00000000007C0000000000000000
00000000001F0000000000000000
00000000000F8000000000000000
0000000000008000000000000000
ENDCHAR
STARTCHAR C_OPERATOR_CHANGE.uni00DA
ENCODING 218
SWIDTH 22867 0
DWIDTH 139 0
BBX 139 28 0 -2
BITMAP
0000F000001E000000000000001C00000000
0000FC00001F000000000000001F00000000
00000E000003800000000000000380000000
000003000000C000000000000000C2000000
0000030000006000000000000000C7000000
000001800000600000000000000062000000
000000C00000300000000000000030000000
000000400000100000000000000010000000
000000600000180000000000000018000000
07C3FFFFFFFFFFFFFFFFF0000FFFFFFFFFE0
1FF3FFFFFFFFFFFFFFFFF0000FFFFFFFFFE0
1078E0E1C1C03800E0070000000038000700
0038E0E1C1C03800E0070000000038000700
0038E0E1C1C03800E0070000000038000700
0038E0E1C1C03800E007000000003803FF00
0070E0E1C1C03807E007000007FE3983FF00
0FF0E0E1C1C1F81FE03F000007FE38C1C700
0FC0E0E1C1C1F03C003E0000007038E0C700
00E3E0E1C1C1F038003E000000C03860E700
407FE0E1C1C0E070001C000001C07830E700
E03CE0E0E3C0E070001C000001C0F838E700
6038E0E0FFC06070000C000001E1B81FE700
3038E0E039C07070000E000000FF38078700
1C78E0E001C0187000030000003E38000700
0FF0E0E001C00C3800018000000038000700
03E0E0E001C0073E0400E000000038000700
0000E0E00000011FFC002000000038000700
0000000000000003F0000000000000000000
ENDCHAR
STARTCHAR C_OTHERS.uni00DB
ENCODING 219
SWIDTH 22867 0
DWIDTH 51 0
BBX 51 18 0 0
BITMAP
0FC3FFFFFFFFE000
1FF3FFFFFFFFE000
0870E00003870000
0038E00003870000
0038E00003870000
0038E00003870000
0070E00003870000
0FF0E1FF07070000
0FC0E3FF0F070000
00E1E3E03E070000
407FE1E078070000
E03CE0E038070000
6038E0C01C1F0000
3038E0000FFF0000
1C78E00003E70000
0FF0E00000070000
03C0E00000070000
0000E00000060000
ENDCHAR
STARTCHAR C_TYRE.uni00DC
ENCODING 220
SWIDTH 22867 0
DWIDTH 54 0
BBX 54 19 0 -1
BITMAP
FFFFFFFFFFFFFC00
FFFFFFFFFFFFFC00
00E038070E01C000
00E038070E01C000
00E038070E01C000
00E038070E01C000
07E038070E01C000
1FE0380E0E0FC000
3C00381E0E0F8000
3800387C0E0F8000
700038F00E070000
700038701E070000
700038383E030000
7000381FFE018000
70003807CE01C000
380038000E006000
3C0838000E003800
0FFC38000E000800
07F0000000000000
ENDCHAR
STARTCHAR C_LIGHTS.uni00DD
ENCODING 221
SWIDTH 22867 0
DWIDTH 58 0
BBX 58 23 0 -5
BITMAP
FFFFFFFFFFFFFFC0
FFFFFFFFFFFFFFC0
000383801C003800
000383801C003800
00038383FC003800
00038387FC003800
0F0F838E0001F800
3FDF838E0007F800
3873838E000F0000
78F383867C0E0000
70E38383FF1C0000
71E38381879C0000
30438380039C0000
38038380039C0000
1C038382039C0000
0E0383878F0E0000
04038387FF0F0200
00038383F803FF00
000000006001FC00
0000000030000000
0000000018000000
0000000008000000
0000000008000000
ENDCHAR
STARTCHAR C_HORN.uni00DE
ENCODING 222
SWIDTH 22867 0
DWIDTH 41 0
BBX 41 34 0 -7
BITMAP
003C00003E00
003F00007F80
000380007080
0000C000E000
0000C000E000
003C6000E000
003FB0006000
0001F0007000
000038003000
FFFFFFFFFF00
FFFFFFFFFF00
003838003800
003838003800
0FF838003800
3FF838003800
3C0038003800
3800387FF800
380038FFF800
1DE038F83800
1FF838783800
1C3838783800
381C38183800
701C38003800
701C38003800
701C38003800
703C38003800
703838003800
380800000000
1C0000000000
1F0000000000
07C000000000
01F000000000
00F800000000
001800000000
ENDCHAR
STARTCHAR C_ENGINE.uni00DF
ENCODING 223
SWIDTH 22867 0
DWIDTH 59 0
BBX 59 32 0 -5
BITMAP
007C1FF000000000
01FE7FFE00000000
03C2F01F80000000
0380E001E0000000
0388E00070000000
039CE00018000000
0188E0000C000000
01C0700006000000
00C0300003000000
FFFFFFFFFFFFFFE0
FFFFFFFFFFFFFFE0
00E0380007000700
00E0380007000700
1FE0380007000700
3FE03803FF000700
78003883FF000700
700039C1870FFF00
700038C1C71FFF00
37E03860E71F0700
3FF83830E70F0700
0C3C3838E70F0700
001C381FE7030700
001C380787000700
101C380007000700
3C78380007000700
3FF8380007000700
1FC0380007000700
0300000000000000
0180000000000000
00C0000000000000
00C0000000000000
0040000000000000
ENDCHAR
STARTCHAR C_TRANSMISSION.uni00E0
ENCODING 224
SWIDTH 22867 0
DWIDTH 97 0
BBX 97 34 0 -7
BITMAP
0000001FFC000000000000000000
0000007FFFE00000000000000000
0000007007FC0000000000000000
000000E0001F8000000000000000
000010E00003E000000000000000
000038E000007800000000000000
000010E000001C00000000000000
0000007000000600000000000000
0000003800000380000000000000
FFFFFFFFFFFFFFFFFFFFFFFF8000
FFFFFFFFFFFFFFFFFFFFFFFF8000
00E038380E00E0E0381C001C0000
00E038380E00E0E0381C001C0000
00E038380E00E0E0381C001C0000
00E038380E00E0E0381C001C0000
07E038380E00E0E0381C001C0000
1FE038387E00E0E1F81C7FFC0000
3E0038387F08E0E1FC3C7FFC0000
380038387FFBFFE1FFFC7C1C0000
7000383838F3FFE0E3BC3C1C0000
700038383803E0E0C01C3C1C0000
700038381801E0E0601C0C1C0000
700038381C01E0E0701C001C0000
70003838060060E0181C001C0000
38003838030000E00C1C001C0000
1E08383801C000E0071C001C0000
1FFC3838004000E0011C001C0000
03F8000000000000000000000000
0100000000000000000000000000
0380000000000000000000000000
0EE0000000000000000000000000
1C70000000000000000000000000
1838000000000000000000000000
1010000000000000000000000000
ENDCHAR
STARTCHAR C_HYDRAULIC.uni00E1
ENCODING 225
SWIDTH 22867 0
DWIDTH 113 0
BBX 113 34 0 -7
BITMAP
0000000000001F000FF0000000000000
0000000000001F803FFE000000000000
00000000000000C0780FC00000000000
00000000000000E07001F00000000000
00000000000000607000380000000000
0000000000001E3070000C0000000000
0000000000001FD87000060000000000
00000000000000F83800030000000000
000000000000003C1C00018000000000
FFFFFFFFFFFFFFFFFFFFFFFFFFFF8000
FFFFFFFFFFFFFFFFFFFFFFFFFFFF8000
00383801C000E01C1C0003800E000000
00383801C000E01C1C0003800E000000
1FF8383FC000E01C1C0003800E000000
1FF8387FC01FE01C1C000383CE780000
380038F0003FE01C1C0F0F87CEFC0000
380038E00078001C1C3FDF8F0F8C0000
380038E00070001C1C38738E0F0E0000
1DE03867C070001C1C78F38E0E0E0000
1FF8383FF035E01C1C70E38E0E0E0000
1C383818783FF81C1C71C3871E0E0000
381C380038083C1C1C704387FE1C0000
701C380039001C1C1C380381CE1C0000
701C38203B001C1C1C1803800E1C0000
701C3878F1C01C1C1C0E03800E380000
703C387FF0F0381C1C0403800E080000
7838383F803FF81C1C0003800E000000
38080006000FE0000000000000000000
1C000003000100000000000000000000
1F000001800380000000000000000000
07C00000C00EE0000000000000000000
03F00000801C70000000000000000000
00780000003838000000000000000000
00100000001010000000000000000000
ENDCHAR
STARTCHAR C_BATTERY.uni00E2
ENCODING 226
SWIDTH 22867 0
DWIDTH 53 0
BBX 53 28 0 -1
BITMAP
0F00000007C00000
0FC000001FF80000
00E000001C1C0000
0030000038060000
0030000038030000
0F98000038018000
0FEC000018018000
003C00001C00C000
000E00000E008000
FFFFFFFFFFFFF800
FFFFFFFFFFFFF800
000E00700381C000
000E00700381C000
000E00700381C000
0F8E00700381C000
3FCE03F00381C000
3C4E0FF01F81C000
720E1E001F01C000
730E1C001F01C000
719E38000E01C000
70BE38000C01C000
38FE38000601C000
3FCE38000701C000
0F8E38000181C000
000E1C0000C1C000
000E1F020071C000
000E07FE0011C000
000001F800000000
ENDCHAR
STARTCHAR C_PREVENTATIVE_MAINTENANCE.uni00E3
ENCODING 227
SWIDTH 22867 0
DWIDTH 78 0
BBX 78 28 0 -1
BITMAP
1E00F0003C0000000000
1F80FC003F0000000000
01C00E00038000000000
0061030000C000000000
0063830000C000000000
00310180006000000000
001800C0003000000000
000800C0001000000000
000C0060001800000000
FFFFFFFFFFFFFFFFFFFC
FFFFFFFFFFFFFFFFFFFC
1C1C00E000380001C0E0
1C1C00E000380001C0E0
1C1C00E000380001C0E0
1C1C00E000380001C0E0
1C1C07E000380001C0E0
1C1C1FE07FF87FCFC0E0
1C1C3C00FFF8FFCFE1E0
7FFC3800F838F80FFFE0
7FFC7000783878071EE0
7C1C70003838380700E0
3C1C70001838180300E0
1C1C70000038000380E0
0C1C700000380000C0E0
001C38000038000060E0
001C3E040038000038E0
001C0FFC0038000008E0
000003F0000000000000
ENDCHAR
STARTCHAR C_FAULT_LIGHT_INDICATOR.uni00E4
ENCODING 228
SWIDTH 22867 0
DWIDTH 133 0
BBX 133 32 0 -5
BITMAP
0000F0000000000000000000000000000000
0000FC000000000000000000000000000000
00000E000000000000000000000000000000
000003000000000000000000000000000000
000003000000000000000000000000000000
0000F9800000000000000000000000000000
0000FEC00000000000000000000000000000
000003C00000000000000000000000000000
000000E00000000000000000000000000000
FFFFFFFFFFFFFFE0001FFFFFFFFFFFFFF800
FFFFFFFFFFFFFFE0001FFFFFFFFFFFFFF800
383800E000001C0000000070700380070000
383800E000001C0000000070700380070000
383800E000001C0000000070707F80070000
383800E000001C000000007070FF80070000
3839C0E07860FC000001E1F071E0003F0000
383BE0E1FEE3FC000007FBF071C000FF0000
383E70E1C387800000070E7071C001E00000
383C70E387070000000E1E7070D781C00000
383870E3870E0000000E1C7070FFE3800000
1C7870E38E0E0000000E38707030F3800000
1FF870E3820E0000000E0870700073800000
0738E0E1C00E000000070070700073800000
0038E0E0E00E000000038070704073800000
003820E0700700000001C07070F1E1C00000
083800E0200780800000807070FFE1E02000
1C3800E00001FF8000000070707F007FE000
0800000000007E0000000000000C001F8000
000000000000000000000000000600000000
000000000000000000000000000300000000
000000000000000000000000000380000000
000000000000000000000000000100000000
ENDCHAR
STARTCHAR C_SPARE.uni00E5
ENCODING 229
SWIDTH 22867 0
DWIDTH 88 0
BBX 88 27 0 0
BITMAP
0000007F00003C0000000000
000001FFE000FF0000000000
000001C07800E38000000000
000003801E01C0C000000000
000003800701C04000000000
000003800301C06000000000
000003800181C03000000000
000001C000C0E03000000000
000000E00060701800000000
0FC3FFFFFFFFFFFFFFFFFF00
1FF3FFFFFFFFFFFFFFFFFF00
0070E0E00070700E001C0000
0038E0E00070700E001C0000
0038E0E00070700E001C0000
0038E0E03FF0700E3FFCF000
0070E0E1FFF0700E3FFDF800
0FF0E0E1C070707E071F1800
0FC0E0E38070707C0E1E1C00
00E3E0E38070707C1C1C1C00
407FE0E3807070381C1C1C00
E03CE0E3807070381C1C1C00
6038E0E1C07070181C1C3800
3038E0E0C070700C1E1C3800
1C78E0E0E070700E0F1C3800
0FF0E0E070707003079C7000
03C0E0E030707001C11C1000
0000E0E010707000401C0000
ENDCHAR
STARTCHAR C_SHIFT_END.uni00E6
ENCODING 230
SWIDTH 22867 0
DWIDTH 128 0
BBX 128 27 0 0
BITMAP
00000000078000000000000000000000
000000000FE000000000000000000000
000000001E3000000000000000000000
000000001C1800000000000000000000
000000001C0800000000000000000000
000000001C0C00000000000000000000
000000000C0400000000000000000000
000000000E0600000000000000000000
00000000070600000000000000000000
FFFFFFFFFFFFE0001FFFFFFFFFFFFFFF
FFFFFFFFFFFFE0001FFFFFFFFFFFFFFF
383838000707000000E0707070703838
383838000707000000E0707070703838
383838000707000000E0707070703838
383838000707000000E0707070703838
3838381E1F07000000E0707070703838
3838387FBF07000007E0707070701C38
38383870E707000007F0F07070703FF8
383838E1E707000007FFF1FFF070FFF8
383838E1C7070000038F71FFF071E038
1C7838E387070000038071F07071C038
1FF838E087070000018070F07071C038
073838700707000000C070707071C038
0038383807070000006070307070E038
0038381C070700000030700070706038
0038380807070000001C700070703038
00383800070700000004700070702000
ENDCHAR
STARTCHAR C_BAD_WEATHER.uni00E7
ENCODING 231
SWIDTH 22867 0
DWIDTH 135 0
BBX 135 27 0 0
BITMAP
0000000000000000000003C0000000000000
0000000000000000000003F0000000000000
000000000000000000000038000000000000
00000000000000000000000C000000000000
00000000000000000000000C000000000000
0000000000000000000003C6000000000000
0000000000000000000003FB000000000000
00000000000000000000001F000000000000
000000000000000000000003800000000000
FFFFFFFFFFFFFFE0001FFFFFFFFFFFFFFE00
FFFFFFFFFFFFFFE0001FFFFFFFFFFFFFFE00
0E00E01C0E0007000003838380E070707000
0E00E01C0E0007000003838380E070707000
0E3EE01C0E0007000003838380E070707000
0E7EE01C0E07C7000003838380E070707000
0EF0E01C0E1FE7000003838380E070707000
7EE0E0FC0E1E27000003838387E070707000
7CE0E0F80E3907000003838387F0F0707000
38F1E0F80E398700000FFF8387FFF1FFF000
387FE0700E388F00000FFF83838F71FFF000
183EE0700E385F00000F8383830071F07000
1C00E0300E1C7F0000078383818070F07000
0E00E0380E1FE7000007838381C070707000
0781E00C0E07C70000018383806070307000
01FFE0060E00070000000383803070007000
007EE0038E00070000000383801C70007000
0000E0008E00070000000383800470000000
ENDCHAR
STARTCHAR C_SHIFT_CHANGE.uni00E8
ENCODING 232
SWIDTH 22867 0
DWIDTH 117 0
BBX 117 27 0 0
BITMAP
00000000078000000078000000000000
000000000FE00000007E000000000000
000000001E3000000007000000000000
000000001C1800000001800000000000
000000001C0800000001800000000000
000000001C0C00000000C00000000000
000000000E0400000000600000000000
000000000E0600000000200000000000
00000000070600000000300000000000
FFFFFFFFFFFFE0001FFFFFFFFFFFF800
FFFFFFFFFFFFE0001FFFFFFFFFFFF800
3838380007070000000070000001C000
3838380007070000000070000001C000
3838380007070000000070000001C000
38383800070700000000700000FFC000
3838381E0F0700000FFC700060FFC000
3838387FBF0700000FFC70FFB071C000
38383870E707000000E071FFB831C000
383838E1E70700000180F1F01839C000
383838E1C70700000380F0F00C39C000
1C7838E3870700000381F0700E39C000
1FF838E08707000003C1F03007F9C000
07B838700707000001FE700001E1C000
003838380707000000FC70000001C000
0038381C07070000000070000001C000
0018380807070000000070000001C000
0018380007070000000070000001C000
ENDCHAR
STARTCHAR C_STEERING.uni00E9
ENCODING 233
SWIDTH 22867 0
DWIDTH 93 0
BBX 93 28 0 -1
BITMAP
0FFC00000000001E00000000
3FFFF0000000007F80000000
3803FE0000000071C0000000
78001FC0000000E060000000
700001E0000000E061000000
70000038000000E033800000
3000000E000000E019000000
380000030000007018000000
1C000003000000380C000000
FFFFFFFFFFFFFFFFFFFFFFF8
FFFFFFFFFFFFFFFFFFFFFFF8
1C070003801C3838070381C0
1C070003801C3838070381C0
1C070003801C3838070381C0
1C070003801C3838070381C0
1C07001F801C3838070381C0
1C3F007F803838383F0381C0
1C3F84F0007838383E0381C0
1C3FFCE001F038383E0F81C0
1C1C79C003C038381C0F81C0
1C1801C001C038381C0781C0
1C0C01C000F0F8380C0301C0
1C0E01C0007FF8380E0201C0
1C0301C0001F3838030001C0
1C0180E000003838018001C0
1C00E0F01000383800E001C0
1C00207FF0003838002001C0
0000000FC000000000000000
ENDCHAR
STARTCHAR C_TYRE_CONDITION.uni00EA
ENCODING 234
SWIDTH 22867 0
DWIDTH 54 0
BBX 54 19 0 -1
BITMAP
FFFFFFFFFFFFFC00
FFFFFFFFFFFFFC00
00E038070E01C000
00E038070E01C000
00E038070E01C000
00E038070E01C000
07E038070E01C000
1FE0380E0E0FC000
3C00381E0E0F8000
3800387C0E0F8000
700038F00E070000
700038701E070000
700038383E030000
7000381FFE038000
70003807CE00C000
380038000E006000
3C0838000E003800
0FFC38000E000800
07F0000000000000
ENDCHAR
STARTCHAR C_FLUID_LEVELS.uni00EB
ENCODING 235
SWIDTH 22867 0
DWIDTH 142 0
BBX 142 33 0 -9
BITMAP
000000000000000000000000300018000000
000000000000000000000000300008000000
00000000000000000000000018000C000000
0000000000000000000000000C0006000000
0000000000000000000000000C0006000000
000000000000000000000000060003000000
FFFFFFFFFFFFFFFFFC0003FFFFFFFFFFFFFC
FFFFFFFFFFFFFFFFFC0003FFFFFFFFFFFFFC
38380001C00E0007000000000E00070000E0
38380001C00E0007000000000E00070000E0
38380001C1FE0007000000000E00070000E0
38380001C3FE00FF000000000E07C70000E0
38398787C78001FF0000007C3E1FE703C3E0
383B9FEFC70003C00000007F7E1C270FF7E0
383E3C39C7000380000000E1CE38070E1CE0
383C3C79C3BE0380000001E3CE38071E3CE0
38383871C1FF81BF000001C38E380F1C38E0
1C7838E1C0C3C0FFC00001C78E381F1C70E0
1FF83821C001C041E00001C10E1C371C10E0
07381C01C001C800E00000E00E1FE70E00E0
00380E01C101DC00E00000700E07870700E0
00380701C3C78E00E00000380E00070380E0
08380201C3FF8783C00000100E00070100E0
1C380001C1FC01FFC00000000E00070000E0
080000000030007E00000000000000000000
00000001E018000000000000000000000000
00000081F00C000000000000000000000000
000000603804000000000000000000000000
000000601804000000000000000000000000
000000381800000000000000000000000000
0000000C3800000000000000000000000000
0000000FF000000000000000000000000000
00000007E000000000000000000000000000
ENDCHAR
STARTCHAR C_SERVICE_BRAKE.uni00EC
ENCODING 236
SWIDTH 22867 0
DWIDTH 121 0
BBX 121 28 0 -1
BITMAP
000001FC00F80000000003C000000000
000007FFC1FC0000000003F000000000
00000F01F38400000000003800000000
00000E003B0000000000000C00000000
00000E000F0000000000000C00000000
00000E00070000000000000600000000
00000E00030000000000000300000000
00000700018000000000000100000000
0000038000C000000000000180000000
FFFFFFF787FFFFFFC0003FFFFFFFFF80
FFFFFFFFC7FFFFFFC0003FFFFFFFFF80
0703839CC0701C0E00000003800E0000
0703839CE0701C0E00000003800E0000
0703839CE0701C0E00000003800E0000
0703839CE0701C0E000003E383CE7800
0703838FE0701C0E00000FF387CEFC00
3F038387E070FC0E00000F138F0F8C00
3F878380E070FE1E00001E838E0F0E00
3FFF8383FFF0FFFE00001CC38E0E0E00
1C7F8383FFF071EE00001C678E0E0E00
1C038383E070700E00001C27871E0E00
0C038381E070300E00000E3F87FE1E00
0E038381E070380E00000FFB81CE1C00
0303838060700C0E000003F3800E1C00
038383800070060E000000E3800E3800
00E383800070038E000001C3800E0800
002383800070008E00000383800E0000
00000000000000000000010000000000
ENDCHAR
STARTCHAR C_EMERGENCY_BRAKE.uni00ED
ENCODING 237
SWIDTH 22867 0
DWIDTH 144 0
BBX 144 32 0 -5
BITMAP
007C00000F03E000001E00000007C0000000
01FE00000FCFF000003F80000007E0000000
03C2000000FE10000038C000000030000000
03800000003C000000706000000018000000
03800000001C000000702000000018000000
03800000001C00000070300000000C000000
01800000000C000000381000000006000000
01C00000000E000000381800000006000000
00C0000000060000001C1800000003000000
FFFFFFFFFFFFFFFFFFFFFF80007FFFFFFFFF
FFFFFFFFFFFFFFFFFFFFFF80007FFFFFFFFF
00E0383800070000381C1C00000007001C00
00E0383800070000381C1C00000007001C00
1FE0383800070000381C1C00000007001C00
3FE0383803FF0000381C1C000007C7079CF0
7000383983FF0000381C1C00001FE70F9DF8
70003838C1C71FF9F81C1C00001E271C1F1C
70003838E0C71FF9F83C1C00003B071C1E1C
3BE0FFF860E71F01FFFC1C000039871C1C1C
3FF8FFF830E70F00E3DC1C0000388F1C1C1C
0C3CF83838E70F00E01C1C0000384F0E7C1C
001C78381FE70300601C1C00001C7F0FFC38
001C383807870000301C1C00001FF7039C38
101C303800070000381C1C000007E7001C38
3C780038000700000C1C1C000001C7001C70
3FF8003800070000071C1C00000387001C10
1FE0003800070000021C1C00000707001C00
030000000000000000000000000200000000
018000000000000000000000000000000000
00C000000000000000000000000000000000
006000000000000000000000000000000000
004000000000000000000000000000000000
ENDCHAR
STARTCHAR C_PARKING_BRAKE.uni00EE
ENCODING 238
SWIDTH 22867 0
DWIDTH 136 0
BBX 136 28 0 -1
BITMAP
0000001F00F8000000000000078000000000
0000007FE1FC00000000000007E000000000
000000707B84000000000000007000000000
000000E00F00000000000000001800000000
000000E00700000000000000001800000000
000000E00300000000000000000C00000000
000000600300000000000000000600000000
000000700180000000000000000200000000
0000003800C0000000000000000300000000
FFFFFFFFFFFFFFFFFFFF80007FFFFFFFFF00
FFFFFFFFFFFFFFFFFFFF80007FFFFFFFFF00
3838383800E00000381C00000007001C0000
3838383800E00000381C00000007001C0000
3838383800E00000381C00000007001C0000
383838383CE78000381C000007C7079CF000
383838387CEFC000381C00001FE70F9DF800
38383838F0F8C7FE381C00001E271E1F3800
38383838E0F0E7FE381C000039071C1E1C00
38383838E0E0E7C0F81C000039871C1C1C00
38383838E0E0E3C0F81C0000388F1C1C1C00
1C78383871E0E1C0781C0000385F0E3C1C00
1FF838387FE1E0C0301C00001E3F0FFC1C00
073838381CE1C000201C00001FF7039C3800
0038383800E1C000001C000007E7001C3800
0038383800E38000001C000001C7001C7000
0038383800E08000001C00000387001C1000
0038383800E00000001C00000707001C0000
000000000000000000000000020000000000
ENDCHAR
STARTCHAR C_EMERGENCY_STEERING.uni00EF
ENCODING 239
SWIDTH 22867 0
DWIDTH 198 0
BBX 198 32 0 -5
BITMAP
007C00000F03E000001E00000007FD00000000000F0000000000
01FE00000FCFF000003F8000001FFFF0000000003FC000000000
03C2000000FE10000078C000001C017F0000000038E000000000
03800000003C00000070600000380007C0000000703000000000
03800000001C00000070200000380000F8000000701080000000
03800000001C000000703000003800001C0000007019C0000000
01800000000C0000003810000038000006000000300C80000000
01C00000000E000000381800001C000003800000380C00000000
00C0000000060000001C0800000E0000008000001C0600000000
FFFFFFFFFFFFFFFFFFFFFF80007FFFFFFFFFFFFFFFFFFFFFFC00
FFFFFFFFFFFFFFFFFFFFFF80007FFFFFFFFFFFFFFFFFFFFFFC00
00E0383800070000381C1C00000E038001C00E1C1C0381C0E000
00E0383800070000381C1C00000E038001C00E1C1C0381C0E000
1FE0383800070000381C1C00000E038001C00E1C1C0381C0E000
3FE0383803FF0000381C1C00000E038001C00E1C1C0381C0E000
7000383883FF0000381C1C00000E03800FC00E1C1C0381C0E000
70003838C1C70FF9F81C1C00000E1F803FC01C1C1C1F81C0E000
70003838E0C71FF9F83C1C00000E1F8278003C1C1C1F01C0E000
3BE07FF860E71F01FFFC1C00000E1FFE7000F81C1C1F07C0E000
1FF8FFF830E70F00E3DC1C00000E0E3CE001E01C1C0E07C0E000
0C3CF83838E70F00E01C1C00000E0E00E000E03C1C0E03C0E000
001C78380FE70300601C1C00000E0600E000707C1C060380E000
001C383807870000301C1C00000E0300E0003FFC1C030080E000
101C303800070000381C1C00000E0380E0000F9C1C038000E000
3C780038000700000C1C1C00000E00C07000001C1C00C000E000
3FF8003800070000071C1C00000E00707810001C1C007000E000
1FC0003800070000011C1C00000E00201FF8001C1C001000E000
030000000000000000000000000000000FE00000000000000000
0180000000000000000000000000000000000000000000000000
00C0000000000000000000000000000000000000000000000000
0040000000000000000000000000000000000000000000000000
0040000000000000000000000000000000000000000000000000
ENDCHAR
STARTCHAR C_FIRE_EXTINGUISHER.uni00F0
ENCODING 240
SWIDTH 22867 0
DWIDTH 111 0
BBX 111 27 0 0
BITMAP
0000007F00000000000000000000
000001FFE0000000000000000000
000001C0F8000000000000000000
000003801C000000000000000000
0000038007000000000000000000
0000038003800000000000000000
0000038001800000000000000000
000001C000C00000000000000000
000000E000601C00000000000000
07C3FFFFFFFE7F3FFFFFFFFFFFFE
1FF3FFFFFFFEE73FFFFFFFFFFFFE
0870E0E0E070E38E0E0E0E003800
0038E0E0E070E38E0E0E0E003800
0038E0E0E070E38E0E0E0E003800
0038E0E0E070E38E0E0E0E0F39E0
0070E0E3E070738E0E0E0E1F3BF0
0FF0E0E3E0703F0E0E0E0E3C3E70
0FC0E0E1E0701F0E0E0E0E383C38
00E3E0E1C0700E0E0E3FFE383838
407FE0E04070CC0E0E3FFE383838
E03CE0E001F1F80E0E3E0E1C7838
6038E0E01FF1F80E0E1E0E1FF838
3038E0E0FE70FC0E0E1E0E073870
1C78E0E1F0700E0E0E060E003870
0FF0E0E1F070070E0E000E0038E0
03E0E0E07070018E0E000E003820
0000E0E03070010E0E000E003800
ENDCHAR
STARTCHAR C_TWO_WAY_RADIO.uni00F1
ENCODING 241
SWIDTH 22867 0
DWIDTH 94 0
BBX 94 27 0 0
BITMAP
000000000000000780000000
0000000000000007E0000000
000000000000000070000000
000000000000000018000000
000000000000000018000000
00000000000000000C000000
000000000000000006000000
000000000000000002000000
000000000000000003000000
FFFFFFFFFFFFFFFFFFFFFFFC
FFFFFFFFFFFFFFFFFFFFFFFC
000E0E01C38070000701C0E0
000E0E01C38070000701C0E0
000E0E01C38070000701C0E0
0F8E0E01C38070000701C0E0
3FCE0E01C380701E1F01C0E0
384E0E038383F07FBF0FC0E0
700E0E078383E070E70FE1E0
700E0E1F0383E0E1E70FFFE0
701E0E3C0381C0E1C7071EE0
703E0E1C0781C0E3870700E0
386E0E0F0F80C0E0870300E0
3FCE0E07FF80E070070380E0
0F8E0E01F38030380700C0E0
000E0E000380181C070060E0
000E0E0003800E08070038E0
000E0E000380020007000800
ENDCHAR
STARTCHAR C_LIGHTS.uni00F2
ENCODING 242
SWIDTH 22867 0
DWIDTH 43 0
BBX 43 27 0 0
BITMAP
000000078000
0000000FE000
0000001E3000
0000001C1800
0000001C0800
0000001C0C00
0000000E0400
0000000E0600
000000070600
FFFFFFFFFFE0
FFFFFFFFFFE0
000E00070700
000E00070700
000E00070700
0F8E7FFF0700
3FCE7FFF0700
3C4E1C070700
720E38070700
730E38070700
711E38070700
70BE18070700
38FE1C070700
3FCE0C070700
0F8E0E070700
000E07070700
000E03070700
000E01070700
ENDCHAR
STARTCHAR C_HORN.uni00F3
ENCODING 243
SWIDTH 22867 0
DWIDTH 41 0
BBX 41 34 0 -7
BITMAP
003C00001F00
003F00007F80
00038000F080
0000C000E000
0000C000E000
003C6000E000
003FB0006000
0001F0007000
000038003000
FFFFFFFFFF00
FFFFFFFFFF00
003838003800
003838003800
0FF838003800
3FF838003800
380038003800
3800387FF800
380038FFF800
1BE038F83800
1FF838783800
1C3838383800
381C38183800
701C38003800
701C38003800
701C38003800
703C38003800
783838003800
380800000000
1C0000000000
1F0000000000
07C000000000
01F000000000
00F800000000
000800000000
ENDCHAR
STARTCHAR C_OIL_LEAKAGE.uni00F4
ENCODING 244
SWIDTH 22867 0
DWIDTH 118 0
BBX 118 27 0 0
BITMAP
0F000000000000780000000000000000
0FC00000000001FE0000000000000000
00E00000000003C70000000000000000
00300000000003818000000000000000
00300000000003818000000000000000
0018000000000380C000000000000000
000C0000000003806000000000000000
00040000000001C06000000000000000
00060000000000E03000000000000000
FFFFFFFFF80007FFFFFFFFFFFFFFFC00
FFFFFFFFF80007FFFFFFFFFFFFFFFC00
000E0001C00000E01C0381C1C000E000
000E0001C00000E01C0381C1C000E000
000E0001C00000E01C0381C1C000E000
0FFE0001C00000E01C0381C1C0F8E000
3FFE0787C00000E01C0381C1C3FCE000
380E1FEFC00000E0FC1F81C1C384E000
700E1C39C00000E0F81FC3C1C700E000
700E3871C00000E0F81FFFC1C700E000
700E3871C00000E0700E3FC1C701E000
700E38F1C00000E0700E01C1C703E000
380E3821C00000E0300601C1C386E000
180E1C01C00000E0180701C1C3FCE000
1C0E0E01C00000E00C0181C1C0F8E000
0E0E0701C00000E00E00C1C1C000E000
030E0201C00000E0038071C1C000E000
020E0001C00000E0008011C1C000E000
ENDCHAR
STARTCHAR C_FUEL_LEAKAGE.uni00F5
ENCODING 245
SWIDTH 22867 0
DWIDTH 131 0
BBX 131 32 0 -5
BITMAP
007A00000000000003C00000000000000000
01FE0000000000000FF00000000000000000
03C20000000000001E380000000000000000
03800000000000001C0C0000000000000000
03880000000000001C0C0000000000000000
039C0000000000001C060000000000000000
01880000000000001C030000000000000000
01C00000000000000E030000000000000000
00C03C000000000007018000000000000000
FFFF7E3FFFFFC0003FFFFFFFFFFFFFFFE000
FFFFE33FFFFFC0003FFFFFFFFFFFFFFFE000
00E0E30E000E00000700E01C0E0E00070000
00E0E30E000E00000700E01C0E0E00070000
1FE0E60E000E00000700E01C0E0E00070000
3FE0760E000E00000700E01C0E0E07C70000
7800380E000E00000700E01C0E0E1FE70000
70001F8E3FFE00000707E0FC0E0E1C270000
70001F8E3FFE00000707C0FE1E0E38070000
35E0380E3E0E00000707C0FFFE0E38070000
1FF8780E1E0E000007038071EE0E380F0000
0C3C701E1E0E0000070380700E0E381F0000
001C701E060E0000070180300E0E1C370000
001C703E000E00000701C0380E0E1FE70000
101C387E000E00000700600C0E0E07C70000
3C783FCE000E0000070030060E0E00070000
3FF80F8E000E000007001C038E0E00070000
1FC0000E000E0000070004008E0E00070000
030000000000000000000000000000000000
018000000000000000000000000000000000
00C000000000000000000000000000000000
00C000000000000000000000000000000000
004000000000000000000000000000000000
ENDCHAR
STARTCHAR C_SIGHT_GLASS.uni00F6
ENCODING 246
SWIDTH 22867 0
DWIDTH 130 0
BBX 130 32 0 -5
BITMAP
000000001F80000000000000000000000000
000000001FC0000000000000000000000000
000000007840000000000000000000000000
000000007000000000000000000000000000
000000007000000000000000000000000000
000000007000000000000000000000000000
000000003000000000000000000000000000
000000003800000000000000000000000000
000000001800000000000000000000000000
FFFFFFFFFFFFFFC0003FFFFFFFFFFFFFC000
FFFFFFFFFFFFFE00003FFFFFFFFFFFFFC000
070383801C0038000007000070701C0E0000
070383801C0038000007000070701C0E0000
07038383FC0038000007000070701C0E0000
07038387FC0038000007000070701C0E0000
0703838F0001F800000701E1F0701C0E0000
3F03838E0007F800000707FBF070FC0E0000
3F87838E000F00000007070E7070FE1E0000
3FFF83867C0E0000001F0E1E7070FFFE0000
1C7B8387FF1C0000001F0E1C707071EE0000
18038381879C0000000F0E387070600E0000
0C038380039C0000000E0E087070700E0000
0E038380039C0000000207007070180E0000
03038382039E00000000038070700C0E0000
018383878F0E0000000001C07070060E0000
00E38387FF070100000000807070038E0000
00238383FC07FF00000000007070008E0000
000000006000FC0000000000000000000000
000000003000000000000000000000000000
000000001800000000000000000000000000
000000000C00000000000000000000000000
000000000800000000000000000000000000
ENDCHAR
STARTCHAR C_WIPERS.uni00F7
ENCODING 247
SWIDTH 22867 0
DWIDTH 68 0
BBX 68 23 0 -5
BITMAP
FFFFFFFFFFFFFFFFF000
FFFFFFFFFFFFFFFFF000
000E0E00703838070000
000E0E00703838070000
000E0E0FF03838070000
0F8E0E1FF03838070000
3FCE0E38003838070000
384E0E380038383F0000
700E0E380038383E0000
700E0E19F038383E0000
701E0E1FFC38381C0000
703E0E061C1C781C0000
386E0E000E1FF80C0000
3FCE0E000E07B8060000
0F0E0E080E0038070000
000E0E1E3C0038018000
000E0E1FFC003800E000
000E0E0FE00038002000
00000001800000000000
00000000C00000000000
00000000600000000000
00000000300000000000
00000000200000000000
ENDCHAR
STARTCHAR C_GUAGES.uni00F8
ENCODING 248
SWIDTH 22867 0
DWIDTH 37 0
BBX 37 27 0 0
BITMAP
0F0000000000
0FC000000000
00E000000000
003000000000
003000000000
001800000000
000C00000000
000400000000
000600000000
FFFFFFFFF800
FFFFFFFFF800
1C0E0001C000
1C0E0001C000
1C0E0001C000
1C0E00FFC000
1C0E20FFC000
1C0E7071C000
1C0E3831C000
7C0E1839C000
7C0E0C39C000
3C0E0E39C000
380E07F9C000
080E01E1C000
000E0001C000
000E0001C000
000E0001C000
000E0001C000
ENDCHAR
STARTCHAR C_CONTROLS.uni00F9
ENCODING 249
SWIDTH 22867 0
DWIDTH 75 0
BBX 75 34 0 -7
BITMAP
00000000003C00000000
00000000003F00000000
00000000000380000000
000000000000C0000000
000000000000C0000000
00000000003E60000000
00000000003FB0000000
000000000001F0000000
00000000000038000000
FFFFFFFFFFFFFFFFFFE0
FFFFFFFFFFFFFFFFFFE0
0070000000E038000700
0070000000E038000700
0070000000E038000700
1E73C00000E038000700
3E77E00007E0381E1F00
787CE3FF1FE0387FBF00
707873FF3C003870E700
707073E0380038F1E700
707071E0700038E1C700
38F070E0700038E38700
3FF0F060700038E08700
0E70E000700038700700
0070E000700038380700
0071C0003800381C0700
007040003C0438080700
007000000FFC38000700
0000000003F000000000
00000000010000000000
00000000038000000000
000000000EE000000000
000000001C7000000000
00000000383800000000
00000000101000000000
ENDCHAR
STARTCHAR C_SEAT_CONDITION.uni00FA
ENCODING 250
SWIDTH 22867 0
DWIDTH 43 0
BBX 43 28 0 -1
BITMAP
0003C0000000
0007F0000000
000F18000000
000E0C000000
000E04000000
000E06000000
000602000000
000703000000
000383000000
FFFFFFFFFFE0
FFFFFFFFFFE0
070383801C00
070383801C00
070383801C00
070383801C00
070383817C00
3F038383FC00
3F8383878000
3FFF83870000
1C7B838E0000
1C03838E0000
0C03838E0000
0E03838E0000
0303838E0000
018383870000
00E38387C080
00238381FF80
000000007E00
ENDCHAR
STARTCHAR C_PIN_RETAINERS.uni00FB
ENCODING 251
SWIDTH 22867 0
DWIDTH 120 0
BBX 120 28 0 -1
BITMAP
0FC000000000000F000F000000000000
3FFC00000000003FC00FC00000000000
781E000000000078E000E00000000000
70070000000000703000300000000000
70018000000000703000300000000000
7000C000000000701800180000000000
70006000000000300C000C0000000000
38006000000000380C000C0000000000
1C0030000000001C0600060000000000
FFFFFFFFFF0000FFFFFFFFFFFFFFFF00
FFFFFFFFFF0000FFFFFFFFFFFFFFFF00
1C3838003800001C03800E0003807000
1C3838003800001C03800E0003807000
1C3838003800001C03800E0003807000
1C3838003800001C03800E0003807000
1C3838003800001C03807E0003807000
1C38387FF800001C1F81FE07FF83F000
1C3838FFF800001C1F03C00FFF83E000
1C3838F83800001C1F03800F8383E000
1C3838783800001C0E0700078381C000
1C1C78783800001C0E0700078381C000
1C1FF8183800001C060700018380C000
1C0738003800001C070700000380E000
1C0038003800001C0187000003803000
1C0038003800001C00C3800003801800
1C0038003800001C0073E04003800E00
1C0038003800001C0010FFC003800200
000000000000000000003F0000000000
ENDCHAR
STARTCHAR C_GREASE_LINES.uni00FC
ENCODING 252
SWIDTH 22867 0
DWIDTH 120 0
BBX 120 32 0 -5
BITMAP
000F000000000000000000007C000000
001FC0000000000000000001FE000000
003C60000000000000000003C2000000
00383000000000000000000380000000
00381000000000000000000380000000
00381800000000000000000380000000
001C0800000000000000000180000000
001C0C000000000000000001C0000000
000E0C000000000000000000C0000000
FFFFFFFFFFF80007FFFFFFFFFFFFFF00
FFFFFFFFFFF80007FFFFFFFFFFFFFF00
1C0E0E0001C00000001C1C00E0003800
1C0E0E0001C00000001C1C00E0003800
1C0E0E0001C00000001C1C1FE0003800
1C0E0E00FFC00000001C1C3FE0003800
1C0E0E60FFC00000787C1C7800003800
1C0E0E3071C00001FEFC1C7000FFF800
1C0E0E3831C00001C39C1C7000FFF800
7C0E0E1839C00003879C1C35E0F83800
7C1E0E0C39C00003871C1C3FF8783800
3C1E0E0E39C000038E1C1C0C3C783800
187E0E07F9C00003821C1C001C183800
106E0E01E1C00001C01C1C001C003800
00CE0E0001C00000E01C1C101C003800
018E0E0001C00000701C1C3C78003800
038E0E0001C00000001C1C3FF8003800
070E0E0001C00000001C1C1FC0003800
02000000000000000000000300000000
00000000000000000000000180000000
000000000000000000000000C0000000
000000000000000000000000C0000000
00000000000000000000000040000000
ENDCHAR
STARTCHAR C_HAND_RAIL_GUARD.uni00FD
ENCODING 253
SWIDTH 22867 0
DWIDTH 176 0
BBX 176 34 0 -7
BITMAP
3C0000000000780000000000000000000000000001F8
3F00000000007C0000000000000000000000000003FC
03800000000006000000000000000000000000000784
00C20000000003000000000000000000000000000700
00C70000000001800000000000000000000000000700
3E620000000001800000000000000000000000000700
3FB00000000000C00000000000000000000000000300
01F00000000000400000000000030000000000000380
00380000000000600000000000030000000000000180
FFFFFFFFC0003FFFFFFFC000000600000FFFFFFFFFFF
FFFFFFFFC0003FFFFFFFC000000600000FFFFFFFFFFF
00380070000000E0000E0000000C000001C0E0E001C0
00380070000000E0000E0000000C000001C0E0E001C0
0FF80070000000E0000E00000018000001C0E0E001C0
3FF80FF0000000E0000E00000018000001C0E0E03FC0
3C001FF0000000E03C3E00000030000001C0E0E07FC0
38003C00000007E0FF7E00000030000001C0E0E0E000
38003800000007C0E1CE00000060000001C0E0E0E000
1BE03800000007C1C3CE00000060000007C0E0E0E000
1FF81DF8000003C1C38E000000C0000007C0E0E077C0
1C380FFC00000301C70E000000C0000003C0E0E07FF0
381C060E00000181C10E0000018000000180E0E01878
701C800E000001C0E00E0000018000000080E0E20038
701DC00E00000060700E0000030000000000E0E30038
701CE00E00000070380E0000030000000000E0E38038
703C783C0000001C100E0000030000000000E0E0E0F0
78381FFC00000004000E0000060000000000E0E0FFF0
380807E0000000000000000000000000000000001FC0
1C000000000000000000000000000000000000000000
1F000000000000000000000000000000000000000000
07C00000000000000000000000000000000000000000
03F00000000000000000000000000000000000000000
00F80000000000000000000000000000000000000000
00080000000000000000000000000000000000000000
ENDCHAR
STARTCHAR C_FOOT_REST.uni00FE
ENCODING 254
SWIDTH 22867 0
DWIDTH 95 0
BBX 95 35 0 -8
BITMAP
0000000000000F0000000000
0000000000000F8000000000
00000000000000C000000000
000000000000006000000000
000000000000003000000000
000000000000003000000000
000000000000001800000000
000000000000000800000000
000000000000000C00000000
FFFFFFFFF80007FFFFFFFFFE
FFFFFFFFF80007FFFFFFFFFE
383800070000001C038001C0
383800070000001C038001C0
383800070000001C038001C0
383800070000001C038001C0
3839C03F0000001C03800FC0
383BE0FF000000FC1F803FC0
383E71F0000000F81FC27C00
383871C0000000F81FFE7000
38387380000000700E3CE000
1C787380000000600C00E000
1FF87380000000300600E000
0738F380000000380700E000
0038E3800000000C0180E000
003821C00000000601C07000
083801F0A000000380707808
1C38007FE000000080101FF8
0800001F80000000000007E0
003C00000000000000000000
183E00000000000000000000
080700000000000000000000
0C0300000000000000000000
070300000000000000000000
038700000000000000000000
00FC00000000000000000000
ENDCHAR
STARTCHAR C_CLEAN_CAB.uni00FF
ENCODING 255
SWIDTH 22867 0
DWIDTH 143 0
BBX 143 31 0 -4
BITMAP
7800007E80000000000000000000000000F8
7E0001FFE0000000000000000000000003FC
070001C0F800000000000000000000000784
018003801E00000000000000000000000700
018003800600000000000000000000000700
00C003800380000000000000000000000700
006001800180000000000000000000000300
002001C000C0000000000000000000000380
003000E00060000000000000000000000180
FFFFFFFFFFFFFFFE0001FFFFFFFFFFFFFFFE
FFFFFFFFFFFFFFFE0001FFFFFFFFFFFFFFFE
007000E00070007000000E070E0E003801C0
007000E00070007000000E070E0E003801C0
007000E00070007000000E070E0E00383FC0
1E73C0E07C70007000000E070E0E00387FC0
3E77E0E1FE70007000000E070E0E7038F000
707CE0E1E271FFF000007E070E0EF838E000
707870E39071FFF000007F0F0E0F9C38E000
707070E39871F07000007FFF0E0E1C386FC0
707070E388F0F070000038F70E0E1C383FF0
38F070E385F0707000003007071E1C381078
3FF0F0E1C7F030700000180707FE1C380038
0E70E0E1FE70007000001C0701CE38380038
0070E0E07C70007000000607000E38382038
0071C0E00070007000000307000E083878F0
007040E000700070000001C7020E00387FF0
007000E00070007000000047070E00383F80
000000000000000000000000020000000600
000000000000000000000000000000000300
000000000000000000000000000000000180
0000000000000000000000000000000001C0
ENDCHAR
STARTCHAR C_DAMAGE.uni0100
ENCODING 256
SWIDTH 22867 0
DWIDTH 54 0
BBX 54 28 0 -1
BITMAP
3C00078000000000
3F0007E000000000
0380007000000000
00C0001800000000
00C0001800000000
3C60000C00000000
3FB0000600000000
01F0000200000000
0038000300000000
FFFFFFFFFFFFFC00
FFFFFFFFFFFFFC00
003807070000E000
003807070000E000
003807070000E000
07F80707007FE000
0FF80707107FE000
1C0007073838E000
1C0007071C18E000
1C000FFF0C1CE000
0CF81FFF061CE000
0FFE1F07071CE000
030F0F0703FCE000
4007070700F0E000
600703070000E000
700700070000E000
1C1E00070000E000
1FFE00070000E000
03F0000000000000
ENDCHAR
STARTCHAR C_TRACK_CONDITION.uni0101
ENCODING 257
SWIDTH 22867 0
DWIDTH 37 0
BBX 37 34 0 -7
BITMAP
F00000000000
FC0000000000
0E0000000000
030000000000
030000000000
F98000000000
FEC000000000
07C000000000
00E000000000
FFFFFFFFF800
FFFFFFFFF800
00E000E00000
00E000E00000
00E000E00000
00E03CE78000
07E07CEFC000
1FE0F0F9C000
3C00E0F0E000
3800E0E0E000
7000E0E0E000
700071E0E000
70007FE0E000
70001CE1C000
780000E1C000
380000E38000
1C0400E08000
1FFC00E00000
03F000000000
010000000000
038000000000
0EE000000000
1C7000000000
383800000000
101000000000
ENDCHAR
STARTCHAR C_MAIN_MACHINE_ACCESS.uni0102
ENCODING 258
SWIDTH 22867 0
DWIDTH 148 0
BBX 148 32 0 -5
BITMAP
00000003C00000000000000000001E0000000000
00000007F00000000000000000001F8000000000
0000000F1800000000000000000001C000000000
0000000E0C000000000000000000006000000000
0000000E04000000000000000000006000000000
0000000E06000000000000000000003000000000
0000000702000000000000000000001800000000
0000000703000000000000000000000800000000
00000F0383000000000000000000000C00000000
FFFF8FCFFFFFFFF0000FFFFFFFFFFFFFFFFFF000
FFFFB9CFFFFFFFF0000FFFFFFFFFFFFFFFFFF000
1C1C38E3838003800001C0E00380381C07038000
1C1C38E3838003800001C0E00380381C07038000
1C1C38E3838003800001C0E00380381C07038000
1C1C38E3838003800001C0E0F398381C07038000
1C1C1CE3838003800001C0E1F3B8381C07038000
1C1C0FC3838FFF800001C0E3C3E1F81C3F038000
1C1C07C3838FFF800001C0E383C1FC3C3F878000
7FFC0383838F83800001C0E38381FFFC3FFF8000
7FFC7383838783800001C0E38380E3DC1C7B8000
7C1C7E03838783800001C0E1C780C01C1C038000
3C1C7E03838183800001C1C1FF80601C0C038000
3C1C3F03838003800000F0407380701C0E038000
0C1C038383800380000078000380181C03038000
001C01C38380038000003E0003800C1C01838000
001C00638380038000000F000380071C00E38000
001C004383800380000007800380011C00238000
0000000000000000000001C00000000000000000
0000000000000000000000E00000000000000000
0000000000000000000000E00000000000000000
0000000000000000000001C00000000000000000
0000000000000000000000400000000000000000
ENDCHAR
STARTCHAR C_GO_TO_SITE_OFFICE.uni0103
ENCODING 259
SWIDTH 22867 0
DWIDTH 215 0
BBX 215 32 1 -5
BITMAP
00000000000000000000001E000FC000000000000000000000780000
00000000000000000000001F803FFC000000000000000000007E0000
000000000000000000000001C0781E00000000000000000000070000
00000000000000000000000060700700000000000000000000018400
00000000000000000000000060700180000000000000000000018E00
00000000000000000000001F307000C000000000000000000000C400
00000000000000000000001FD87000E0000000000000000000006000
00000000000000000000000078380060000000000000000000002000
0000000000000000000000001C1C0030000000000000000000003000
FFFFFFFFFFFFFFC00000F87FFFFFFFFFFFFFFF80007FFFFFFFFFFE00
FFFFFFFFFFFFFFC00003FE7FFFFFFFFFFFFFFF80007FFFFFFFFFFE00
070383801C00380000010E1C1C1C383800381C00000001C1C0387000
070383801C0038000000071C1C1C383800381C00000001C1C0387000
07038383FC0038000000071C1C1C383800381C00000001C1C0387000
07038387FC0038000000071C1C1C383800381C000000FFC1C0387000
0703838F0001F80000000E1C1C1C3839C0381C000020FFC1C0387000
3F03838E0007F8000001FE1C1C1C383BE1F81C00007071C1C0707000
3F87838E000F00000001F81C1C1C383E71FC3C00003831C1C0F07000
3FFF8386FC0E000000001C7C1C1C383C71FFFC00001839C1C3E07000
1C7B8383FF1C000000180FFC1C1C383870E3DC00000C39C1C7807000
1C038381079C0000000C079C1C1C1C7870E01C00000E39C1C380F000
0C038380039C0000000C071C1C1C1FF870601C000007F9C1C1E1F000
06038380039C00000006071C1C1C0738F0701C000001E1C1C0FFF000
03038382039C000000038F1C1C1C0038E0181C00000001C1C01E7000
038383878F0E00000001FE1C1C1C0038200C1C00000001C1C0007000
00E38387FF0F810000007C1C1C1C083800071C00000001C1C0007000
00238383FC03FF000000001C1C1C1C3800011C00000001C1C0007000
000000006000FC000000000000000800000000000000000000000000
00000000300000000000000000000000000000000000000000000000
00000000180000000000000000000000000000000000000000000000
000000000C0000000000000000000000000000000000000000000000
00000000080000000000000000000000000000000000000000000000
ENDCHAR
STARTCHAR C_GO_TO_FUEL_BUNK.uni0104
ENCODING 260
SWIDTH 22867 0
DWIDTH 185 0
BBX 185 28 0 -1
BITMAP
001F000000000000000000000000000000000000001E0000
007FE00000000000000000000000000000000000001F8000
00707000000000000000000000000000000000000001C000
00E018000000000000000000000000000000000000006100
00E00C000000000000000000000000000000000000006380
00E004000000000000000000000000000000000000003100
006006000000000000000000000000000000000000001800
007002000000000000000000000000000000000000000800
003803000000000000000000000000000000000000000C00
FFFFFFFFFFFFFFFF80007FFFFFFFFFE0001FFFFFFFFFFF80
FFFFFFFFFFFFFFFF80007FFFFFFFFFE0001FFFFFFFFFFF80
0038070000E0001C00001C1C1C07070000000070700E1C00
0038070000E0001C00001C1C1C07070000000070700E1C00
0038070000E0001C00001C1C1C07070000000070700E1C00
07F807007FE0001C00001C1C1C07070000003FF0700E1C00
0FF807307FE0787C00001C1C1C07070000083FF0700E1C00
1C00071838E1FEFC00001C1C1C070700001C1C70701C1C00
1C00071C18E1C39C00001C1C1C070700000E0C70703C1C00
1C00070C1CE3C79C00001C1C3FE7070000060E7070F81C00
0EFC07061CE3871C00001C1C7FE7070000030E7071E01C00
07FE07071CE38F1C00000E3C7C038F0000038E7070E01C00
020F0703FCE3821C00000FFC3C03FF000001FE7070787C00
40070700F0E1C01C000003DC3C00E70000007870703FFC00
E007070000E0E01C0000001C0C00070000000070700F9C00
7007070000E0701C0000001C000007000000007070001C00
3C1E070000E0201C0000001C000007000000007070001C00
0FFE070000E0001C0000001C000007000000007070001C00
03F000000000000000000000000000000000000000000000
ENDCHAR
STARTCHAR C_GOT_TO_GARAGE.uni0105
ENCODING 261
SWIDTH 22867 0
DWIDTH 111 0
BBX 111 27 0 0
BITMAP
0F00F00000000000000000007800
0FC0F80000000000000000007E00
00E00C0000000000000000000700
0030060000000000000000000184
003003000000000000000000018E
0F980300000000000000000000C4
0FEC018000000000000000000060
003C008000000000000000000020
000E00C000000000000000000030
FFFFFFFFFFFF80007FFFFFFFFFFE
FFFFFFFFFFFF80007FFFFFFFFFFE
1C0E01C0001C00000001C1C03870
1C0E01C0001C00000001C1C03870
1C0E01C0001C00000001C1C03870
1C0E01C00FFC000000FFC1C03870
1C0E01C20FFC000060FFC1C03870
1C0E0FC7071C00003071C1C07070
1C0E0F83831C00003831C1C0F070
7C0E0F81839C00001839C1C3E070
7C0E0700C39C00000C39C1C78070
3C0E0700E39C00000E39C1C380F0
180E03007F1C000007F1C1C1C1F0
100E03801F1C000001E1C1C0FFF0
000E00C0001C00000001C1C03E70
000E0060001C00000001C1C00070
000E0038001C00000001C1C00070
000E0008001C00000001C1C00000
ENDCHAR
STARTCHAR C_CALL_ON_TWO_WAY.uni0106
ENCODING 262
SWIDTH 22867 0
DWIDTH 217 0
BBX 217 35 0 -8
BITMAP
000000000000000780000000000000000000000000000000001E0000
0000000000000007E0000000000000000000000000000000001F8000
0000000000000000700000000000000000000000000000000001C000
00000000000000001800000000000000000000000000000000006100
00000000000000001800000000000000000000000000000000006380
00000000000000000C00000000000000000000000000000000003100
00000000000000000600000000000000000000000000000000001800
00000000000000000200000000000000000000000000000000001800
00000000000000000300000000000000000000000000000000000C00
FFFFFFFFFFFFFFFFFFFFFFFC0003FFFFFFC0003FFFFFFFFFFFFFFF80
FFFFFFFFFFFFFFFFFFFFFFFC0003FFFFFFC0003FFFFFFFFFFFFFFF80
000E0E01C38070000701C0E00000E0E01C00000003800070700E1C00
000E0E01C38070000701C0E00000E0E01C00000003800070700E1C00
000E0E01C38070000701C0E00000E0E01C00000003800070700E1C00
0F8E0E01C38070000701C0E00000E0E01C000003E3800070700E1C00
3FCE0E01C380701E1F01C0E00000E0E01C00000FF381E1F0700E1C00
384E0E038383F07FBF0FC0E00000E0E0FC00000F1387FBF0701C1C00
700E0E078383E070E70FE1E00000E0E0F800001E83870E70703C1C00
700E0E1F0383E0E1C70FFFE00000E0E0F800001CC38E1E7070F81C00
701E0E3C0381C0E1C7071EE00000E0E07800001C478E1C7071E01C00
703E0E1C0781C0E3C70700E00000F1E06000001C2F8E387070E03C00
386E0E0F0F80C0E0870300E000007FE03000000E3F8E087070787C00
3FCE0E07FF80E070070380E000001EE03800000FF3870070703FFC00
0F8E0E01F38030380700C0E0000000E00C000003E3838070700F9C00
000E0E000380381C0700E0E0000000E00E0000000381C07070001C00
000E0E0003800E08070038E0000000E0038000000380807070001C00
000E0E0003800200070008E0000000E0008000000380007070001C00
00000000000000000000000000000000000000000000000000000000
000000000000000000000000000000000000000003C0000000000000
000000000000000000000000000000000000000083F0000000000000
00000000000000000000000000000000000000008070000000000000
0000000000000000000000000000000000000000E030000000000000
00000000000000000000000000000000000000006030000000000000
000000000000000000000000000000000000000038F0000000000000
00000000000000000000000000000000000000000FC0000000000000
ENDCHAR
STARTCHAR C_ANY_PROBLEM.uni0107
ENCODING 263
SWIDTH 22867 0
DWIDTH 167 0
BBX 167 32 0 -5
BITMAP
0000F00007D000000000000000000000000000000000
0000FC0007F000000000000000000000000000000000
00000E001E1000000000000000000000000000000000
000003001C0000000000000000000000000000000000
000003001C0000000000000000000000000000000000
000001801C0000000000000000000000000000000000
000000C00C0000000000000000000000000000000000
000000400E000000000000000000000000000001F000
0000006006000000000000000000000000000007FC00
FFFFFFFFFFF80007FFFFFFFFFFFFFFFFFF8000020E00
FFFFFFFFFFF80007FFFFFFFFFFFFFFFFFF8000000600
007000E007000000381C1C1C07000E1C1C0000000600
007000E007000000381C1C1C07000E1C1C0000000600
007000E0FF000000381C1C1C07000E1C1C0000000C00
1E73C0E1FF000000381C1C1C07000E1C1C0000001C00
3E77E0E3C0000000381C1C1C07000E1C1C0000003800
787CE0E380000001F81C1C1C3F001C1C1C0000007000
707870E380000001FC3C1C1C3F843C1C1C000000E000
707070E1BF000001FFFC7FFC3FFCF81C1C000000C000
707070E0FFC00000E3DC7FFC1C79F01C1C000000C000
39F070E041C00000E01C7C1C1800E01C1C0000000000
3FF0F0E000E00000601C3C1C0C0078FC1C0000000000
0E70E0E000E00000701C3C1C0E003FFC1C0000000000
0070E0E0C0E00000181C0C1C03000F9C1C000000C000
0071C0E1E3C000000C1C001C0380001C1C000001E000
007040E1FFC00000071C001C00E0001C1C000001E000
007000E0FF000000011C001C0020001C1C000000C000
00000000180000000000000000000000000000000000
000000000C0000000000000000000000000000000000
00000000060000000000000000000000000000000000
00000000060000000000000000000000000000000000
00000000020000000000000000000000000000000000
ENDCHAR
STARTCHAR C_CONTACT_SUPERVISOR.uni0108
ENCODING 264
SWIDTH 22867 0
DWIDTH 251 0
BBX 251 32 0 -8
BITMAP
0000000000007800000000000000003C0000000000000000078000000001E000
000000000001FC00000000000000003E00000000000000001FC000000001F000
000000000003C400000000000000000300000000000000003C40000000001000
0000000000038000000000000000000380000000000000003800000000000840
0000000000038000000000000000000180000000000000003800000000000CE0
00000000000380000000000000000000C0000000000000003800000000000C40
0000000000018000000000000000000060000000000000001800000000000600
000000000001C000000000000000000060000000000000001C00000000000200
FFFFFFFFFFFFFFFFFFFFFFFC000FFFFFFC000FFFFFFFFFFFFFFE0003FFFFFFE0
FFFFFFFFFFFFFFFFFFFFFFFC000FFFFFFC000FFFFFFFFFFFFFFE0003FFFFFFE0
07061C380070E00C000380C000000E007000007060C060C00E00000007000700
07061C380070E00C000380C000000E007000007060C060C00E00000007000700
07061C380070E1FC000380C000000E007000007060C060C00E00000007000700
07061C383C70E3FC00FF80C00001CEF07000007060C060C1CEF00000F7380700
07061C38FE70E78020FF80C00003CFF87000007060C060C3CEF80001F77C0700
3F061C38E270E700106387C000070F18700003F060C060C70F1C0003C7C61F00
3FFE1C39C070E33C1833878000060E1C700003FFE3FE60C70E1C000387061E00
1CF61C39C0F0E1FF0C33838000060E1C700001CF63FE60C70E1C000387060C00
1C060E79C1F0E0C78E33838000033E1C700001C063C031C33E1C0001C7060C00
0C060FF8E370E00383F381800003EE3C700000C061C03FC3FE3C0001FF0E0C00
0E0603B8FE70E00381C380800001EE38700000E060C01EC0CE380000770C0600
030600383870E103800380C000000E387000003060C000C00E380000070C0700
010600380070E3CF0003806000000E7070000010600000C00E70000007180180
00C600380070E3FF0003803800000E107000000C600000C00E100000070000E0
0000000000000030000000000000000000000000000000000000000000000000
0007000000000010000000000000000000000000000000000000000000000000
0107800000000008000000000000000000000000000000000000000000000000
0081C0000000000C000000000000000000000000000000000000000000000000
0080C00000000008000000000000000000000000000000000000000000000000
00E0C00000000000000000000000000000000000000000000000000000000000
0071C00000000000000000000000000000000000000000000000000000000000
001FC00000000000000000000000000000000000000000000000000000000000
ENDCHAR
STARTCHAR C_STAY_THERE.uni0109
ENCODING 265
SWIDTH 22867 0
DWIDTH 94 0
BBX 94 34 0 -7
BITMAP
0000001E0000000000780000
0000003F80000000007E0000
00000078C000000000070000
000000706000000000018400
000000702100000000018E00
00000070338000000000C400
000000381100000000006000
000000381800000000002000
0000001C1800000000003000
FFFFFFFFFF80007FFFFFFFFC
FFFFFFFFFF80007FFFFFFFFC
000E001C1C000001C0007000
000E001C1C000001C0007000
000E07FC1C000001F8007000
0F8E1FFC1C000001FC1E73C0
3FCE1E001C000001C63E77E0
384E1C001C00001FC6707CE0
700E1C001C00001F86707870
700E0DF01C00001F8E707070
701E0FFC1C00000F0C707070
703E0E1C1C00000C0438F070
386E1C0E1C000006003FF060
3FCE380E1C000007000E70E0
0F8E380E1C000001800070E0
000E380E1C000000C00071C0
000E381E1C00000070007040
000E3C1C1C00000010007000
00001C040000000000000000
00000E000000000000000000
00000F800000000000000000
000003E00000000000000000
000000F80000000000000000
0000007C0000000000000000
000000040000000000000000
ENDCHAR
STARTCHAR C_ARE_YOU_LOADING.uni010A
ENCODING 266
SWIDTH 22867 0
DWIDTH 252 0
BBX 252 30 0 -6
BITMAP
00000000000000007000F8000000000000000000000000380000038000000000
00000000000000007C03FF8000000000000000000000003E000003E000000000
00000000000000000E0787800000000000000000000000070000007000000000
0000000000000000030700C00000000000000000000000018800001880000000
0000000000000000030700610000000000000000000000019C000019C0000000
000000000000000001870033800000000000000000000000880003CC80000000
000000000000000000C70039000000000000000000000000400003F600000000
000000000000000000C380180000000000000000000000004000003E000007C0
FFFFFFFFFC000FFFFFFFFFFFFFFFE0007FFFFFFE0007FFFFFC000FFFC0000030
FFFFFFFFFC000FFFFFFFFFFFFFFFE0007FFFFFFE0007FFFFFC000FFFC0000010
00E00E387000000060E1C00E0303000000700070000038006000000600000010
00E00E387000000060E1C00E0303000000700070000038006000000600000010
00E00E387000000060E1C00E03030000007000700000383FE00001FE00000030
1EE60E387000000060E1C0FE030300000E7780700000383FE00003FE00000070
3EEE0E38700000F1E0E1C1FE030300001E77C0700000383800000380000000E0
70F03C387000038E60E1C380030300003878E3E00000F0300000030000000300
70E0F8387000070E60E1C3800F0300003870E3E00000F0378000017C00000300
70E1E0387000070C60E1C1BE0F0300003870E1C00000603FE00001FE00000300
39E0E0787000071860E1C0FF870300001DF0E1C0000060386000018600000000
3FE078F87000070860E1C003870300001FF0E0C0000020307000030300000000
0EE03FF87000038060E1C801810300000671C0E0000030607000060300000000
00E00F38700001C060E1CC01800300000071C070000018607000060300000300
00E00038700000E060E1CE01800300000073801000000C607000060300000780
00E000387000000060E181FF8003000000700004000001706000070600000300
00000000000000000000007E0000000000000000000000302000030000000000
0000000000000000000000000000000000000000000000380000018000000000
00000000000000000000000000000000000000000000003E000001E000000000
00000000000000000000000000000000000000000000000F800000F800000000
000000000000000000000000000000000000000000000007C000007E00000000
000000000000000000000000000000000000000000000000E000000E00000000
ENDCHAR
STARTCHAR C_GETTING_LOAD.uni010B
ENCODING 267
SWIDTH 22867 0
DWIDTH 213 0
BBX 213 34 0 -7
BITMAP
0000000000000000700000000001C000000001C000001E0000000000
0000000000000000FE0000000001F000000001F000001F0800000000
00000000000000007F0000000000FC00000000FC0000071C00000000
00000000000000000380000000000C000000000C0000019C00000000
000000000000000000C0000000000200000000020000609C00000000
000000000000000000400000000001000000000100007888001F8000
000000000000000000200000000001800000000180007E40003FE000
0000000000000000001000000000008000000000800003400079F000
0000000000000000001800000000004000000000400000C000F07800
FFFFFFFFFFF00FFFFFFFFFFFF01FFFFF01FFFFFFFE03FFFE00E03800
FFFFFFFFFFF00FFFFFFFFFFFF01FFFFF01FFFFFFFE03FFFE01E03800
0060060C060000003018000300000060000300006000006000C03800
0060030C060000003018000300000060000300006000006000003800
0060030C060000003018000300000060000300006000006000007800
1E60030C060001E0F01803FF0003C1E0000300FFE000FFE00000F000
3FFF070C060003F9F01807FF0007F3E0003700FFE000FFE00001E000
38FF0F0C0600038FB018020000071F60007F00C00000C0000003C000
20F03E0C060003073018030000060E60007E00800000800000038000
21E03C1C0600030E301811FC00061C60003E00400000400000070000
37E0101C0600030C301819FE00061860001C00278000278000070000
1F600C7C06000180301808E3000300600008003FE0003FE000070000
006007FC060000C030180403000180600004003E20003E2000070000
006001CC060000403018020300008060000200781000781000000000
0060000C060000203018018F00004060000100701000701000000000
0060000C06000010301800FE000020600000C0603000603000070000
0060000C060000003018003C00000060000060607000607000070000
0020000C02000000300800000000006000001060E00060E000070000
0020000402000000100800000000002000000030C00030C000000000
00000000000000000000000000000000000000180000180000000000
000000000000000000000000000000000000000C00000C0000000000
00000000000000000000000000000000000000030000030000000000
00000000000000000000000000000000000000018000018000000000
00000000000000000000000000000000000000007000007000000000
00000000000000000000000000000000000000000C00000C00000000
ENDCHAR
STARTCHAR C_ARE_YOU_FULL.uni010C
ENCODING 268
SWIDTH 22867 0
DWIDTH 253 0
BBX 253 30 0 -6
BITMAP
0000000000000000700000000000000000000000380000000000000000000000
00000000000000007C00000000000000000000003E0000000000000000000000
00000000000000000E0000000000000000000000070000000000000000000000
0000000000000000030000000000000000000000018000000000000000000000
0000000000000000030000000000000000000000018000000000000000000000
000000000000000001800000000000000000000000C000000000000000000000
000000000000000000C000000000000000000000006000000000000000000000
00000000000000000040000000000000000000000020000000000000000003E0
FFFFFFFFFC0007FFFFFFFFF8001FFFFFFFE0007FFFFC000FFFFFFFFFE0000018
FFFFFFFFFC0007FFFFFFFFF8001FFFFFFFE0007FFFFC000FFFFFFFFFE0000008
00E00E387000000060E0070000070E030300000030700001C180618300000008
00E00E387000000060E0070000070E030300000030700001C180618300000008
00E00E387000000060E0070000070E0303000007F0700001C180618300000018
1EE60E387000000060E07F0000070E030300001FF0700001C180618300000038
3EEE0E38700000F1E0E0FF0000070E030300001C00700001C180618300000070
70F03C387000038E60E1C00000070E1E0300001800700001C181C183000001C0
70E0F8387000078E60E1C00000070E1E0300000DE0700007C187818300000180
70E1E0387000070C60E0DF0000070E0E0300000FF0700007C18F018300000180
39E0E0787000071860E07FC000031E0E0300000C30700003C187038300000000
3FE078F87000070860E021C00003FE0603000018187000018183878300000000
0EE03FF87000038060E400C00000EE0603000038187000010181FF8300000000
00E00F38700001C060E600C000000E0103000038187000000180798300000180
00E00038700000E060E700C000000E01830000381870000001800183000003C0
00E000387000000060E0FFC000000E0023000038307000000180018300000180
000000000000000000003F0000003E0000000018000000000000000000000000
00000000000000000000000000007F000000000C000000000000000000000000
0000000000000000000000000000E1800000000F000000000000000000000000
0000000000000000000000000000C0C000000007C00000000000000000000000
0000000000000000000000000000C06000000001F00000000000000000000000
0000000000000000000000000000E02000000000F00000000000000000000000
ENDCHAR
STARTCHAR C_YOU_EMPTY.uni010D
ENCODING 269
SWIDTH 22867 0
DWIDTH 220 0
BBX 220 31 0 -4
BITMAP
0000000000000000000000000000000000000003E000003C00000000
0000000000000000000000000000000000000007F800003E00000000
000000000000000000000000000000000000000F1C00000E00000000
000000000000000000000000000000000000000E0E00000300000000
000000000000000000000000000000000000000C060000C100000000
000000000000000000000000000000000000000C030000F100003F00
000000000000000000000000000000000000000C010000FC80007FC0
000000000000000000000000000000000000000C018000068000F3E0
0000000000000000000000000000000000000006008000018001E0F0
FFFFFFFFE03FFFFFFFFFFFFFFE01FFFFFFFFFFFFFFF807FFFC01C070
FFFFFFFFE03FFFFFFFFFFFFFFE01FFFFFFFFFFFFFFF807FFFC03C070
0060060C00000301806030018000180180C0000601800000C0018070
0060030C00000301806030018000180180C0000601800000C0000070
0060030C00000301806030018000187980C0000601800000C00000F0
1E60030C0003FF0180603001800058FF80C03C1E018001FFC00001E0
3FFF070C0007FF018060301B8000F9C780C07F3E018001FFC00003C0
38FF0F0C000200018060303F8000F98180C071F60180018000000780
20F03E0C000300018060303F0000F90380C060E60180010000000700
21E03C1C0011FC07FF30701F0000710780C061C60180008000000E00
37E0101C0019FE07FF19F00E0000309F80C061860180004F00000E00
1F600C7C0008E3038007F004000020FD80C030060180007FC0000E00
006007FC00040301800030020000107980C018060180007C40000E00
006001CC00020300800030010000080380C00806018000F020000000
0060000C00018F00000030008000061F80C00406018000E020000000
0060000C0000FE0000003000600003FF80C00206018000C060000E00
0060000C00003C00000030003000007180C00006018000C0E0000E00
0020000C00000000000030000800000080400006018000C1C0000E00
00200004000000000000100000000000804000020080006180000000
00000000000000000000000000000000000000000000003000000000
00000000000000000000000000000000000000000000001800000000
00000000000000000000000000000000000000000000000600000000
ENDCHAR
STARTCHAR C_PRESS_ICON.uni010E
ENCODING 270
SWIDTH 22867 0
DWIDTH 166 0
BBX 166 32 0 -5
BITMAP
000000000000000F0000000000000000000000F00000
000000000000000FC000000000000000000000FC0000
0000000000000000E0000000000000000000000E0000
00000000000000003000000000000000000000030800
00000000000000003000000000000000000000031C00
00000000000000001800000000000000000000018800
00000000000000000C0000000000000000000000C000
00000000000000000400000000000000000000004000
00000000000000000600000000000000000000006000
07C3FFFFFFFFFFFFFFFFFFC0003FFFFFFFFFFFFFFC00
1FF3FFFFFFFFFFFFFFFFFFC0003FFFFFFFFFFFFFFC00
0878E0E0070007000E000E0000001C0003838070E000
0038E0E0070007000E000E0000001C0003838070E000
0038E0E0FF0007000E000E0000001C0003838070E000
0038E0E1FF01E7380E000E0000001C03E3838070E000
0070E0E3C003E77E0E000E000000FC0FF3838070E000
0FF0E0E3800787CF0E1FFE000007FC0F138380E0E000
0FC0E0E3800707870E3FFE00000F801C838381E0E000
00E3E0E1AF0707070E3E0E00000E001CC38387C0E000
C07FE0E0FFC707070E1E0E00001C001C47838F00E000
603CE0E061C39F070E1E0E00001C001C2F838701E000
6038E0E000E3FF070E060E00001C000E3F8383C3E000
3038E0E000E0E70E0E000E00001C000FF38381FFE000
1C78E0E080E0070E0E000E00001C0303E383807CE000
0FF0E0E1E3C0071C0E000E00000E078003838000E000
03E0E0E1FFC007040E000E00000F078003838000E000
0000E0E0FE0007000E000E000003FF0003838000E000
0000000018000000000000000000FF00000000000000
000000000C0000000000000000000180000000000000
00000000060000000000000000000180000000000000
000000000300000000000000000000C0000000000000
00000000020000000000000000000000000000000000
ENDCHAR
STARTCHAR C_PRESS_FIRST_BUCKET.uni010F
ENCODING 271
SWIDTH 22867 0
DWIDTH 197 0
BBX 197 31 0 -4
BITMAP
0000000000000000000007800000000000000000000000E00000
0000000000000000000007E00000000000000000000000F80000
00000000000000000000007000000000000000000000001C0000
0000000000000000000000180000000000000000000000061000
0000000000000000000000180000000000000000000000063800
00000000000000000000000C0000000000000000000000031000
0000000000000000000000060000000000000000000000018000
0000000000000000000000020000000000000000000000008000
000000000000000000000003000000000000000000000000C000
FFFF1E1FFFFFE0001FFFFFFFFFFFFF80007FFFFFFFFFFFFFF800
FFFF3F9FFFFFE0001FFFFFFFFFFFFF80007FFFFFFFFFFFFFF800
383863C7070700000001C0070000700000003800070700E1C000
383861C7070700000001C0070000700000003800070700E1C000
383861C7070700000001C0070000700000003800070700E1C000
383831C70707000001F1C1E73C00700000003807C70700E1C000
383819C70707000007F9C3E77E03F0000001F81FE70700E1C000
38380387070700000789C707CE0FF000000FF81E270701C1C000
38380F87070700000E41C707871E0000001F0039070703C1C000
38787E071FFF00000E61C707071C0000001C003987070F81C000
3C78F8071FFF00000E33C7070738000000380038CF071E01C000
1FB8700F1F0700000E17C38F07380000003800385F070E03C000
0FB83C1F0F070000071FC3FF0F3800000038001C3F070787C000
03380FFF0707000007F9C0E70E3800000038001FE70703FFC000
063803C70307000001F1C0070E38000000380607C7070079C000
0C380007000700000001C0071C1C0000001C0F0007070001C000
1C380007000700000001C007041E0200001E0F0007070001C000
08380007000700000001C0070007FE000007FE0007070001C000
0000000000000000000000000001F8000001FE00000000000000
0000000000000000000000000000000000000300000000000000
0000000000000000000000000000000000000300000000000000
0000000000000000000000000000000000000180000000000000
ENDCHAR
STARTCHAR C_PRESS_DELAY.uni0110
ENCODING 272
SWIDTH 22867 0
DWIDTH 122 0
BBX 122 31 0 -4
BITMAP
0FC00000F000000000000000000F0000
3FFC0000FC00000000000000000FC000
781E00000E000000000000000000E000
70070000030000000000000000003080
700180000300000000000000000031C0
7000C000018000000000000000001880
7000E00000C000000000000000000C00
38006000004000000000000000000400
1C003000006000000000000000000600
FFFFFFFFFFFC0003FFFFFFFFFFFFFFC0
FFFFFFFFFFFC0003FFFFFFFFFFFFFFC0
1C00380000E0000001C0003838070E00
1C00380000E0000001C0003838070E00
1C00380000E0000001C0003838070E00
1C07F80000E0000001C03E3838070E00
1C0FF803C3E000000FC0FF3838070E00
1C1C000FF7E000007FC0F138380E0E00
1C1C000E1CE00000F801C838381E0E00
1C1C001E3CE00000E001CC38387C0E00
1C0CF81C38E00001C001C47838F00E00
1C0FFE1C70E00001C001C2F838701E00
1C030F1C10E00001C000E3F838383E00
1C40070E00E00001C000FF38381FFE00
1C60070700E00001C0303E383807CE00
1C70070380E00000E078003838000E00
1C3C1E0100E00000F878003838000E00
1C0FFE0000E000003FF0003838000E00
0003F800000000000FF0000000000000
00000000000000000018000000000000
00000000000000000018000000000000
0000000000000000000C000000000000
ENDCHAR
STARTCHAR C_PRESS_DOWN.uni0111
ENCODING 273
SWIDTH 22867 0
DWIDTH 136 0
BBX 136 31 0 -4
BITMAP
0000000000000000000000000000003C0000
0000000000000000000000000000003F0000
000000000000000000000000000000038000
00000000000000000000000000000000C200
00000000000000000000000000000000C700
000000000000000000000000000000006200
000000000000000000000000000000003000
000000000000000000000000000000001000
000000000000000000000000000000001800
FFFFFFFFFFFFFFF0000FFFFFFFFFFFFFFF00
FFFFFFFFFFFFFFF0000FFFFFFFFFFFFFFF00
00380700070003800000070000E0E01C3800
00380700030003800000070000E0E01C3800
00380700038003800000070000E0E01C3800
07F807000380038000000700F8E0E01C3800
0FF807000380038000003F03FCE0E01C3800
1E0007000787FF800001FF03C4E0E0383800
1C000701FF0FFF800003E00720E0E0783800
1C000701FC0F83800003800730E0E1F03800
0CF80700060783800007000711E0E3C03800
07FE071807078380000700070BE0E1C07800
030F070C03818380000700038FE0E0F0F800
4007070C0380038000070003FCE0E07FF800
E007070603800380000700C0F8E0E01F3800
3007070703800380000381E000E0E0003800
3C1E0703870003800001C1E000E0E0003800
0FFE0701FF0003800001FFC000E0E0003800
03F800007C00000000003FC0000000000000
000000000000000000000060000000000000
000000000000000000000060000000000000
000000000000000000000030000000000000
ENDCHAR
STARTCHAR C_WELL_DONE.uni0112
ENCODING 274
SWIDTH 22867 0
DWIDTH 71 0
BBX 71 19 0 0
BITMAP
1E000000000001E00000
3F9FFFFFFFFFF3F9FE00
739FFFFFFFFFF739FE00
71C707000383871C7000
71C707000383871C7000
71C707000383871C7000
31C70703E383871C7000
39C7070FF383839C7000
1F87070F138381F87000
0F87071C838380F87000
0707071CC38380707000
6607071C478386607000
FC07071C2F838FE07000
FC07070E3F838FC07000
7E07070FF38387C07000
07070703E38380707000
01870700038380387000
01C707000383800C7000
00070700038380080000
ENDCHAR
STARTCHAR C_THANK_YOU.uni0113
ENCODING 275
SWIDTH 22867 0
DWIDTH 88 0
BBX 88 22 0 -3
BITMAP
3C0000000000000000000000
7E3FFFFFFFFFFFFFFFFFFF00
E33FFFFFFFFFFFFFFFFFFF00
E30E0000387000383800E000
E30E0000387000383800E000
E60E0000387000383800E000
740E000038703E383800E000
3C0E00003870FF383807E000
1F8E3FF07070E138383FE000
1F8E3FF0F071C038387C0000
380E3E03E071C03838700000
380E1E078071C07838E00000
701E0E038071C0F838E00000
701E0601E1F0E1B838E00000
703E0000FFF0FF3838E00000
387E00001E703E3838E01800
3FCE00000070003838703C00
0F8E00000070003838783C00
000E000000700038381FF800
00000000000000000007F800
000000000000000000000C00
000000000000000000000C00
ENDCHAR
STARTCHAR C_SPACE.uni0114
ENCODING 276
SWIDTH 22867 0
DWIDTH 49 0
BBX 49 27 0 0
BITMAP
0000F00000000000
0000FC0000000000
00000E0000000000
0000030000000000
0000030000000000
0000018000000000
000000C000000000
0000004000000000
0000006000000000
FFFFFFFFFFFF8000
FFFFFFFFFFFF8000
0700E0E0381C0000
0700E0E0381C0000
0700E0E0381C0000
0700E0E0381C0000
0700E0E0381C0000
3F00E0E1F81C0000
3F84E0E1FC1C0000
3FFCE0E1FFFC0000
1C78E0E0E3DC0000
1C0071E0E01C0000
0C007FE0601C0000
0E001EE0701C0000
030000E0181C0000
018000E00C1C0000
00E000E0071C0000
002000E0011C0000
ENDCHAR
STARTCHAR C_SEND.uni0115
ENCODING 277
SWIDTH 22867 0
DWIDTH 39 0
BBX 39 27 0 0
BITMAP
03C000780000
03F0007E0000
003800070000
000C00018000
000C00018000
00060000C000
000300006000
000100002000
000180003000
3C3FFFFFFE00
7E3FFFFFFE00
E60380007000
E70380007000
E70380007000
6703803FF000
7F03983FF000
3F038C1C7000
07038E0C7000
1FFF860E7000
1FFF830E7000
1F03838E7000
0F0381FC7000
0703807C7000
030380007000
000380007000
000380007000
000380000000
ENDCHAR
STARTCHAR C_DELETE.uni0116
ENCODING 278
SWIDTH 22867 0
DWIDTH 69 0
BBX 69 28 0 -1
BITMAP
0FE00003FE0000000000
3FFC000FFF8000000000
781E000E03F000000000
7007001C003C00000000
7001801C000E00000000
7000C01C000300000000
7000E00C000180000000
3800600E0000C0000000
1C003007000060000000
FFFFFFFFFFFFFFFFF800
FFFFFFFFFFFFFFFFF800
1C0038070000E0070000
1C0038070000E0070000
1C0038070000E0070000
1C07F8070000E0070000
1C0FF80703C3E03F0000
1C1E00070FF7E0FF0000
1C1C00070E1CE1E00000
1C1C00071C38E1C00000
1C0CF8071C38E3800000
1C07FE071C78E3800000
1C030F071C10E3800000
1C4007070E00E3800000
1C6007070700E3800000
1C7007070380E1C00000
1C3C0E070100E1E02000
1C0FFE070000E07FE000
0003F0000000001F0000
ENDCHAR
STARTCHAR C_LOAD.uni0117
ENCODING 279
SWIDTH 22867 0
DWIDTH 46 0
BBX 46 28 0 -1
BITMAP
0003C0000000
0003F0000000
000038000000
00000C000000
00000C000000
000006000000
000003000000
000001000000
000001800000
FFFFFFFFFFFC
FFFFFFFFFFFC
000383800700
000383800700
000383800700
00038380FF00
0F078381FF00
3FDF83838000
387383838000
70F383838000
70E38381DF00
71C38380FFC0
3043838041E0
3803838800E0
1C03838C00E0
0E03838E00E0
0403838781C0
00038381FFC0
000000007F00
ENDCHAR
STARTCHAR C_GET_DEFECTS.uni0118
ENCODING 280
SWIDTH 22867 0
DWIDTH 103 0
BBX 103 35 0 -8
BITMAP
00000FC000000000000000780000
00003FF000000000000000FE0000
0000783C00000000000001E30000
0000700E00000000000001C18000
0000700300000000000001C08000
0000700180000000000001C0C000
0000300180000000000000C04000
00003800C0000000000000E06000
00001C0060000000000000706000
FFFFFFFFFF0000FFFFFFFFFFFE00
FFFFFFFFFF0000FFFFFFFFFFFE00
001C1C00E0000007038000707000
001C1C00E0000007038000707000
001C1C00E0000007038000707000
0E1C1C00E0000007038000707000
3F9C1C07E0000007038FFC707000
71DC1C1FE000003F038FFC707000
20FC1C3C0000003F8780E0707000
003C1C380000003FFF8180F07000
001C1C700000001C7B8380F07000
003C1C700000001C038381F07000
007C1C700000000C0383C3707000
01FC1C700000000E0381FE707000
039C1C700000000303807C707000
071C1C3800000001838000707000
0E1C1C3C04000000E38000707000
041C1C0FFC000000238000707000
00000003F00000000F8000000000
001E0000000000001FC000000000
041F000000000000387000000000
0403800000000000303000000000
0601800000000000301C00000000
0381800000000000300400000000
00E38000000000001F0600000000
007F000000000000000000000000
ENDCHAR
STARTCHAR C_TRUCK.uni0119
ENCODING 281
SWIDTH 22867 0
DWIDTH 57 0
BBX 57 19 0 -1
BITMAP
FFFFFFFFFFFFFF80
FFFFFFFFFFFFFF80
00380701C1C03800
00380701C1C03800
00380701C1C03800
07F80701C1C03800
0FF80701C1C03800
1E000701C1C1F800
1C000701C1C1F000
1C000FF9C1C1F000
0D781FF9C1C0E000
07FE1F00E3C0E000
030F0F00FFC06000
400707003DC03000
E007060001C03800
3007000001C00C00
3C1E000001C00700
0FFE000001C00100
03F0000000000000
ENDCHAR
STARTCHAR C_DEFECT.uni011A
ENCODING 282
SWIDTH 22867 0
DWIDTH 40 0
BBX 40 36 0 -9
BITMAP
00000FC00000
00003FF80000
0000783C0000
000070060000
000070030000
000070018000
00003001C000
00003800C000
00001C006000
FFFFFFFFFF00
FFFFFFFFFF00
001C1C00E000
001C1C00E000
001C1C00E000
0E1C1C00E000
3F9C1C07E000
71DC1C1FE000
20FC1C3C0000
003C1C380000
001C1C700000
003C1C700000
007C1C700000
01FC1C700000
019C1C700000
071C1C380000
0E1C1C3C0400
041C1C1FFC00
00000003F000
001E00000000
041F00000000
040380000000
070180000000
030180000000
01C380000000
00FF00000000
003C00000000
ENDCHAR
STARTCHAR C_SPLIT_DIGGING.uni011B
ENCODING 283
SWIDTH 22867 0
DWIDTH 141 0
BBX 141 28 0 -1
BITMAP
000000001FF0000000000000000000000000
000000003FFC000000000000000000000000
00000000783F000000000000000000000000
00000000E007800000000000000000000000
00000000E001C00000000000000000000000
00000000C000600000000000000000000000
00000000C000300000000000000000000000
00000000E000180000000000000000000000
000000006000080000000000000000000000
FFFFFFFFFFFFFFFFFFF01FFFFFFFFFFFFFF8
FFFFFFFFFFFFFFFFFFF01FFFFFFFFFFFFFF8
060180C0600003000E00018018000C000300
060180C0600003000E00018018000C000300
060180C0600003000E00018798000C000300
060180C0601E0F000E00058FF8000C000300
3E0180C0603F9F00FE000F9C781FFC07FF00
7E0980C06038FB01FE000F98183FFC0FFF00
7FF980C060307303C0000F90383E0C0F8300
7FF8C1C06030E30300000710781C0C070300
380067C06030C30600000309F81C0C070300
18001FC0601803020000020FD80C0C030300
180000C0600C03020000010798040C010300
0C0000C0600403030080008038000C000300
040000C06002030107C00061F8000C000300
020000C060010300FFC0003FF8000C000300
010000C0600003007E00000718000C000300
008000C06000030000000000080004000100
000000402000010000000000080000000000
ENDCHAR
STARTCHAR C_SET_LOAD_LOCATION.uni011C
ENCODING 284
SWIDTH 22867 0
DWIDTH 120 0
BBX 120 28 0 -1
BITMAP
0003C000000000000000000000000000
0003F000000000000000000000000000
00003800000000000000000000000000
00000C00000000000000000000000000
00000C00000000000000000000000000
00000600000000000000000000000000
00000300000000000000000000000000
00000100000000000000000000000000
00000180000000000000000000000000
FFFFFFFFFFFC0003FFF8F8FFFFFFFF00
FFFFFFFFFFF80003FFF9FCFFFFFFFF00
00038380070000001C031E3838003800
00038380070000001C030E3838003800
00038380070000001C030E3838003800
00038380FF0000001C018E3838003800
0F0F8381FF0000001C00CE3838003800
3FDF8383C0000000FC001C38387FF800
3873838380000000FE107C3838FFF800
70F3838380000000FFF3F03838F83800
70E383819F00000071E7C03838783800
71C38380FFC000007003807838783800
7043838061C000003001E0F838183800
3803838800E000003800FFF838003800
1C03839C00E000000C001F3838003800
0E03838E00E000000E00003838003800
0403838783C000000380003838003800
00038381FFC000000080003838003800
000000007F0000000000000000000000
ENDCHAR
STARTCHAR C_SET_TRUCK_LOADING.uni011D
ENCODING 285
SWIDTH 22867 0
DWIDTH 142 0
BBX 142 35 0 -8
BITMAP
00000000000000000000000000000000F000
00000000000000000000000000000000FC00
000000000000000000000000000000000E00
000000000000000000000000000000000300
000000000000000000000400000000000300
000000000000000000000E00000000000180
0000000000000000000004000000000000C0
000000000000000000000000000000000040
000000000000000000000000000000000060
FFFFFFFFFFFFFF80007FFFC0003FFFFFFFFC
FFFFFFFFFFFFFF80007FFFC0003FFFFFFFFC
00380701C1C0380000000E00000000E000E0
00380701C1C0380000000E00000000E000E0
00380701C1C0380000000E00000000E000E0
07F80701C1C0380000000E00000000E000E0
0FF80701C1C0380000000E00001FF8E000E0
1C000701C1C1F800003FFE00001FF8E1FFE0
1C000701C1C1F000003FFE000001C0E3FFE0
1C001FF9C1C1F000003E0E00000301E3E0E0
0EF81FF9C1C0E000001E0E00000701E1E0E0
0FFE1F00E3C0C000000E0E00000703E1E0E0
030F0F00FFC0600000060E00000786E060E0
40070F0039C0700000000E000003FCE000E0
6007030001C0180000000E000000F8E000E0
7007000001C00C0000000E00000000E000E0
1C1E000001C0070000000E00000000E000E0
1FFE000001C0010000000000000000E000E0
03F800000000000000000000000000000000
000000000000000000000000000000F00000
000000000000000000000000000020F80000
0000000000000000000000000000201C0000
0000000000000000000000000000380C0000
0000000000000000000000000000180C0000
00000000000000000000000000000FFC0000
000000000000000000000000000003F00000
ENDCHAR
STARTCHAR C_CHANGE_TRAMMING_MODE.uni011E
ENCODING 286
SWIDTH 22867 0
DWIDTH 144 0
BBX 144 34 0 -7
BITMAP
0000001FC000000000000000FF0000000000
0000007FF800000000000003FFC000000000
000000F03C0000000000000381F000000000
000000E00E00000000000007003800000000
000000E00300000000000007000E00000000
000000E00180000000000007000700000000
000000E001C0000000000007000300000000
0000007000C0000000000003800180000000
000000380060000000000001C000C0F00000
FFFFFFFFFFFFFFFFFFF0000FFFFFFDF8FFFF
FFFFFFFFFFFFFFFFFFF0000FFFFFFF8CFFFF
00E038383838000703800001C000E38C3838
00E038383838000703800001C000E38C3838
00E038383838000703800001C000E39C3838
00E038383838000703800001C0F8E1D03838
07E038383838000703800001C3FCE1E03838
1FE0383838387FC703800001C384E07E3838
3C0038383838FFC703800001C700E07E3838
38003838FFF8F81F03800001C700E0E03838
70003838FFF8781F03800001C701E1E03838
70003838F838780F03800001C703E1C07838
700038387838180603800001C386E1C07838
700038387838000003800001C3FCE1C0F838
700038381838000003800001C0F8E0E1F838
380038380038000003800001C000E0FF3838
3E0438380038000003800001C000E03E3838
0FFC38380038000003800001C000E0003838
03F000000000000000000000000000000000
010000000000000000000000000000000000
038000000000000000000000000000000000
0EE000000000000000000000000000000000
1C7000000000000000000000000000000000
383800000000000000000000000000000000
101000000000000000000000000000000000
ENDCHAR
STARTCHAR C_SHIFT_INFO.uni011F
ENCODING 287
SWIDTH 22867 0
DWIDTH 130 0
BBX 130 34 0 -7
BITMAP
000000000780000000000000000000000000
000000000FE0000000000000000000000000
000000001E30000000000000000000000000
000000001C18000000000000000000000000
000000001C08000000000000000000000000
000000001C0C000000000000000000000000
000000000E04000000000000000000000000
000000000E06000000000000000000000000
000000000706000000000000000000000000
FFFFFFFFFFFFE0001FFFFFFFFFFFFFFFC000
FFFFFFFFFFFFE0001FFFFFFFFFFFFFFFC000
383838000707000000E070000E000E0E0000
383838000707000000E070000E000E0E0000
383838000707000000E070000E000E0E0000
383838000707000000E070000E000E0E0000
3838381E1F07000000E071FF8E000E0E0000
3838387FBF07000007E071FF8E3FFE0E0000
38383870E707000007F0F01C0E3FFE0E0000
383838E1C707000007FFF0301E3E0E0E0000
383838E1C7070000038F70701E1E0E0E0000
1C7838E3C7070000038070703E1E0E0E0000
1FF838E087070000018070782E060E0E0000
07B838700707000001C0703FEE000E0E0000
00383838070700000060700F0E000E0E0000
0038381807070000003070000E000E0E0000
0038380807070000001C70000E000E0E0000
00383800070700000004700000000E0E0000
00000000000000000001F000000000000000
00000000000000000003F800000000000000
000000000000000000070E00000000000000
000000000000000000060700000000000000
000000000000000000060180000000000000
000000000000000000070080000000000000
00000000000000000003E0C0000000000000
ENDCHAR
STARTCHAR C_EXIT.uni0120
ENCODING 288
SWIDTH 22867 0
DWIDTH 53 0
BBX 53 25 0 -7
BITMAP
FFFFFFFFFFFFF800
FFFFFFFFFFFFF800
000E0E001C038000
000E0E001C038000
000E0E0FFC038000
0F8E0E0FFC038000
3FCE0E1C00038000
3C4E0E1C001F8000
720E0E1C001F0000
730E0E0EF01F0000
711E0E0FFC0E0000
709E0E0E1C0E0000
38FE0E1C0E060000
3FCE0E380E030000
0F8E0E380E038000
000E0E380E00C000
000E0E381E007000
000E0E3C1C002000
0000001C04000000
0000000E00000000
0000000F80000000
00000003E0000000
00000001F8000000
000000003C000000
0000000008000000
ENDCHAR
STARTCHAR C_NONE.uni0121
ENCODING 289
SWIDTH 22867 0
DWIDTH 101 0
BBX 101 34 0 -7
BITMAP
0000F00003E00000000001E00000
0000FC000FF00000000003F80000
00000E001E1000000000078C0000
000003001C000000000007060000
000003001C000000000007021000
000001801C000000000007033800
000000C00C000000000003811000
000000400E000000000003818000
0000006006000000000001C18000
FFFFFFFFFFF80007FFFFFFFFF800
FFFFFFFFFFF80007FFFFFFFFF800
007000E00700000000E001C1C000
007000E00700000000E001C1C000
007000E0FF00000000E07FC1C000
1E73C0E1FF00000000E1FFC1C000
3E77E0E3C000000000E1C001C000
787C60E380000003FFE1C001C000
707870E380000003FFE1C001C000
707070E1AF000003E0E0EF01C000
707070E1FFC00001E0E0FFC1C000
38F070E061E00000E0E0E1C1C000
3FF0F0E000E0000060E1C0E1C000
0E70E0E000E0000000E380E1C000
0070E0E080E0000000E380E1C000
0071C0E1E3C0000000E380E1C000
007040E1FFC0000000E381E1C000
007000E0FE00000000E3C1C1C000
00000000180000000001C0400000
000000000C0000000000E0000000
00000000060000000000F8000000
000000000600000000003E000000
000000000200000000000F800000
0000000000000000000007C00000
0000000000000000000000400000
ENDCHAR
STARTCHAR C_ENTER_NUMBER.uni0122
ENCODING 290
SWIDTH 22867 0
DWIDTH 203 0
BBX 203 27 0 0
BITMAP
0000000000000000000000001FF8000000000000000000078000
0000000000000000000000007FFF80000000000000000007C000
000000000000000000000000700FF00000000000000000006000
000000000000000000000000F0003E0000000000000000003080
000000000000000000000000E0000780000000000000000019C0
000000000000000000000000E00001C000000000000000001880
000000000000000000000000E00000E000000000000000000C00
0000000000000000000000007000003000000000000000000400
0000000000000000000000003800001800000000000000000600
FFFFFFFFFFFFFF800001F0FFFFFFFFFFFFFFFF80007FFFFFFFE0
FFFFFFFFFFFFFF800007FCFFFFFFFFFFFFFFFF80007FFFFFFFE0
001C1C0001C0380000021C383800001C00001C00000038000E00
001C1C0001C0380000000E383800001C00001C00000038000E00
001C1C0001C0380000000E383800001C00001C00000038000E00
001C1C01F1C0380000000E383800079CF01FFC00000F39E00E00
001C1C07F9C0380000001C3838000F9DF87FFC00001F3BF00E00
3FFC1C0789C1F8000003FC38387FDE1F38F01C00003C3E707E00
7FFC1C0F41C1F0000003F03838FFDC1E1CE01C0000383C387C00
7C1C3FEE61C1F000000018F838F81C1C1CE01C00003838387C00
3C1C7FEE23C0E00000301FF838781C1C1CE01C00003838383800
3C1C7C0E17C0E00000180F3838780E3C1CE01C00001C78383800
0C1C3C071FC0600000180E3838180FFC1C701C00001FF8381800
001C3C07F9C07000000C0E383800039C38301C00000738701C00
001C0C01F1C0180000071E383800001C38381C00000038700600
001C000001C00C000003FC383800001C701C1C00000038E00300
001C000001C006000000F8383800001C100E1C000000382001C0
001C000001C00100000000383800001C00001C00000038000040
ENDCHAR
STARTCHAR C_PRESTART_COMPLETE.uni00B9
ENCODING 185
SWIDTH 22867 0
DWIDTH 159 0
BBX 159 36 0 -9
BITMAP
000000000000000000000003E0000000000000F8
00000000000000000000000FFC000000000003FC
00000000000000000000000E0E00000000000784
00000000000000000000001C0300000000000700
00000000000000000000001C0180000000000700
00000000000000000000001C00C0000000000700
00000000000000000000001C00C0000000000300
00000000000000000000000E0040000000000380
0000000000000000000000070060000000000180
FFFFFFFFFFFFFFC0003FFFFFFFFC0003FFFFFFFE
FFFFFFFFFFFFFFC0003FFFFFFFFC0003FFFFFFFE
0003838000000E00000E0E01C0E00000003801C0
0003838000000E00000E0E01C0E00000003801C0
0003838000000E00000E0E01C0E000000FF83FC0
01FF838000000E00000E0E01C0E000003FF87FC0
C1FF838001FF8E00000E0E01C0E000003800F000
60E38387FDFF8E00000E0E0FC0E000003800E000
7063838FFC1C0E00000E0E0F80E000003800E000
3073838F80301E00000E0E0F80E000001DE06BC0
1873838780701E00000E0E0780E000001FF87FF0
1C73838780703E0000071E0600E000001C3C1878
0FF3838180783E000007FE0300E00000381C0038
03C38380003FCE000001CE0380E00000701C0038
00038380000F8E0000000E00C0E00000701C2038
0003838000000E0000000E0060E00000701C78F0
0003838000000E0000000E0038E0000078387FF0
0003838000000E0000000E0008E0000038383F80
000000000000000000003E00000000001E080600
000000000000000000007F000000000007C00300
00000000000000000000E1C00000000007E00180
00000000000000000000C0E00000000200700180
00000000000000000000C0300000000180300080
00000000000000000000C01000000001C0300000
000000000000000000007C180000000060300000
000000000000000000000000000000003FE00000
0000000000000000000000000000000007800000
ENDCHAR
STARTCHAR C_WELCOME_TO.uni0123
ENCODING 291
SWIDTH 22867 0
DWIDTH 151 0
BBX 151 31 0 -5
BITMAP
00FC003C000FF000000000000FC0000000780000
01FE003F001FFF00000000001FE00000007E0000
03C20001803C07E0000000003C20000000030000
03800000C0380078000000003800000000018400
038000006038001C00000000380000000000CE00
0180000030380006000000001800000000004400
01C00000301C0003000000001C00000000006000
00C00000180E0001800000000C00000000003000
FFFFFFFFFFFFFFFFFFFFFFFFFFFFFFF003FFFE00
FFFFFFFFFFFFFFFFFFFFFFFFFFFFFFF003FFFE00
00E00000380E0001C1C1C1C00E00038000707000
00E00000380E0001C1C1C1C00E00038000707000
1FE00000380E0001C1C1C1C1FE00038000707000
3FE00000380E0001C1C1C1C3FE00038000707000
78000001F80E0787C1C1C1C78000038000707000
70007FC7F80E1FEFC1C1C1C7000FFF8000707000
7000FFCF000E1C39C1C1C1C7000FFF8000707000
33E0F00E000E3C79C7FFC1C33F0F838001FFF000
1FF8701C000E3871C7FFC1C1FF87838001FFF000
0C3C701C000E38F1C7C1C1C0C1C7838001F07000
001C301C000E3821C3C1C1C001C1838000F07000
001C001C000E1C01C1C1C1C001C0038000707000
101C000E000E0E01C181C1C101C0038000607000
3C78000F010E0701C001C1C3C780038000007000
3FF00007FF0E0201C001C1C3FF80038000007000
1FE00000FC0E0001C001C1C1FC00038000007000
0300000000000000000000003000000000000000
0180000000000000000000001800000000000000
00C0000000000000000000000C00000000000000
0040000000000000000000000600000000000000
0040000000000000000000000400000000000000
ENDCHAR
STARTCHAR C_INTELLIMINE.uni0124
ENCODING 292
SWIDTH 22867 0
DWIDTH 96 0
BBX 96 32 0 -6
BITMAP
000000000000000000003C00
000000000000000000003F00
000000000000000000000180
0000000000000000000000C0
000000000000000000003E60
000000000000000000003FE0
0000000000000000000001F0
000000000000000000000038
FFFFFFFFFFFFFFFFFE007FFF
FFFFFFFFFFFFFFFFFE007FFF
0E0000707070700070000038
0E0000707070700070000038
0E0000707070700070000FF8
0E007C707070703FF0000FF8
0E01FE70707070FFF0001C00
7E01C270707071E070001C00
7E0B8070707071C070001C00
7FFB807071F071C070000DF0
39F380F071F071C070000FF8
380381F070F071C070000E1C
1801C370706070E070001C1C
0C01FE70702070607000381C
0E007C70700070607000381C
03000070700070307000383C
01C000707000703870003838
008000707000701070003808
000000000000000000001C00
000000000000000000001E00
000000000000000000000F00
0000000000000000000007C0
0000000000000000000001F0
000000000000000000000078
ENDCHAR
STARTCHAR C_THANKYOU.uni0125
ENCODING 293
SWIDTH 22867 0
DWIDTH 88 0
BBX 88 23 0 -4
BITMAP
3C0000000000000000000000
7E3FFFFFFFFFFFFFFFFFFF00
E33FFFFFFFFFFFFFFFFFFF00
E30E0000387000383800E000
E30E0000387000383800E000
E70E0000387000383800E000
740E000038703E383800E000
780E00003870FF383807E000
1F8E1FF07070E138383FE000
1F8E3FF0F071C038387C0000
380E3E03E071C03838700000
780E1E078071C07838E00000
701E1E0380F1C0F838E00000
701E0601E1F0E1B838E00000
703E0000FFF0FF3838E00000
387E00001E703E3838E03800
3FCE00000070003838703C00
0F8E000000700038387C3C00
000E000000700038381FF800
00000000000000000007F800
000000000000000000000C00
000000000000000000000C00
000000000000000000000600
ENDCHAR
STARTCHAR C_MCHINSP.uni0126
ENCODING 294
SWIDTH 22867 0
DWIDTH 138 0
BBX 138 28 0 -1
BITMAP
000000001F00000000000000000000000000
000000003FC0000000000000000000000000
0000000078E0000000000000000000000000
000000007070000000000000000000000000
000000006030000000000000000000000000
000000006018000000000000000000000000
000000006008000000000000000000000000
00000000600C000000000000000000000000
000000003004000000000000000000000000
FFFFF1F3FFFFFFFFF00FFFFFFFFFFFFFFFC0
FFFFF399FFFFFFFFF00FFFFFFFFFFFFFFFC0
0C06070C600C0006000000300C0000001800
0C06060C600C0006000000300C0000001800
0C06060C600C0006000000300C0000001800
0C06060C600C000600003FF00C0003FFF800
0C06031C600C0FFE00041FF00C07FFFFF800
0C0601FC600C1FFE00060E300C0FFC1C1800
0C060038600C1F06000206300C0F80383800
3FFE0038600C0E06000307300C0700303800
3FFE0F70600C0E06000103300C0700107800
1C060FE0600C0606000183300C030019F800
0C060FC0600C02060000E7300C01000F9800
0C060040600C000600007E300C0000001800
00060020600C000600003C300C0000001800
00060030600C0006000000300C0000001800
00060010600C0006000000300C0000001800
00060008600C000200000030040000001800
000200002004000000000010040000000800
ENDCHAR
STARTCHAR C_BLASTING.uni0127
ENCODING 295
SWIDTH 22867 0
DWIDTH 105 0
BBX 105 28 0 -1
BITMAP
00000000000007FE000000000000
0000000000000FFF800000000000
0000000000001F0FE1C0E0000000
0000000000003C01F3E1F0000000
0000000000003C0079E1E0000000
00000000000038001C0000000000
00000000000038000E0000000000
0000000000003C00070000000000
0000000000001C00030000000000
FFFFFFFFFFFFFFFFFFFFFFFFFF80
FFFFFFFFFFFFFFFFFFFFFFFFFF80
000E0000E0701C01C001E01C3800
000E0000E0701C01C001E01C3800
000E0000E0701C01C001E01C3800
07EE07C3E0701C01C001E01C3800
1FFE0FF7E0701C0FC01FE01C3800
3F3E0F3FE0701C1FC33FE0FE3800
3F0E0E1EE0701C1FFF7C00FE3800
7B8E0E3CE0701C1FFF70007E3800
31DE0E38E0701C0F00E0007E3800
30FE0700E0701C070060003E3800
19FE0380E0701C070060001C3800
0FFE0180E0701C03807018003800
07CE00C0E0701C018030FC003800
000E0060E0701C00C01FFC003800
000E0000E0701C00600FE0003800
000E0000E0301C00300000003800
0006000060300C00000000001800
ENDCHAR
STARTCHAR C_ACCID_DAMAGE.uni0128
ENCODING 296
SWIDTH 22867 0
DWIDTH 190 0
BBX 190 33 0 -6
BITMAP
000001FF00000000700000000000000001C0007000000000
000003FFC00000007C0000000000000001F0007C00000000
00000783F00000003F0000000000000000FC003F00000000
00000E00780000000300000000000000000C000300000000
00000E001C00000000800000000000000002000080000000
00000C000600000000400000000000000001000040000000
00000C000300000000600000000000000001800060000000
00000E000180000000200000000000000000800020000000
000006000080000000100000000000000000400010000000
FFFFFFFFFFFFFFFFFFFFFFFFFFFFFFFC07FFFFFFFFFFFFFC
FFFFFFFFFFFFFFFFFFFFFFFFFFFFFFFC07FFFFFFFFFFFFFC
180C06000600606000180000380001800000603018000180
180C06000600606000180000380001800000603018000180
180C06000600606000180000380001800000603018000180
180C0601E60060601FF80000380F0780007FE0301801FF80
180C0603FFF3E0603FF83FE3F81FCF8000FFE0301820FF80
180C06038FF7E0E010007FE7F81C7D800040003018307180
180C06020F07FFE018007C0F001839800060003018103180
180C06021E03FF608FE0380C00187180023F80FFF8183980
181C06037E03C060CFF0381800186180033FC0FFF8081980
183C0601F601806047181808000C0180011C6070180C1980
181806000600806020180808000601800080603018073980
0C0006000600C0601018000C02020180004060301803F180
03000600060040600C7800041F0101800031E0001801E180
008006000600206007F00003FF008180001FC00018000180
006006000600106001E00001F80001800007800018000180
001806000200086000000000000001800000000018000180
000402000200002000000000000000800000000008000080
000300000000000000000000000000000000000000000000
000180000000000000000000000000000000000000000000
000180000000000000000000000000000000000000000000
000380000000000000000000000000000000000000000000
000300000000000000000000000000000000000000000000
ENDCHAR
STARTCHAR C_MATERIAL.uni0129
ENCODING 297
SWIDTH 22867 0
DWIDTH 99 0
BBX 99 28 0 -1
BITMAP
1E003C0001FC0000000000000000
1F803F0007FF0000000000000000
0FE01FC00F8F8000000000000000
00E001C00F03C000000000000000
003000600F00E000000000000000
001800300E007000000000000000
001C00380E003000000000000000
000C00180F003800000000000000
0006000C07001800000000000000
FFFFFFFFFFFFFFFFFFFFFFFFE000
FFFFFFFFFFFFFFFFFFFFFFFFE000
0E07001E07001C00E1C0001C0000
0E07001E07001C0071C0001C0000
0E07001E07001C0071C0001C0000
0E07001E07001C0071C0F87C0000
0E0701FE0701FC00F1C1FEFC0000
0E0703FE0703FC01F1C1E7FC0000
0E0707C00703F807E1C1C3DC0000
3FFF07000701F807C3C1C79C0000
3FFF0E000700F00303C1C71C0000
1E07060007006001CFC0E01C0000
0E07060007003000FFC0701C0000
0E070701870018003DC0301C0000
0007030FC7000C0001C0181C0000
000701FFC700070001C00C1C0000
000700FE0700038001C0001C0000
00070000070000C001C0001C0000
000300000300000000C0000C0000
ENDCHAR
STARTCHAR REFILL.uni012A
ENCODING 298
SWIDTH 22867 0
DWIDTH 146 0
BBX 146 28 0 -1
BITMAP
07FC000000000078000000000000000000000000
0FFF00000000007E000000000000000000000000
1F0F80000000003F800000000000000000000000
3C03C00000000003800000000000000000000000
3C00E00000000000C00000000000000000000000
3800700000000000600000000000000000000000
3800380000000000700000000000000000000000
3C001C0000000000300000000000000000000000
1C000C0000000000180000000000000000000000
FFFFFFFFFFFE03FFFFE01E7FFFFFFFFFFFFFC000
FFFFFFFFFFFE03FFFFE03FBFFFFFFFFFFFFFC000
1C0E0E000380001C1C0039C1C0070000E0380000
1C0E0E000380001C1C0038C1C0070000E0380000
1C0E0E000380001C1C001CE1C0070000E0380000
1C0E0E000380001C1C000FE1C0070000E0380000
1C0E0FE03F8000FC1C0000E1C07F01FFE0380000
1C0E0FF87F8001FC3C0000E1C0FF03FFE0380000
1C061FCC7F0001FFFC0001E1C0FE03F0E0380000
1C037F0C3F0000FFFC000FFFC07E01E0E0380000
1C01FE0E1E0000F81C0007FFC03C01E0E0380000
1C000E0E0C0000701C0007E1C01800E0E0380000
1C000E0E060000301C0003E1C00C0060E0380000
1C000E0E030000381C0001E1C0060000E0380000
1C000E1E018000181C0000C1C0030000E0380000
1C000E1E00E0000C1C000001C001C000E0380000
1C000E3C007000061C000001C000E000E0380000
1C000E00001800031C000001C000300060180000
0C000600000000000C000000C000000000180000
ENDCHAR
STARTCHAR C_EMPTY.uni012B
ENCODING 299
SWIDTH 22867 0
DWIDTH 63 0
BBX 63 30 0 -3
BITMAP
000000000001F800
000000000003FE00
000000000007CF00
0000000000078780
0000000000070380
00000000000701C0
00000000000700C0
00000000000700E0
0000000000038060
FFFFFFFFFFFFFFFE
FFFFFFFFFFFFFFFE
0E00E070000380E0
0E00E070000380E0
0E3EE070000380E0
3E7FE0701F0F80E0
7EF3E0703FDF80E0
7EE0E0703CFF80E0
7EC1E070387B80E0
3CC3E07038F380E0
1C6FE07038E380E0
187FE0701C0380E0
0C3EE0700E0380E0
0601E070060380E0
038FE070030380E0
01FFE070018380E0
003CE070000380E0
03006030000380E0
0780603000018060
0F80000000000000
0700000000000000
ENDCHAR
STARTCHAR C_WATERIN.uni012C
ENCODING 300
SWIDTH 22867 0
DWIDTH 108 0
BBX 108 28 0 -1
BITMAP
0000000000FC0001E00000000000
0000000001FF0001F80000000000
0000000003E78000FE0000000000
0000000003C3C0000E0000000000
000000000381C000030000000000
000000000380E000018000000000
000000000380600001C000000000
000000000380700000C000000000
0000000001C03000006000000000
FFFFFFFFFFFFFF01FFFFFFFFFFF0
FFFFFFFFFFFFFF01FFFFFFFFFFF0
381C0E0003807000007000380E00
381C0E0003807000007000380E00
381C0E0003807000007800380E00
381C0E00038070003FF800380E00
381C0E07FF8070007FF87FF80E00
381C0E0FFF8070007800FFF80E00
381C0E0FC38070007000FC380E00
1C3C0E0783807000600078380E00
0EFC0E078380700061F078380E00
03FC0E038380700031F838380E00
001C0E018380700039F818380E00
001C0E00038070001FF800380E00
001C0E000380700007F000380E00
001C0E0003807000007000380E00
001C0E0003807000003800380E00
001C060001807000001C00180600
000C060000003000000000000600
ENDCHAR
STARTCHAR C_STOP_WATERIN.uni012D
ENCODING 301
SWIDTH 22867 0
DWIDTH 170 0
BBX 170 28 0 -1
BITMAP
0000000000F80001C00000000000001C000000700000
0000000001FE0001F00000000000003F800000FE0000
0000000003C70000FC0000000000001FC000007F0000
00000000038380000C00000000000000E00000038000
0000000003018000020000000000000030000000C000
000000000300C0000100000000000000100000004000
00000000030040000180000000000000080000002000
00000000030060000080000000000000040000001000
00000000018020000040000000000000060000001800
FFFFFFFFFFFFFE01FFFFFFFFFFE01FFFFFFFFFFFFFC0
FFFFFFFFFFFFFE01FFFFFFFFFFE01FFFFFFFFFFFFFC0
30180C0003006000006000300C000030060006001800
30180C0003006000006000300C000030060006001800
30180C0003006000007000300C000030060006001800
30180C00030060003FF000300C0000300601E6001800
30180C07FF0060007FF07FF00C0003700603FFF01800
30180C0FFF0060007000FFF00C0007F006038FC81800
30180C0F830060006000F8300C0007E006020F041800
18380C0703006000400070300C0003E006021E041800
0CF80C070300600041E070300C0001C006037E061800
03F80C030300600021F030300C0000800601F6061800
00180C010300600031F010300C0000400600060E1800
00180C00030060001FF000300C0000200600060C1800
00180C000300600007E000300C0000100600060C1800
00180C0003006000006000300C00000C060006001800
00180C0003006000003000300C000006060006001800
00180400010060000018001004000001020006000800
00080400000020000000000004000000020002000800
ENDCHAR
STARTCHAR C_ARRIVE2.uni0130
ENCODING 304
SWIDTH 22867 0
DWIDTH 81 0
BBX 81 19 0 -1
BITMAP
7E3FFFFFFFFFFFFFFFFF8000
F93FFFFFFFFFFFFFFFFF8000
40860C018300C06000300000
00860C018300C06000300000
01860C018300C06000300000
0F860C018300C06000300000
3F060C018300C0607FF00000
1F0E0C0FC300C060FFF00000
81FE0C0FC300C060F8300000
C0FE0C07C303FFE070300000
40C60C07C303FFE070300000
60C60C03C301C06030300000
31C60C018300C06010300000
1F860C000300C06000300000
0F060C000300006000300000
00060C000300006000300000
00060C000300006000300000
00060C000300006000100000
000204000100002000000000
ENDCHAR
STARTCHAR C_WEATHER_CON.uni0131
ENCODING 305
SWIDTH 22867 0
DWIDTH 183 0
BBX 183 28 0 -1
BITMAP
0000F00000000000000001F8000001FC00000001FC000000
0000780000000000000007FE000007FF80000007FF800000
00007C000000000000000F8F80000F87E000000F87E00000
00000C000000000000000E01C0001C00F000001C00F00000
000386000000000000000C00C0001C003800001C00380000
0001F2000000000000000C00600018000C000018000C0000
0001FA000000000000000C0030001C000600001C00060000
00000F000000000000000E0010000C000300000C00030000
000013000000800000000E0118000C000300000C00030000
FFFFFFFFFFFFFFFFF01FFFFFFF807FFFFFFFFFFFE79FFE00
FFFFFFFFFFFFFFFFE01FFFFFFF807FFFFFFFFFFFEFCFFE00
0E0E038030380E0E00000E0038000E00C000380E0E20C000
0E0E038030380E0E00000E0038000E00C000380E0E30C000
0E0E038030380E0E00018E0038000E00C000380E0630C000
0E0E038030380E0E0007EE0038000E00C01FF80E0370C000
0E0E0381B0380E0E0007FFE038000E06C07FF80E0070C000
0E0E0383F0780E0E000E0FB038000E0FC1FFF80E01E1C000
3FFE0383FFF83FFE000C1E1838000E0FFFE0380E0FC1C000
7FFE0381FFB87FFE00043E0838000E07FF60380E0703C000
3FFE0381E0383FFE0006FE0838000E078060380E0207C000
1E0E0380C0381E0E0003EE1838000E030060380E01DFC000
0E0E038040380E0E00000E1838000E010020380E00FCC000
060E03806038060E00000E1838000E018030380E0000C000
000E03803038000E00000E1838000E00C018380E0000C000
000E03801038000E00000E0038000E004008380E0000C000
000603800838000600000E0038000E002004380E0000C000
00060180041800060000060018000600100218060000C000
000200000000000200000000000000000000000000000000
ENDCHAR
STARTCHAR C_TEMPERATURE.uni0132
ENCODING 306
SWIDTH 22867 0
DWIDTH 91 0
BBX 91 20 0 -1
BITMAP
000000100008000100000000
FFFFFFFFFFFFFFFFFFFFFFE0
FFFFFFFFFFFFFFFFFFFFFFE0
001C07070700E0E038000E00
001C07070700E0E038000E00
001C07070700E0E038000E00
0FFC07070700E0E038000E00
3FFC07070700E0E0381FFE00
3FFC07070700E0E0383FFE00
301C07030703FFE0383E0E00
301C07030F07FFE0383C0E00
301C0700FF03FFE0381C0E00
301C07007701E0E0380C0E00
101C07000700E0E0380C0E00
181C0700070060E038000E00
0C1C0700070000E038000E00
041C0700070000E038000E00
021C07000700006038000E00
010C03000300006018000600
000000000100002000000000
ENDCHAR
STARTCHAR C_WIND_SPEED.uni0133
ENCODING 307
SWIDTH 22867 0
DWIDTH 135 0
BBX 135 34 1 -7
BITMAP
0000000000000000FC00000000003F800000
0000000000000003FF0000000000FFF00000
0000000000000007C7C000000001F0FC0000
000000000000000700E000000003801E0000
000000000000000600600000000380070000
000000000000000600300000000300018000
00000000000000060018000000038000C000
000000000000000700080000000180006000
0000800000000007008C0000000184006000
FFFFFFFFFFF00FFFFFFFC03FFFFFFFFFFE00
FFFFFFFFFFF00FFFFFFFC03FFFFFFFFFFE00
0018001C07000007001C00018701C000E000
0018001C07000007001C00018701C000E000
0018031C070000C7001C00018701C000E000
1FF81FDC070003F7001C00018701C07FE000
3FF83FFC070003FFF01C00038701C1FFE000
3FF83C1C07000707D81C001F8701C1FFE000
2000301C0700060F0C1C000F8701C180E000
3000303C0700021F041C000F8701C180E000
13E030FC0700037F041C00078701C180E000
0FF01BFC070001F70C1C00038701C180E000
1F080FDC070000070C1C00018701C080E000
1C04031C070000070C1C00000701C0C0E000
3804001C070000070C1C00000701C060E000
380C001C07000007001C00000701C020E000
181C001C07000007001C00000701C010E000
1838000C03000003000C00000300C0086000
0C3000000000000000000000000000000000
060000000000000000000000000000000000
030000000000000000000000000000000000
018000000000000000000000000000000000
006000000000000000000000000000000000
001C00000000000000000000000000000000
000300000000000000000000000000000000
ENDCHAR
STARTCHAR C_WIND_DIRECT.uni0134
ENCODING 308
SWIDTH 22867 0
DWIDTH 146 0
BBX 146 34 1 -7
BITMAP
0000000000000000FC000001FC00000000000000
0000000000000003FF000003FF00000000000000
0000000000000007C7C0000787C0000000000000
000000000000000700E0000E00E0000000000000
00000000000000060060000E0030000000000000
00000000000000060030000C0018000000000000
00000000000000060018000E000C000000000000
0000000000000007000800060006000000000000
0000800000000007008C00060006006000800000
FFFFFFFFFFF00FFFFFFFC03FFFFFF9F8FFFFC000
FFFFFFFFFFF00FFFFFFFC03FFFFFF384FFFFC000
0018001C07000007001C000700030386381C0000
0018001C07000007001C000700030306381C0000
0018031C070000C7001C0007001F0306381C0000
1FF81FDC070003F7001C000701FF8306381C0000
3FF83FFC070003FFF01C000703FF018E381C0000
3FF83C1C07000707D81C0007038000FE381C0000
2000301C0700060F0C1C00070300001C381C0000
3000303C0700021F041C00070200021C381C0000
13E030FC0700037F041C0007020F07B8381C0000
0FF01BFC070001F70C1C0007010F87E0381C0000
1F080FDC070000070C1C0007018F83E0381C0000
1C04031C070000070C1C000700FF8030381C0000
3804001C070000070C1C0007003F0010381C0000
380C001C07000007001C000700030008381C0000
181C001C07000007001C000700018008381C0000
1838000C03000003000C00030000C004180C0000
0C30000000000000000000000000000000000000
0600000000000000000000000000000000000000
0300000000000000000000000000000000000000
0180000000000000000000000000000000000000
0060000000000000000000000000000000000000
001C000000000000000000000000000000000000
0003000000000000000000000000000000000000
ENDCHAR
STARTCHAR C_SKY_COND.uni0135
ENCODING 309
SWIDTH 22867 0
DWIDTH 169 0
BBX 169 28 0 -1
BITMAP
000000000000000000000000003F800000000FE00000
00000000000000000000000000FFF00000003FFC0000
00000000000000000000000001F0FC0000007C3F0000
00000000000000000000000003801E000000E0078000
000000000000000000000000038007000000E001C000
000000000000000000000000030001800000C0006000
000000000000000000000000038000C00000E0003000
00000000000000000000000001800060000060001800
00000020000000004020000001800060000061001800
7F3FFFFFFFFFFFFFFFFFFFF00FFFFFEF3FFFFFFFFF80
719FFFFFFFFFFFFFFFFFFFF00FFFFFFF9FFFFFFFFF80
00870C0181C038380E00070001C0181C418070003800
00870C0181C038380E00070001C0181C618070003800
01870C0181C038380E00070001C0180C618070003800
07870C0181C038380E00070001C01806E180701FF800
3F070C0D81C038380E0FFF0001C0D800E180707FF800
1F0F0C1F83C038380E1FFF0001C1F833C380707FF800
81FF0C1FFFC0FFF80E1F070001C1FFFF838070603800
C0FF0C0FFDC1FFF80E1E070001C0FFEE078070603800
40E70C0F01C0FFF80E0E070001C0F0040F8070603800
60C70C0601C078380E06070001C06003BF8070603800
31C70C0201C038380E06070001C02001F98070203800
1FC70C0301C018380E00070001C03000018070303800
0F870C0181C000380E00070001C01800018070183800
00070C0081C000380E00070001C00800018070083800
00070C0041C000180E00070001C00400018070043800
0003040020C000180600030000C00200018030021800
00010000000000080000000000000000000000000000
ENDCHAR
STARTCHAR C_PRECIPITATION.uni0136
ENCODING 310
SWIDTH 22867 0
DWIDTH 119 0
BBX 119 27 0 0
BITMAP
0000000001C000000000000000000000
0000000003F000000000000000000000
00000000071800000000000000000000
00000000060800000000000000000000
00000000060000000000000000000000
00000000060000000000000000000000
00000000030000000000000000000000
00000000018000000000000000000000
0000000008C000000020000020000000
FFFFFFFFFFFC03FFFFFFFFFFFFFFFE00
FFFFFFFFFFFC03FFFFFFFFFFFFFFFC00
001C0F0301C00001C0070018001C0000
001C0F8301C00001C0070018001C0000
031C0E8301C00031C0070018031C0000
1FDC0E4301C000FDC00700180FDC0000
3FFC0E2301C000FFFC0701F80FFFC000
3C1C0E1301C001C1F60703F81C1F6000
301C0E0B01C00183C30703F0183C3000
303C0E0F01C00087C10701F0087C1000
30FC060701C000DFC10700E00DFC1000
1BFC031F01C0007DC307004007DC3000
0FDC01FF01C00001C3070020001C3000
031C000301C00001C3070010001C3000
001C000301C00001C3070008001C3000
001C000301C00001C0070006001C0000
001C000301C00001C0070003001C0000
000C000100C00000C0030000800C0000
ENDCHAR
STARTCHAR C_ENTER_TEMP.uni0137
ENCODING 311
SWIDTH 22867 0
DWIDTH 134 0
BBX 134 28 0 -1
BITMAP
000000000000000000000000000007800000
000000000000000000000000000007E00000
000000000000000000000000000003F00000
000000000000000000000000000000380000
000000000000000000000000000000080000
000000000000000000000000000000040000
000000000000000000000000000000020000
000000000000000000000000000000030000
000000100008000100000000000001018000
FFFFFFFFFFFFFFFFFFFFFFE0078FFFFFFC00
FFFFFFFFFFFFFFFFFFFFFFE00ECFFFFFFC00
001C07070700E0E038000E000C2070030000
001C07070700E0E038000E000C3070030000
001C07070700E0E038000E00063070030000
0FFC07070700E0E038000E0003F070030000
3FFC07070700E0E0381FFE000030703F0000
3FFC07070700E0E0383FFE000030707F0000
301C07030703FFE0383E0E000038707E0000
301C07030F07FFE0383C0E0001FFF03E0000
301C0700FF03FFE0381C0E0001FFF01C0000
301C07007701E0E0380C0E0000F070080000
101C07000700E0E0380C0E0000F070040000
181C0700070060E038000E00007070020000
0C1C0700070000E038000E00002070010000
041C0700070000E038000E0000007000C000
021C07000700006038000E00000070006000
010C03000300006018000600000030001000
000000000100002000000000000000000000
ENDCHAR
STARTCHAR C_NONE.uni0138
ENCODING 312
SWIDTH 22867 0
DWIDTH 126 0
BBX 126 28 1 -1
BITMAP
0000000000000000003C000000000000
0000000000000000001E000000000000
0000000000000000001F000000000000
00000000000000000003000000000000
000000000000000000E1800000000000
0000000000000000007C800000000000
0000000000000000007E800000000000
00000000000000000003C00000000000
00001000000000000004C00000200000
FFFFFFFFFFFFE03FFFFFFFFFFFFFFFFC
FFFFFFFFFFFFC03FFFFFFFFFFFFFFFF8
06070381818000038380E00C0E038380
06070381818000038380E00C0E038380
06070381818000038380E00C0E038380
06070381818000038380E00C0E038380
3607038181FC00038380E06C0E038380
7E0F038181FE00038380E0FC1E038380
7FFF038083F3000FFF80E0FFFE0FFF80
3FF70380CFC1001FFF80E07FEE1FFF80
3C0703803F81800FFF80E0780E0FFF80
18070380018180078380E0300E078380
08070380018180038380E0100E038380
0C070380018380018380E0180E018380
06070380618380000380E00C0E000380
02070380F18700000380E0040E000380
01070380E18700000180E0020E000180
00830180408000000180600106000180
00000000000000000080000000000080
ENDCHAR
STARTCHAR C_LIGHT_RAIN.uni0139
ENCODING 313
SWIDTH 22867 0
DWIDTH 57 0
BBX 57 20 1 -1
BITMAP
0000400000010000
FFFFFFFFFFFFFF80
FFFFFFFFFFFFFF80
38380E0000703800
38380E0000703800
38380E0000703800
38380E03C1F03800
38380E07F7F03800
38380E0E1F703800
18380E0E1E703800
18780E061C703800
07F80E0618703800
03B80E0200703800
00380E0100703800
00380E0080703800
00380E0040703800
00380E0020703800
00380E0000703800
0018060000301800
0008000000000000
ENDCHAR
STARTCHAR C_RAIN.uni013A
ENCODING 314
SWIDTH 22867 0
DWIDTH 72 0
BBX 72 27 1 0
BITMAP
00000000FC0000000000
00000003FF0000000000
00000007C78000000000
0000000701C000000000
00000007006000000000
00000006003000000000
00000007001000000000
00000003001800000000
00000013000C00C00000
FFFFFFFFFFFFF3F1FF00
FFFFFFFFFFFFF709FF00
001C0703800C070C7000
001C0703800C060C7000
001C0703800C060C7000
0F9C0703800C060C7000
1FFC070380FC031C7000
3C3C070381FC01FC7000
761C070381F800387000
631C070380F804387000
213C070380700F707000
20FC070380200FC07000
1BFC0703801007C07000
0FDC0703800800607000
031C0703800400207000
001C0703800300107000
001C0703800180107000
000C0301800040083000
ENDCHAR
STARTCHAR C_CLEAR.uni013B
ENCODING 315
SWIDTH 22867 0
DWIDTH 51 0
BBX 51 19 1 0
BITMAP
0000100000000000
FFFFFFFFFFFFE000
FFFFFFFFFFFFC000
0607038181800000
0607038181800000
0607038181800000
0607038181800000
3607038181FC0000
7E0F038181FE0000
7FFF038083F30000
3FF70380CFC10000
3C0703803F818000
1807038001818000
0807038001818000
0C07038001838000
0607038061838000
02070380F1870000
01070380E1870000
0083018040800000
ENDCHAR
STARTCHAR C_PARTLY_CLOUD.uni013C
ENCODING 316
SWIDTH 22867 0
DWIDTH 118 0
BBX 118 27 0 0
BITMAP
003E0007800000000000000000000000
003F8007E00000000000000000000000
001FC003F00000000000000000000000
00006000380000000000000000000000
00003000080000000000000000000000
00001800040000000000000000000000
00000800020000000000000000000000
00000400030000000000000000000000
00002600018000000100000040000000
79FFFFFFFFFC03FFFFFFFFFFFFFFFC00
FCFFFFFFFFFC03FFFFFFFFFFFFFFFC00
E20C070001800000703800180001C000
E30C070001C00000703800180001C000
630C07007FC00000703800F80001C000
370C0700FFC0003E70380FFC0F07C000
070C0701FFC0007FF0381FF81FDFC000
1E1C0700800000F0F0381C00387DC000
FC1C0700C00001D8703818003879C000
703C07047E00018C703810001871C000
207C07043F800084F03810781861C000
1DFC070218800083F038087C0801C000
0FCC070100C0006FF0380C7C0401C000
000C070080C0003F703807FC0201C000
000C070063C0000C703801F80101C000
000C07003F800000703800180081C000
000C07001F0000007038000C0001C000
000C030000000000301800060000C000
ENDCHAR
STARTCHAR C_CLOUDY.uni013D
ENCODING 317
SWIDTH 22867 0
DWIDTH 137 0
BBX 137 29 1 -2
BITMAP
1E00000000000000000000003F8000000000
1F80000000000000000000007FE000000000
0FC000000000000000000000F0F800000000
00E000000000000000000001C01C00000000
002000000000000000000001C00600000000
001000000000000000000001800300000000
000800000000000000000001C00180000000
000C00000000000000000000C000C0000000
000610000200000200001000C000C1000000
FFFFFFFFFFFFFFFFFFFFFFFFFFFFFFFFFF80
FFFFFFFFFFFFFFFFFFFFFFFFFFFFFFFFFF80
0E0E0700C070000000060380E00060003800
0E0E0600C070000000060380E00060003800
0E0E0700C0700000780E0380E003E0003800
0E0E03F0C0707FFEFC3E0380E03FF01FF800
0E0E01F8C0707FFFFE790380E07FE07FF800
0E0E01E0C0703FFFC0708380E070007FF800
3FFE0301C070030380708380E06000603800
7FFE0303C070060680618380E04000603800
3FFE0107C070020E7F318380E041E0603800
1E0E019FC070033C3F9B8380E021F0603800
0E0E00FCC07000F8380F8380E031F0203800
060E0000C070000030070380E01FF0303800
000E0000C0700000300F0380E007E0183800
000E0000C0700000303E8380E00060083800
00060000C07000001878C380E00030043800
00060000C030000007F0C180600018021800
00020000400000000000C000000000000000
00000000000000000000C000000000000000
ENDCHAR
STARTCHAR C_CALM.uni013E
ENCODING 318
SWIDTH 22867 0
DWIDTH 47 0
BBX 47 25 0 0
BITMAP
000001800000
000003C00000
000003800000
000000000000
000000000000
000000000000
0C0000040000
3F1FFFFFFFFE
709FFFFFFFFE
70C701C000E0
60C701C000E0
60C701C000E0
60C701C07FE0
31C701C1FFE0
1FC701C1FFE0
038701C180E0
438701C180E0
F70701C180E0
FC0701C180E0
7C0701C080E0
060701C0C0E0
020701C060E0
010701C020E0
010701C010E0
008300C00860
ENDCHAR
STARTCHAR C_LIGHT.uni013F
ENCODING 319
SWIDTH 22867 0
DWIDTH 68 0
BBX 68 20 1 -1
BITMAP
0000400004000C000000
FFFFFFFFFFFE3F1FF000
FFFFFFFFFFFE709FF000
3838003800E070C70000
3838003800E060C70000
3838063800E060C70000
38381FB800E060C70000
38381FFF80E031C70000
1838383EC0E01FC70000
0C38307860E003870000
073810F820E043870000
00F81BF820E0F7070000
00F80FB860E0FC070000
03F8003860E07C070000
07B8003860E006070000
1F38003860E002070000
1C38003800E001070000
0818003800E001070000
00180018006000830000
00080000000000000000
ENDCHAR
STARTCHAR C_GUSTY.uni0140
ENCODING 320
SWIDTH 22867 0
DWIDTH 83 0
BBX 83 20 1 -1
BITMAP
000000100000000080000000
FFFFFFFFFFFFFFFFFFFFE000
FFFFFFFFFFFFFFFFFFFFC000
001C070003807070061C0000
001C070003807070021C0000
031C070003807070031C0000
1FDC0701FF807070071C0000
3FFC0707FF807070071C0000
3C1C0707FF8070701E1C0000
301C07060381FFF07E1C0000
303C07060383FFF0381C0000
30FC07060381FFF0103C0000
1BFC07060380F0700EFC0000
0FDC07020380707007FC0000
031C070303803070009C0000
001C070183800070001C0000
001C070083800070001C0000
001C070043800030000C0000
000C030021800030000C0000
000000000000001000000000
ENDCHAR
STARTCHAR C_UPDATE.uni0141
ENCODING 321
SWIDTH 22867 0
DWIDTH 78 0
BBX 78 20 0 -1
BITMAP
00000000002000000000
FF3FFFFFFFFFFFFFFFFC
719FFFFFFFFFFFFFFFFC
008700030E00070001C0
008700030E00070001C0
0187007F0E00070001C0
0F8703FF0E03FF0001C0
3F0703FF0E0FFF03FFC0
1F0F03000E0FFF07FFC0
81FF02000E0C0707C1C0
C0FF01180E0C070781C0
40E700FE1E0C070381C0
60C700FE1E0C070181C0
31C700E03E04070181C0
1FC700C07E06070001C0
0F870041EE03070001C0
0007003FCE01070001C0
0007000F0E00870001C0
000300000600430000C0
00010000000000000000
ENDCHAR
ENDFONT
